<?xml version="1.0" encoding="UTF-8" standalone="no"?>
<!DOCTYPE svg PUBLIC "-//W3C//DTD SVG 1.1//EN" "http://www.w3.org/Graphics/SVG/1.1/DTD/svg11.dtd">
<svg xmlns="http://www.w3.org/2000/svg" version="1.1" viewBox="0.00 0.00 100.00 100.00">
<g stroke-width="2.00" fill="none" stroke-linecap="butt">
<path stroke="#cbb191" vector-effect="non-scaling-stroke" d="
  M 85.11 100.00
  Q 84.93 91.64 82.91 84.20"
/>
<path stroke="#e8d1b9" vector-effect="non-scaling-stroke" d="
  M 82.91 84.20
  L 81.82 77.04"
/>
<path stroke="#d0b59d" vector-effect="non-scaling-stroke" d="
  M 81.82 77.04
  Q 81.54 75.24 80.86 73.57
  C 79.74 70.81 78.88 68.12 78.18 65.24
  C 77.00 60.37 78.27 58.10 80.05 54.29"
/>
<path stroke="#c4aa92" vector-effect="non-scaling-stroke" d="
  M 80.05 54.29
  Q 82.33 49.40 82.14 43.75
  Q 82.07 41.61 79.26 34.75"
/>
<path stroke="#cec1b9" vector-effect="non-scaling-stroke" d="
  M 79.26 34.75
  L 79.38 32.46"
/>
<path stroke="#f6e1d2" vector-effect="non-scaling-stroke" d="
  M 79.38 32.46
  Q 81.70 28.60 80.92 23.60"
/>
<path stroke="#cec1b9" vector-effect="non-scaling-stroke" d="
  M 80.92 23.60
  C 83.29 18.30 84.95 11.96 82.66 7.01
  C 79.78 0.79 65.26 13.19 62.89 15.65
  Q 62.17 16.39 62.01 17.03"
/>
<path stroke="#c4aa92" vector-effect="non-scaling-stroke" d="
  M 62.01 17.03
  Q 60.35 17.43 58.22 16.86"
/>
<path stroke="#e8d1b9" vector-effect="non-scaling-stroke" d="
  M 58.22 16.86
  Q 55.64 16.61 53.07 16.29
  Q 50.39 15.97 47.93 16.24
  Q 45.11 16.56 42.29 16.93"
/>
<path stroke="#c4aa92" vector-effect="non-scaling-stroke" d="
  M 42.29 16.93
  L 39.85 17.20
  Q 39.34 17.26 38.97 16.91
  L 33.60 11.95"
/>
<path stroke="#cec1b9" vector-effect="non-scaling-stroke" d="
  M 33.60 11.95
  Q 28.39 7.42 22.50 5.49
  Q 20.67 4.89 18.67 5.94
  Q 18.19 6.19 17.99 6.70
  C 15.88 12.11 17.22 17.08 19.16 22.27
  Q 19.83 24.07 19.90 26.35
  Q 20.02 30.27 21.71 34.23"
/>
<path stroke="#c4aa92" vector-effect="non-scaling-stroke" d="
  M 21.71 34.23
  Q 17.68 42.33 18.81 48.87
  Q 19.16 50.90 21.81 57.62
  Q 22.05 58.25 22.73 59.33
  C 23.76 60.98 22.86 63.39 22.62 65.20"
/>
<path stroke="#d0b59d" vector-effect="non-scaling-stroke" d="
  M 22.62 65.20
  L 19.88 72.99"
/>
<path stroke="#cbb191" vector-effect="non-scaling-stroke" d="
  M 19.88 72.99
  Q 18.50 77.14 18.22 81.78
  C 18.10 83.79 17.48 85.10 16.76 86.88
  Q 16.12 88.47 16.05 90.88
  Q 15.92 95.43 15.27 100.00"
/>
<path stroke="#936c4b" vector-effect="non-scaling-stroke" d="
  M 33.60 11.95
  Q 32.86 12.07 33.31 12.77"
/>
<path stroke="#c0a287" vector-effect="non-scaling-stroke" d="
  M 33.31 12.77
  Q 32.48 12.08 32.02 12.09
  Q 31.54 12.10 31.86 12.46
  L 35.99 16.95"
/>
<path stroke="#936c4b" vector-effect="non-scaling-stroke" d="
  M 35.99 16.95
  L 35.44 16.94
  Q 34.90 16.92 35.21 17.36
  Q 35.46 17.71 35.41 18.03"
/>
<path stroke="#c4a38b" vector-effect="non-scaling-stroke" d="
  M 35.41 18.03
  Q 32.09 15.16 29.61 11.59
  Q 28.04 9.35 26.47 8.32
  C 24.15 6.82 18.90 4.34 18.15 8.49
  Q 16.79 15.98 20.84 23.35
  C 21.67 24.85 21.96 26.45 21.90 28.17
  A 1.55 1.55 0.0 0 0 24.52 29.34
  L 25.97 27.94"
/>
<path stroke="#936c4b" vector-effect="non-scaling-stroke" d="
  M 25.97 27.94
  Q 26.71 30.90 25.12 32.72
  Q 24.75 33.13 24.28 32.84
  Q 23.50 32.34 22.99 31.50
  Q 22.70 31.00 22.24 31.34
  Q 21.79 31.68 21.79 32.26
  Q 21.80 33.54 21.71 34.23"
/>
<path stroke="#c4a38b" vector-effect="non-scaling-stroke" d="
  M 80.92 23.60
  L 80.69 23.78
  A 0.27 0.27 0.0 0 1 80.38 23.80
  Q 79.89 23.51 80.12 23.04
  C 82.33 18.56 83.98 12.39 81.85 7.50
  Q 81.09 5.76 79.24 6.20
  Q 73.42 7.56 70.09 12.53
  Q 69.75 13.04 68.98 13.31"
/>
<path stroke="#936c4b" vector-effect="non-scaling-stroke" d="
  M 68.98 13.31
  Q 68.90 13.05 68.69 12.94"
/>
<path stroke="#c0a287" vector-effect="non-scaling-stroke" d="
  M 68.69 12.94
  Q 69.07 12.39 69.52 11.94
  Q 69.68 11.78 69.53 11.61
  L 69.53 11.61
  Q 69.40 11.46 69.25 11.57
  Q 66.07 13.85 63.50 16.45
  Q 63.26 16.70 63.19 17.04
  Q 63.11 17.39 63.11 17.74"
/>
<path stroke="#936c4b" vector-effect="non-scaling-stroke" d="
  M 63.11 17.74
  Q 62.70 16.86 62.01 17.03"
/>
<path stroke="#c4a38b" vector-effect="non-scaling-stroke" d="
  M 79.38 32.46
  L 78.78 28.58
  Q 78.64 27.68 78.47 28.58
  L 78.13 30.47"
/>
<path stroke="#deb28c" vector-effect="non-scaling-stroke" d="
  M 78.13 30.47
  Q 77.85 31.19 77.22 31.13
  Q 76.76 31.08 76.51 30.69
  C 75.70 29.39 74.70 28.30 74.60 26.68
  Q 74.52 25.55 74.01 24.59
  A 1.09 1.08 -44.7 0 1 74.02 23.53
  Q 74.35 22.95 73.92 22.46
  Q 73.59 22.09 73.10 22.15
  Q 70.78 22.42 68.80 21.81"
/>
<path stroke="#bb8b64" vector-effect="non-scaling-stroke" d="
  M 68.80 21.81
  L 65.49 19.05
  A 0.76 0.75 -51.7 0 1 65.37 18.01
  L 68.98 13.31"
/>
<path stroke="#bb8b64" vector-effect="non-scaling-stroke" d="
  M 35.41 18.03
  Q 35.44 18.20 35.79 18.34"
/>
<path stroke="#deb28c" vector-effect="non-scaling-stroke" d="
  M 35.79 18.34
  Q 35.71 19.09 34.94 19.12
  Q 34.42 19.15 34.04 19.50
  C 32.94 20.53 31.86 21.86 30.29 22.12
  Q 29.17 22.30 28.03 22.35
  Q 26.15 22.44 26.41 23.35"
/>
<path stroke="#e4ba95" vector-effect="non-scaling-stroke" d="
  M 26.41 23.35
  L 26.64 25.27"
/>
<path stroke="#bb8b64" vector-effect="non-scaling-stroke" d="
  M 26.64 25.27
  L 25.97 27.94"
/>
<path stroke="#b78a60" vector-effect="non-scaling-stroke" d="
  M 68.69 12.94
  Q 66.23 15.32 63.94 17.90
  Q 63.71 18.15 63.52 18.12
  Q 63.27 18.09 63.11 17.74"
/>
<path stroke="#b78a60" vector-effect="non-scaling-stroke" d="
  M 33.31 12.77
  Q 35.25 14.61 37.33 16.41
  Q 37.78 16.80 37.79 17.54
  Q 37.79 18.10 37.24 17.99
  Q 36.46 17.82 35.99 16.95"
/>
<path stroke="#ad7b4c" vector-effect="non-scaling-stroke" d="
  M 42.29 16.93
  L 43.62 16.92
  Q 44.19 16.91 44.13 17.47
  C 43.78 20.70 46.39 22.56 45.13 25.68
  A 0.86 0.86 0.0 0 0 45.51 26.75
  Q 47.33 27.75 47.59 29.98
  Q 47.68 30.72 46.97 30.50
  Q 46.20 30.26 45.86 29.57
  Q 44.96 27.74 43.52 26.44
  C 42.76 25.77 42.54 24.90 42.64 23.91
  A 1.93 1.92 14.6 0 0 41.50 21.97
  Q 40.40 21.49 39.73 22.02
  Q 39.28 22.38 39.54 22.89
  Q 40.32 24.44 40.10 26.17
  Q 40.03 26.74 39.52 26.48
  Q 38.74 26.09 38.56 25.12
  A 1.14 1.13 60.9 0 0 36.61 24.56
  Q 35.64 25.64 34.60 23.59
  A 1.95 1.95 0.0 0 1 34.53 21.96
  Q 34.90 21.06 35.76 20.84
  Q 36.49 20.65 36.17 19.97
  Q 35.79 19.18 35.79 18.34"
/>
<path stroke="#ad7b4c" vector-effect="non-scaling-stroke" d="
  M 68.80 21.81
  L 66.71 21.36
  Q 66.16 21.24 66.25 21.80
  Q 66.46 23.20 65.70 24.73
  Q 65.49 25.16 65.02 25.06
  Q 64.40 24.93 63.66 24.22"
/>
<path stroke="#b28355" vector-effect="non-scaling-stroke" d="
  M 63.66 24.22
  Q 62.32 23.86 61.77 26.55"
/>
<path stroke="#ad7b4c" vector-effect="non-scaling-stroke" d="
  M 61.77 26.55
  L 61.47 27.02
  Q 60.95 27.84 60.71 26.89
  Q 60.18 24.77 61.06 22.78
  A 0.80 0.79 8.9 0 0 60.25 21.67
  Q 59.19 21.77 58.57 22.54
  C 57.63 23.69 58.59 24.98 57.50 26.27
  Q 55.89 28.15 54.42 30.01
  Q 52.89 31.92 52.85 29.48
  Q 52.84 28.92 53.82 27.79"
/>
<path stroke="#b28355" vector-effect="non-scaling-stroke" d="
  M 53.82 27.79
  L 55.27 26.68
  A 0.67 0.67 0.0 0 0 55.48 25.88
  C 54.23 23.05 56.23 21.04 56.42 18.31"
/>
<path stroke="#ad7b4c" vector-effect="non-scaling-stroke" d="
  M 56.42 18.31
  Q 56.32 17.83 56.42 17.48
  Q 56.53 17.11 56.98 16.97
  Q 57.52 16.80 58.22 16.86"
/>
<path stroke="#d6aa7d" vector-effect="non-scaling-stroke" d="
  M 56.42 18.31
  L 56.07 17.73
  Q 55.76 17.23 55.20 17.40
  Q 53.95 17.78 53.74 19.26
  Q 53.63 20.07 52.91 19.69
  Q 52.66 19.55 52.60 19.27
  Q 52.39 18.26 52.12 17.31
  A 0.95 0.95 0.0 0 0 51.25 16.63
  Q 49.99 16.57 48.79 17.08
  Q 48.12 17.36 48.11 18.09
  L 48.03 23.81"
/>
<path stroke="#ad7b4c" vector-effect="non-scaling-stroke" d="
  M 48.03 23.81
  Q 47.68 23.69 47.66 23.44
  A 0.28 0.28 0.0 0 0 47.12 23.38
  Q 46.49 25.54 48.07 26.54
  Q 48.91 27.07 48.68 26.10
  L 48.52 25.41"
/>
<path stroke="#d6aa7d" vector-effect="non-scaling-stroke" d="
  M 48.52 25.41
  C 49.03 25.79 49.53 26.39 49.59 27.04
  Q 49.74 28.76 49.88 30.30
  A 1.23 1.22 60.8 0 1 49.65 31.13
  Q 47.85 33.58 44.31 31.40
  Q 42.71 30.42 42.97 32.27
  Q 43.26 34.38 41.73 33.65"
/>
<path stroke="#e1bc99" vector-effect="non-scaling-stroke" d="
  M 41.73 33.65
  L 40.08 30.52"
/>
<path stroke="#d6aa7d" vector-effect="non-scaling-stroke" d="
  M 40.08 30.52
  L 37.97 25.79
  Q 37.59 24.93 36.91 25.58
  L 36.30 26.17
  Q 35.95 26.51 36.22 26.91
  L 36.63 27.54
  Q 36.91 27.96 36.96 28.47
  Q 37.15 30.40 37.23 32.59
  Q 37.37 36.66 34.58 33.69
  Q 32.52 31.49 30.66 27.98
  C 29.69 26.17 29.80 24.14 32.32 23.97
  A 0.88 0.88 0.0 0 0 33.15 23.06
  Q 33.11 21.99 32.49 22.14
  Q 29.56 22.85 26.41 23.35"
/>
<path stroke="#ad7b4c" vector-effect="non-scaling-stroke" d="
  M 36.3953 33.8823
  A 3.76 0.82 65.9 0 0 35.6085 30.1152
  A 3.76 0.82 65.9 0 0 33.3247 27.0177
  A 3.76 0.82 65.9 0 0 34.1115 30.7848
  A 3.76 0.82 65.9 0 0 36.3953 33.8823"
/>
<path stroke="#d6aa7d" vector-effect="non-scaling-stroke" d="
  M 53.82 27.79
  Q 53.45 27.61 53.03 27.60
  Q 52.52 27.59 52.61 27.08
  Q 52.67 26.73 52.95 26.49
  Q 54.53 25.12 53.98 23.38
  Q 53.73 22.56 52.99 23.00
  Q 52.59 23.24 52.66 23.70
  A 0.81 0.79 -31.9 0 1 52.51 24.32
  Q 50.40 27.20 51.25 31.63
  Q 51.36 32.20 51.89 32.43
  Q 53.48 33.12 53.67 34.84
  Q 53.69 35.02 53.86 35.10
  Q 54.12 35.21 54.41 35.02
  A 0.54 0.48 -13.8 0 0 54.62 34.71
  Q 55.10 32.49 57.01 31.49
  A 0.46 0.46 0.0 0 1 57.67 31.97
  L 57.39 33.74
  Q 57.28 34.41 57.95 34.32
  Q 58.31 34.28 58.72 33.99"
/>
<path stroke="#e7c3a2" vector-effect="non-scaling-stroke" d="
  M 58.72 33.99
  Q 58.33 34.57 57.73 34.73
  Q 57.03 34.91 57.19 34.19
  Q 57.34 33.50 56.41 33.27
  A 0.87 0.87 0.0 0 0 55.33 33.99
  Q 54.85 37.20 54.89 39.80
  Q 54.89 40.27 54.59 40.62
  L 54.12 41.16
  A 0.57 0.55 -37.8 0 0 54.03 41.76
  L 54.20 42.12
  Q 54.46 42.67 54.92 42.28
  Q 56.89 40.61 58.03 41.29"
/>
<path stroke="#826447" vector-effect="non-scaling-stroke" d="
  M 58.03 41.29
  L 57.78 43.15"
/>
<path stroke="#bc9a7c" vector-effect="non-scaling-stroke" d="
  M 57.78 43.15
  Q 57.04 43.84 57.16 44.76
  Q 57.23 45.35 57.83 45.33
  Q 59.20 45.27 60.18 46.27
  Q 60.56 46.65 61.08 46.76
  Q 63.26 47.22 65.06 46.08"
/>
<path stroke="#826447" vector-effect="non-scaling-stroke" d="
  M 65.06 46.08
  C 66.21 45.42 67.63 44.56 67.91 43.20
  Q 68.13 42.09 68.86 41.35
  Q 69.42 40.78 68.89 40.18
  L 66.81 37.80"
/>
<path stroke="#e7c3a2" vector-effect="non-scaling-stroke" d="
  M 66.81 37.80
  L 68.71 38.06
  Q 69.48 38.17 69.12 37.48
  Q 68.47 36.24 67.61 35.48
  Q 67.11 35.04 66.44 35.12
  L 63.60 35.43
  A 0.95 0.94 -83.6 0 1 62.61 34.18
  Q 63.43 31.79 62.49 30.34
  A 1.16 1.16 0.0 0 0 60.41 30.65
  Q 59.82 32.70 58.85 33.79"
/>
<path stroke="#d6aa7d" vector-effect="non-scaling-stroke" d="
  M 58.85 33.79
  Q 58.97 31.33 61.00 29.50
  Q 62.21 28.41 61.77 26.55"
/>
<path stroke="#d6aa7d" vector-effect="non-scaling-stroke" d="
  M 63.66 24.22
  Q 63.64 24.78 63.97 25.30
  C 64.50 26.16 64.58 26.75 64.12 27.59
  A 1.96 1.95 58.0 0 0 63.88 28.64
  Q 64.02 31.06 63.58 33.29
  A 0.77 0.77 0.0 0 0 64.62 34.15
  Q 65.53 33.79 65.56 33.03"
/>
<path stroke="#b28355" vector-effect="non-scaling-stroke" d="
  M 65.56 33.03
  L 67.10 29.44"
/>
<path stroke="#d6aa7d" vector-effect="non-scaling-stroke" d="
  M 67.10 29.44
  Q 68.82 30.72 69.90 29.00
  Q 70.93 27.35 69.97 24.75
  Q 69.78 24.22 69.25 24.05
  Q 68.42 23.79 68.08 23.04
  Q 67.47 21.70 68.78 22.37
  Q 70.44 23.21 72.41 22.89
  A 0.76 0.76 0.0 0 1 73.19 24.02
  L 72.61 25.03
  Q 72.35 25.47 72.51 25.95
  Q 72.99 27.41 72.16 28.77
  Q 70.39 31.68 68.84 34.22
  A 1.77 1.75 -46.2 0 0 68.87 36.09
  Q 69.89 37.63 70.83 36.63
  Q 72.17 35.22 73.90 35.81
  Q 74.29 35.95 74.42 36.34
  Q 74.65 37.00 75.15 37.52
  Q 77.75 40.17 80.11 42.41
  Q 80.59 42.86 80.67 43.54
  Q 80.73 44.01 80.44 44.29
  Q 80.13 44.59 79.70 44.57
  L 78.30 44.48"
/>
<path stroke="#b28355" vector-effect="non-scaling-stroke" d="
  M 78.30 44.48
  L 75.89 40.73
  Q 75.49 40.10 74.76 40.11
  L 74.35 40.12
  A 0.61 0.61 0.0 0 0 73.90 41.13
  Q 75.40 42.86 76.17 45.30
  C 76.59 46.63 77.85 47.41 79.02 48.01
  C 79.90 48.47 80.41 49.50 79.83 50.39
  Q 79.43 51.02 78.38 51.20
  Q 77.09 51.43 75.78 51.37
  Q 75.28 51.36 74.90 51.68
  Q 73.90 52.50 73.49 54.00"
/>
<path stroke="#be8e60" vector-effect="non-scaling-stroke" d="
  M 73.49 54.00
  L 72.72 55.02"
/>
<path stroke="#d6aa7d" vector-effect="non-scaling-stroke" d="
  M 72.72 55.02
  Q 72.07 55.11 72.12 55.72
  Q 72.16 56.26 72.68 56.41
  Q 73.99 56.79 75.24 56.46
  Q 75.99 56.26 75.86 57.03
  Q 75.79 57.48 75.55 57.89
  Q 75.12 58.60 74.32 58.83
  L 72.68 59.30
  Q 71.95 59.51 72.31 60.19
  L 72.46 60.47
  Q 72.73 60.97 72.19 61.14
  Q 71.03 61.49 69.79 60.95"
/>
<path stroke="#e0b991" vector-effect="non-scaling-stroke" d="
  M 69.79 60.95
  Q 71.42 60.56 69.60 60.00
  Q 69.28 59.90 68.83 59.90
  Q 63.74 59.86 62.43 55.26
  Q 62.02 53.81 61.52 52.94
  Q 61.27 52.52 60.78 52.53
  L 60.25 52.54
  Q 59.76 52.55 59.33 52.32
  L 55.67 50.31
  A 0.75 0.71 -83.9 0 1 55.31 49.84
  L 55.23 49.54"
/>
<path stroke="#b28355" vector-effect="non-scaling-stroke" d="
  M 55.23 49.54
  L 56.91 50.35"
/>
<path stroke="#d6aa7d" vector-effect="non-scaling-stroke" d="
  M 56.91 50.35
  L 59.62 51.88
  Q 60.05 52.12 60.54 52.09
  C 63.29 51.89 66.60 50.69 69.20 51.33
  Q 69.76 51.47 70.23 51.14
  Q 71.79 50.02 72.73 48.37
  Q 73.21 47.52 74.12 47.15
  A 1.41 1.41 0.0 0 0 74.74 45.03
  L 71.87 40.98
  A 0.64 0.64 0.0 0 0 70.73 41.21
  L 69.72 45.45
  Q 69.61 45.91 69.18 46.12
  Q 65.66 47.75 61.88 48.38
  Q 60.39 48.62 59.19 47.87
  Q 58.78 47.61 58.59 47.15
  Q 57.98 45.59 56.25 46.31"
/>
<path stroke="#b28355" vector-effect="non-scaling-stroke" d="
  M 56.25 46.31
  Q 53.54 44.92 54.84 49.31"
/>
<path stroke="#e0b991" vector-effect="non-scaling-stroke" d="
  M 54.84 49.31
  Q 54.38 49.01 53.74 49.96"
/>
<path stroke="#bc9a7c" vector-effect="non-scaling-stroke" d="
  M 53.74 49.96
  Q 51.57 48.57 48.87 48.90
  Q 48.40 48.96 48.03 49.25
  L 47.54 49.63"
/>
<path stroke="#e0b991" vector-effect="non-scaling-stroke" d="
  M 47.54 49.63
  Q 47.36 49.34 47.35 48.96
  Q 47.34 48.53 46.92 48.52
  L 46.55 48.50"
/>
<path stroke="#b28355" vector-effect="non-scaling-stroke" d="
  M 46.55 48.50
  Q 47.66 47.39 47.55 45.75
  Q 47.52 45.22 46.99 45.25
  Q 45.37 45.35 43.93 46.81"
/>
<path stroke="#d6aa7d" vector-effect="non-scaling-stroke" d="
  M 43.93 46.81
  Q 38.19 49.91 31.72 46.34
  A 1.74 1.71 -86.7 0 1 30.94 45.45
  Q 30.38 44.05 30.17 42.28
  Q 30.11 41.70 29.77 41.28
  Q 29.33 40.75 28.62 40.84
  Q 28.16 40.90 27.94 41.32
  L 25.84 45.41
  Q 25.60 45.90 26.00 46.27
  Q 28.48 48.48 30.04 51.77
  C 31.12 54.05 34.86 52.86 36.82 52.81"
/>
<path stroke="#e0b991" vector-effect="non-scaling-stroke" d="
  M 36.82 52.81
  Q 35.16 53.78 38.57 53.99
  Q 38.80 54.00 38.86 54.22
  Q 38.92 54.43 38.83 54.62
  Q 38.67 54.93 38.32 54.95
  L 35.70 55.10
  Q 35.25 55.12 35.37 55.56
  L 35.47 55.88
  A 0.72 0.72 0.0 0 0 36.27 56.40
  Q 36.73 56.34 37.15 56.55
  Q 38.14 57.06 37.10 57.43
  L 28.82 60.37"
/>
<path stroke="#d6aa7d" vector-effect="non-scaling-stroke" d="
  M 28.82 60.37
  Q 27.16 59.39 25.11 58.04
  Q 22.13 56.08 25.68 56.38
  Q 26.73 56.47 27.77 56.08
  Q 28.36 55.87 28.25 55.25
  Q 28.14 54.66 27.66 54.47"
/>
<path stroke="#b28355" vector-effect="non-scaling-stroke" d="
  M 27.66 54.47
  Q 26.51 50.74 22.98 51.49
  A 1.88 1.86 62.5 0 1 21.20 50.92
  Q 19.77 49.35 21.28 48.29
  Q 22.27 47.58 23.24 46.93
  Q 23.84 46.52 24.08 45.83
  Q 24.99 43.27 26.84 41.11
  A 0.56 0.56 0.0 0 0 26.50 40.19
  L 26.07 40.13
  Q 25.37 40.02 25.02 40.64
  C 24.06 42.34 22.84 45.19 20.79 45.62
  A 1.00 0.99 87.1 0 1 19.59 44.53
  C 20.06 40.57 20.91 36.82 25.07 35.25
  Q 25.57 35.06 25.93 34.68
  Q 26.60 33.98 27.54 33.69
  Q 27.94 33.56 27.77 33.19
  L 27.64 32.90
  A 0.40 0.40 0.0 0 1 27.98 32.33
  L 28.39 32.31
  A 0.62 0.62 0.0 0 1 29.04 32.89
  L 29.07 33.37
  Q 29.09 33.76 29.46 33.91
  Q 30.14 34.18 30.34 33.11
  A 0.78 0.77 -58.5 0 0 30.19 32.48
  L 27.46 28.89
  Q 27.20 28.55 27.22 28.11
  Q 27.30 26.75 27.78 25.75
  Q 28.05 25.19 27.44 25.09
  Q 26.97 25.01 26.64 25.27"
/>
<path stroke="#e7c3a2" vector-effect="non-scaling-stroke" d="
  M 40.08 30.52
  Q 38.97 29.85 38.35 30.16
  Q 37.71 30.48 37.81 31.25
  Q 38.01 32.72 38.11 34.06
  A 1.29 1.29 0.0 0 1 36.68 35.43
  Q 33.11 35.02 32.14 37.13
  Q 31.04 39.48 33.19 38.00
  Q 33.66 37.67 34.77 37.60"
/>
<path stroke="#826447" vector-effect="non-scaling-stroke" d="
  M 34.77 37.60
  Q 31.08 39.89 32.12 41.69"
/>
<path stroke="#bc9a7c" vector-effect="non-scaling-stroke" d="
  M 32.12 41.69
  Q 33.80 47.28 39.53 46.68
  Q 40.07 46.62 40.51 46.28
  Q 41.73 45.34 43.19 45.15
  Q 43.77 45.08 43.64 44.51
  L 43.14 42.27"
/>
<path stroke="#826447" vector-effect="non-scaling-stroke" d="
  M 43.14 42.27
  Q 43.08 41.62 42.70 41.31"
/>
<path stroke="#e7c3a2" vector-effect="non-scaling-stroke" d="
  M 42.70 41.31
  Q 44.48 41.48 44.41 42.26
  A 0.58 0.57 -82.1 0 0 44.87 42.87
  Q 45.50 42.99 46.10 42.76
  Q 46.85 42.48 46.89 41.67
  Q 46.96 40.43 46.16 39.39
  A 1.35 1.34 25.7 0 1 45.88 38.60
  Q 45.80 35.93 44.52 33.43
  Q 44.28 32.97 44.10 33.45
  L 43.74 34.39
  Q 43.43 35.19 42.69 34.77
  Q 42.04 34.41 41.73 33.65"
/>
<path stroke="#b28355" vector-effect="non-scaling-stroke" d="
  M 48.52 25.41
  Q 47.97 24.66 48.03 23.81"
/>
<path stroke="#b69373" vector-effect="non-scaling-stroke" d="
  M 78.13 30.47
  Q 78.02 30.72 78.25 30.88"
/>
<path stroke="#ad7b4c" vector-effect="non-scaling-stroke" d="
  M 78.25 30.88
  L 77.28 31.62
  Q 76.96 31.86 76.86 32.25
  Q 76.75 32.67 76.33 32.70
  Q 75.71 32.74 75.34 32.24
  Q 74.70 31.36 74.55 30.39
  A 0.71 0.71 0.0 0 0 73.64 29.82
  Q 71.57 30.43 70.61 32.69
  Q 70.35 33.31 71.00 33.49
  Q 71.52 33.64 72.04 33.50
  C 73.14 33.22 74.30 33.64 74.73 34.75
  Q 74.90 35.20 75.37 35.29
  C 80.28 36.26 80.06 40.44 81.38 44.14
  Q 81.83 45.42 80.49 45.66
  Q 79.73 45.80 78.30 44.48"
/>
<path stroke="#ad7b4c" vector-effect="non-scaling-stroke" d="
  M 67.10 29.44
  Q 68.03 28.48 68.03 28.06
  Q 68.03 26.28 66.82 27.59
  Q 64.84 29.75 64.24 33.04
  Q 64.13 33.62 64.71 33.49
  Q 65.11 33.39 65.56 33.03"
/>
<path stroke="#e1bc99" vector-effect="non-scaling-stroke" d="
  M 58.85 33.79
  Q 58.79 33.89 58.72 33.99"
/>
<path stroke="#ad7b4c" vector-effect="non-scaling-stroke" d="
  M 27.66 54.47
  Q 27.64 54.81 27.76 55.02
  A 0.66 0.60 76.1 0 1 27.24 55.99
  L 24.23 55.79
  A 1.07 1.06 83.2 0 0 23.15 57.17
  C 23.68 58.83 24.96 59.97 25.48 61.61
  Q 26.22 63.96 26.31 66.50
  C 26.39 68.89 27.94 71.19 29.46 72.94
  Q 30.75 74.43 28.97 73.58
  Q 25.61 71.99 24.70 68.12"
/>
<path stroke="#955f2f" vector-effect="non-scaling-stroke" d="
  M 24.70 68.12
  Q 24.87 67.23 24.50 66.68
  Q 24.38 66.51 24.21 66.40
  Q 23.72 66.08 23.35 66.51
  A 0.27 0.26 45.7 0 1 22.95 66.50
  Q 22.50 65.97 22.62 65.20"
/>
<path stroke="#936c4b" vector-effect="non-scaling-stroke" d="
  M 79.26 34.75
  Q 78.72 33.17 78.94 31.25
  Q 79.00 30.76 78.25 30.88"
/>
<path stroke="#8d7663" vector-effect="non-scaling-stroke" d="
  M 66.81 37.80
  Q 60.37 36.24 58.03 41.29"
/>
<path stroke="#8d7663" vector-effect="non-scaling-stroke" d="
  M 42.70 41.31
  Q 40.76 36.55 34.77 37.60"
/>
<path stroke="#955f2f" vector-effect="non-scaling-stroke" d="
  M 80.05 54.29
  Q 79.36 54.51 79.10 55.15
  Q 78.92 55.61 78.48 55.83
  Q 77.69 56.25 76.93 55.89
  Q 76.50 55.69 76.04 55.69
  L 74.32 55.66
  Q 73.81 55.66 73.61 55.19
  Q 73.37 54.65 73.49 54.00"
/>
<path stroke="#624d3d" vector-effect="non-scaling-stroke" d="
  M 43.14 42.27
  Q 42.90 42.86 42.94 43.41
  Q 43.00 44.11 42.61 43.53
  Q 42.49 43.34 42.41 42.99"
/>
<path stroke="#8d7663" vector-effect="non-scaling-stroke" d="
  M 42.41 42.99
  Q 42.22 41.34 40.10 40.09
  A 0.53 0.53 0.0 0 0 39.31 40.49
  Q 39.16 41.75 38.35 42.84
  Q 37.46 44.04 37.63 42.55
  Q 37.91 39.98 36.63 39.54"
/>
<path stroke="#624d3d" vector-effect="non-scaling-stroke" d="
  M 36.63 39.54
  Q 35.08 38.98 32.12 41.69"
/>
<path stroke="#624d3d" vector-effect="non-scaling-stroke" d="
  M 65.06 46.08
  Q 64.54 46.01 64.55 45.28"
/>
<path stroke="#866c52" vector-effect="non-scaling-stroke" d="
  M 64.55 45.28
  Q 66.95 44.69 67.68 41.65
  Q 67.80 41.13 67.43 40.76
  Q 66.15 39.44 64.02 39.55
  Q 63.51 39.57 63.76 40.02
  Q 64.10 40.62 64.09 41.29
  Q 64.08 41.96 63.55 42.38
  L 63.18 42.66
  Q 62.44 43.23 62.50 42.30
  Q 62.58 40.99 61.73 40.12
  A 1.07 1.07 0.0 0 0 60.08 40.27
  L 58.22 43.05"
/>
<path stroke="#624d3d" vector-effect="non-scaling-stroke" d="
  M 58.22 43.05
  Q 58.39 43.47 57.78 43.15"
/>
<path stroke="#c7ac98" vector-effect="non-scaling-stroke" d="
  M 36.63 39.54
  Q 35.33 40.44 34.15 42.08
  A 1.54 1.53 -48.1 0 0 34.25 44.01
  C 37.11 47.17 40.47 46.70 42.41 42.99"
/>
<path stroke="#c0a287" vector-effect="non-scaling-stroke" d="
  M 64.55 45.28
  Q 60.48 46.80 58.22 43.05"
/>
<path stroke="#ad7b4c" vector-effect="non-scaling-stroke" d="
  M 56.91 50.35
  Q 57.88 50.54 58.75 50.84
  Q 59.33 51.03 59.63 50.78
  Q 60.04 50.42 59.67 50.02
  L 56.25 46.31"
/>
<path stroke="#ad7b4c" vector-effect="non-scaling-stroke" d="
  M 43.93 46.81
  Q 42.78 48.60 40.69 49.88
  Q 40.24 50.16 40.47 50.63
  Q 40.71 51.11 41.25 51.17
  Q 41.75 51.21 42.11 50.88
  Q 43.03 50.02 44.38 50.31"
/>
<path stroke="#dab187" vector-effect="non-scaling-stroke" d="
  M 44.38 50.31
  Q 42.23 52.38 41.25 52.50
  Q 39.03 52.76 36.82 52.81"
/>
<path stroke="#b78a60" vector-effect="non-scaling-stroke" d="
  M 46.55 48.50
  L 44.38 50.31"
/>
<path stroke="#b78a60" vector-effect="non-scaling-stroke" d="
  M 55.23 49.54
  Q 54.93 49.01 54.84 49.31"
/>
<path stroke="#c0a287" vector-effect="non-scaling-stroke" d="
  M 47.54 49.63
  Q 46.11 50.94 46.95 51.85
  A 0.78 0.77 69.7 0 0 47.46 52.09
  L 47.96 52.13
  A 0.40 0.39 -13.0 0 0 48.33 51.54
  Q 48.04 51.05 48.12 50.55
  A 0.64 0.63 9.1 0 1 48.85 50.03
  Q 50.24 50.25 51.60 49.92
  Q 52.10 49.79 52.55 50.05
  Q 52.80 50.19 52.88 50.41
  Q 53.07 50.91 52.63 51.21
  Q 51.42 52.03 49.67 52.16
  A 0.61 0.60 -25.7 0 0 49.30 53.20
  Q 49.69 53.56 49.68 54.20"
/>
<path stroke="#f1dbc4" vector-effect="non-scaling-stroke" d="
  M 49.68 54.20
  Q 48.17 53.78 47.33 53.10
  Q 46.42 52.36 45.32 52.75
  Q 41.96 53.96 40.86 56.98
  Q 39.43 60.91 42.91 61.72"
/>
<path stroke="#c0a287" vector-effect="non-scaling-stroke" d="
  M 42.91 61.72
  Q 41.24 62.11 39.52 61.25
  Q 39.01 61.00 39.14 61.55
  Q 39.26 62.01 40.34 62.47"
/>
<path stroke="#ebcbad" vector-effect="non-scaling-stroke" d="
  M 40.34 62.47
  Q 39.76 62.46 39.81 63.30
  Q 39.84 63.79 40.25 64.06
  C 40.96 64.52 41.18 65.33 41.94 65.65
  Q 42.57 65.92 43.17 65.65
  Q 43.62 65.45 44.09 65.59
  Q 44.63 65.75 44.94 66.15"
/>
<path stroke="#dab187" vector-effect="non-scaling-stroke" d="
  M 44.94 66.15
  Q 44.52 66.27 44.50 66.30
  A 0.55 0.54 33.5 0 0 44.67 67.09
  Q 47.43 68.74 50.33 68.87
  Q 53.12 68.98 55.57 67.03
  Q 55.99 66.69 55.86 66.17
  Q 55.73 65.66 55.28 65.82"
/>
<path stroke="#ebcbad" vector-effect="non-scaling-stroke" d="
  M 55.28 65.82
  Q 56.07 65.25 56.99 65.61
  Q 57.47 65.80 57.89 65.49
  L 60.29 63.67
  Q 60.83 63.27 60.24 62.96
  Q 59.51 62.57 58.83 63.09"
/>
<path stroke="#c0a287" vector-effect="non-scaling-stroke" d="
  M 58.83 63.09
  Q 64.50 60.57 60.31 61.56"
/>
<path stroke="#f1dbc4" vector-effect="non-scaling-stroke" d="
  M 60.31 61.56
  Q 62.85 56.81 57.66 53.79
  Q 57.33 53.59 57.14 53.27
  Q 56.98 53.01 56.79 52.78
  A 1.04 1.02 68.8 0 0 56.02 52.43
  L 52.32 52.48"
/>
<path stroke="#c0a287" vector-effect="non-scaling-stroke" d="
  M 52.32 52.48
  L 53.67 51.96
  A 0.75 0.74 -11.3 0 0 54.15 51.25
  Q 54.15 50.67 53.74 49.96"
/>
<path stroke="#dab187" vector-effect="non-scaling-stroke" d="
  M 69.79 60.95
  L 65.19 62.01
  Q 64.03 62.27 63.27 63.19
  Q 63.07 63.44 62.93 63.74
  Q 62.56 64.50 63.40 64.57
  L 66.71 64.83
  A 0.49 0.49 0.0 0 1 66.99 65.69
  L 65.40 67.05
  Q 65.15 67.26 65.09 67.58
  Q 64.90 68.63 63.96 69.25
  Q 63.19 69.22 63.31 70.02
  Q 61.53 72.09 58.83 72.55
  Q 58.35 72.64 58.09 73.06
  C 57.05 74.76 55.03 74.42 53.36 74.53
  Q 51.78 74.64 53.11 75.51
  Q 54.59 76.47 56.08 75.41
  Q 56.49 75.12 56.99 75.05
  C 58.31 74.88 59.06 74.43 60.51 74.53
  Q 62.02 74.63 63.42 74.10
  Q 65.19 73.43 64.45 75.17
  Q 63.69 76.96 62.69 78.87
  C 61.81 80.55 59.98 81.42 58.57 82.60
  A 0.43 0.42 -15.3 0 1 57.88 82.21
  Q 57.92 81.99 57.84 81.79
  Q 57.64 81.22 57.11 81.50
  Q 55.14 82.50 52.93 82.42
  C 50.54 82.34 45.29 82.74 43.30 81.43
  Q 41.16 80.02 41.33 77.31
  Q 41.35 76.88 41.67 76.60
  Q 42.81 75.55 44.79 75.87
  A 0.77 0.77 0.0 0 0 45.60 74.77
  Q 45.40 74.37 44.91 74.19
  C 43.99 73.84 43.22 72.91 43.09 71.93
  A 0.94 0.91 1.4 0 0 42.33 71.15
  Q 41.23 70.95 40.35 70.18
  Q 39.16 69.13 37.52 68.79
  Q 36.27 68.54 35.03 68.32
  Q 33.84 68.12 32.67 67.44
  Q 31.52 66.77 30.18 66.27
  Q 27.91 65.41 30.30 64.97
  Q 32.95 64.49 35.86 64.70
  Q 36.51 64.75 37.09 64.51
  A 0.74 0.74 0.0 0 0 37.02 63.12
  Q 35.07 62.55 33.10 63.03
  Q 31.82 63.34 32.23 62.09
  Q 32.28 61.92 32.36 61.75
  Q 32.53 61.33 32.08 61.32
  Q 30.67 61.27 28.82 60.37"
/>
<path stroke="#cdbcb0" vector-effect="non-scaling-stroke" d="
  M 52.32 52.48
  Q 50.95 53.84 50.82 55.34
  Q 50.77 55.85 51.08 56.25
  Q 55.40 61.86 60.31 61.56"
/>
<path stroke="#c7ac98" vector-effect="non-scaling-stroke" d="
  M 58.83 63.09
  Q 57.90 62.26 56.78 62.07"
/>
<path stroke="#cdbcb0" vector-effect="non-scaling-stroke" d="
  M 56.78 62.07
  L 52.02 58.39
  A 2.70 2.69 -45.1 0 0 48.70 58.40
  L 43.61 62.37"
/>
<path stroke="#c7ac98" vector-effect="non-scaling-stroke" d="
  M 43.61 62.37
  Q 41.86 62.95 40.34 62.47"
/>
<path stroke="#cdbcb0" vector-effect="non-scaling-stroke" d="
  M 42.91 61.72
  Q 46.36 59.71 49.06 57.03
  Q 50.30 55.80 49.68 54.20"
/>
<path stroke="#b98657" vector-effect="non-scaling-stroke" d="
  M 81.82 77.04
  L 81.79 81.27
  Q 81.79 82.23 80.92 81.80
  Q 80.52 81.61 80.07 81.56
  Q 79.45 81.49 79.03 81.94
  Q 77.19 83.87 76.63 86.08
  Q 75.54 90.39 71.75 94.86
  Q 71.48 95.18 71.07 95.20
  L 62.59 95.73"
/>
<path stroke="#c3956b" vector-effect="non-scaling-stroke" d="
  M 62.59 95.73
  Q 63.18 94.93 62.96 95.01"
/>
<path stroke="#b98657" vector-effect="non-scaling-stroke" d="
  M 62.96 95.01
  Q 64.65 94.14 65.02 92.58
  Q 65.18 91.94 65.71 91.55
  Q 67.04 90.59 68.25 89.59
  C 69.37 88.68 69.70 87.57 70.93 86.72
  A 1.41 1.40 80.1 0 0 71.50 85.90
  Q 72.12 83.50 74.58 82.42
  Q 74.98 82.25 75.23 81.88
  Q 76.54 80.00 77.59 78.07
  Q 78.00 77.33 77.87 76.48
  Q 77.79 75.96 78.02 75.49
  Q 79.87 71.68 77.26 67.58
  A 0.52 0.52 0.0 0 0 76.31 67.76
  Q 75.98 69.43 74.96 70.65
  Q 73.24 72.70 70.59 74.70
  A 0.04 0.04 0.0 0 1 70.53 74.66
  Q 70.59 74.50 70.56 74.35
  Q 70.49 73.98 70.71 73.66
  C 72.02 71.82 73.98 69.47 74.09 67.17
  Q 74.16 65.71 74.50 64.25
  Q 74.62 63.72 74.95 63.30
  Q 75.36 62.79 75.41 62.16
  Q 75.43 61.73 75.13 61.43
  Q 74.58 60.89 74.97 60.22
  Q 75.70 58.97 76.67 57.63
  Q 76.98 57.21 76.92 56.74
  Q 76.85 56.22 76.33 55.97
  Q 75.87 55.75 75.39 55.93
  Q 73.31 56.69 72.72 55.02"
/>
<path stroke="#dab187" vector-effect="non-scaling-stroke" d="
  M 62.96 95.01
  C 63.64 92.90 65.17 91.58 65.83 89.60
  Q 66.21 88.46 66.78 87.46
  C 67.68 85.90 68.05 84.14 68.32 82.38
  Q 68.39 81.86 68.73 81.45
  Q 69.07 81.04 69.12 80.52
  A 0.64 0.64 0.0 0 0 68.02 80.02
  Q 63.51 84.87 56.99 84.35
  Q 56.53 84.32 56.15 84.59
  Q 54.02 86.12 51.57 85.03
  A 2.14 2.12 51.2 0 0 50.33 84.89
  Q 46.87 85.50 43.62 84.92
  Q 40.75 84.41 37.82 83.56
  Q 35.65 82.92 33.92 81.13
  Q 33.08 80.26 32.13 80.90
  A 0.62 0.61 -25.8 0 0 31.88 81.60
  C 32.57 83.80 32.79 85.89 33.99 87.96
  Q 35.59 90.71 37.28 93.47
  Q 37.39 93.64 37.60 93.62
  Q 37.76 93.61 37.91 93.69
  Q 38.16 93.82 38.13 94.10
  Q 38.00 95.22 38.25 96.25
  Q 38.40 96.86 37.78 96.79
  L 35.23 96.53
  Q 34.74 96.48 34.27 96.62
  Q 31.95 97.32 29.51 96.34
  A 0.94 0.93 -64.8 0 0 28.34 96.77
  Q 27.82 97.73 29.27 100.00"
/>
<path stroke="#e7ccb0" vector-effect="non-scaling-stroke" d="
  M 24.14 100.00
  L 20.28 99.66"
/>
<path stroke="#b4824b" vector-effect="non-scaling-stroke" d="
  M 20.28 99.66
  Q 16.52 97.75 16.81 92.85
  Q 16.91 91.29 17.80 92.57
  Q 19.05 94.37 21.04 93.77
  Q 21.50 93.63 21.93 93.82
  Q 23.03 94.31 24.31 94.22
  Q 24.92 94.18 25.19 94.73
  L 26.13 96.63
  Q 26.25 96.88 26.52 96.89
  L 26.83 96.90
  Q 27.34 96.92 27.24 96.41
  Q 26.55 92.98 24.21 90.77
  Q 23.48 90.08 22.71 88.98
  C 21.01 86.55 18.14 85.05 19.82 81.72"
/>
<path stroke="#b98657" vector-effect="non-scaling-stroke" d="
  M 19.82 81.72
  C 22.84 81.43 23.52 85.12 24.38 87.45
  C 25.32 89.99 27.23 92.45 28.66 94.81
  Q 28.94 95.27 29.48 95.32
  L 35.97 95.87
  Q 38.34 96.07 36.63 94.42
  Q 34.95 92.80 33.49 90.80
  C 32.72 89.74 31.45 89.47 30.67 88.17
  Q 29.55 86.25 28.18 84.60
  Q 28.09 84.49 28.11 84.34
  Q 28.12 84.21 28.15 84.08
  Q 28.18 83.94 28.07 83.86
  Q 26.42 82.49 24.86 80.91
  Q 22.34 78.34 22.13 74.31
  Q 22.11 73.87 21.79 73.55
  L 21.53 73.29
  Q 21.15 72.90 21.24 72.37
  Q 21.70 69.62 22.88 67.27
  A 0.73 0.73 0.0 0 1 23.77 66.90
  Q 24.36 67.11 24.70 68.12"
/>
<path stroke="#f8e5d6" vector-effect="non-scaling-stroke" d="
  M 56.78 62.07
  Q 57.16 62.92 56.51 63.17
  Q 49.72 65.78 43.61 62.37"
/>
<path stroke="#e1bc99" vector-effect="non-scaling-stroke" d="
  M 55.28 65.82
  Q 50.33 67.59 44.94 66.15"
/>
<path stroke="#9c662e" vector-effect="non-scaling-stroke" d="
  M 19.82 81.72
  Q 20.65 78.80 20.42 75.51
  Q 20.39 75.01 20.62 74.57
  Q 21.62 72.63 19.88 72.99"
/>
<path stroke="#caac88" vector-effect="non-scaling-stroke" d="
  M 20.28 99.66
  L 18.98 100.00"
/>
<path stroke="#b4824b" vector-effect="non-scaling-stroke" d="
  M 82.91 84.20
  Q 81.52 84.26 81.43 85.90
  Q 81.39 86.63 80.73 86.94
  L 78.95 87.77
  A 1.80 1.79 -4.4 0 0 78.01 88.86
  Q 77.65 90.06 76.51 90.64
  Q 75.64 91.08 75.20 91.94
  L 73.19 95.94
  A 0.86 0.86 0.0 0 0 74.53 96.97
  Q 74.65 96.86 74.76 96.71
  Q 75.07 96.26 75.19 95.78
  Q 75.73 93.65 77.96 93.51
  C 79.79 93.39 81.25 94.65 82.74 92.79
  Q 83.66 91.65 83.73 93.11
  C 83.81 94.96 82.44 96.37 82.60 97.90
  Q 82.67 98.51 82.06 98.61
  Q 80.42 98.90 80.33 99.66"
/>
<path stroke="#e7ccb0" vector-effect="non-scaling-stroke" d="
  M 80.33 99.66
  L 76.87 100.00"
/>
<path stroke="#dab187" vector-effect="non-scaling-stroke" d="
  M 71.56 100.00
  Q 72.76 97.87 72.16 96.79
  Q 71.93 96.37 71.45 96.44
  C 69.38 96.73 67.46 97.10 65.41 97.08
  Q 63.67 97.06 62.00 97.66
  Q 61.54 97.83 61.19 97.53
  Q 60.73 97.14 61.16 96.72
  Q 62.05 95.88 62.59 95.73"
/>
<path stroke="#f1dbc4" vector-effect="non-scaling-stroke" d="
  M 55.64 100.00
  L 45.62 100.00"
/>
<path stroke="#caac88" vector-effect="non-scaling-stroke" d="
  M 81.40 100.00
  Q 81.24 99.80 80.33 99.66"
/>
</g>
<path fill="#ffffff" d="
  M 0.00 0.00
  L 100.00 0.00
  L 100.00 100.00
  L 85.11 100.00
  Q 84.93 91.64 82.91 84.20
  L 81.82 77.04
  Q 81.54 75.24 80.86 73.57
  C 79.74 70.81 78.88 68.12 78.18 65.24
  C 77.00 60.37 78.27 58.10 80.05 54.29
  Q 82.33 49.40 82.14 43.75
  Q 82.07 41.61 79.26 34.75
  L 79.38 32.46
  Q 81.70 28.60 80.92 23.60
  C 83.29 18.30 84.95 11.96 82.66 7.01
  C 79.78 0.79 65.26 13.19 62.89 15.65
  Q 62.17 16.39 62.01 17.03
  Q 60.35 17.43 58.22 16.86
  Q 55.64 16.61 53.07 16.29
  Q 50.39 15.97 47.93 16.24
  Q 45.11 16.56 42.29 16.93
  L 39.85 17.20
  Q 39.34 17.26 38.97 16.91
  L 33.60 11.95
  Q 28.39 7.42 22.50 5.49
  Q 20.67 4.89 18.67 5.94
  Q 18.19 6.19 17.99 6.70
  C 15.88 12.11 17.22 17.08 19.16 22.27
  Q 19.83 24.07 19.90 26.35
  Q 20.02 30.27 21.71 34.23
  Q 17.68 42.33 18.81 48.87
  Q 19.16 50.90 21.81 57.62
  Q 22.05 58.25 22.73 59.33
  C 23.76 60.98 22.86 63.39 22.62 65.20
  L 19.88 72.99
  Q 18.50 77.14 18.22 81.78
  C 18.10 83.79 17.48 85.10 16.76 86.88
  Q 16.12 88.47 16.05 90.88
  Q 15.92 95.43 15.27 100.00
  L 0.00 100.00
  L 0.00 0.00
  Z"
/>
<path fill="#9c8372" d="
  M 33.60 11.95
  Q 32.86 12.07 33.31 12.77
  Q 32.48 12.08 32.02 12.09
  Q 31.54 12.10 31.86 12.46
  L 35.99 16.95
  L 35.44 16.94
  Q 34.90 16.92 35.21 17.36
  Q 35.46 17.71 35.41 18.03
  Q 32.09 15.16 29.61 11.59
  Q 28.04 9.35 26.47 8.32
  C 24.15 6.82 18.90 4.34 18.15 8.49
  Q 16.79 15.98 20.84 23.35
  C 21.67 24.85 21.96 26.45 21.90 28.17
  A 1.55 1.55 0.0 0 0 24.52 29.34
  L 25.97 27.94
  Q 26.71 30.90 25.12 32.72
  Q 24.75 33.13 24.28 32.84
  Q 23.50 32.34 22.99 31.50
  Q 22.70 31.00 22.24 31.34
  Q 21.79 31.68 21.79 32.26
  Q 21.80 33.54 21.71 34.23
  Q 20.02 30.27 19.90 26.35
  Q 19.83 24.07 19.16 22.27
  C 17.22 17.08 15.88 12.11 17.99 6.70
  Q 18.19 6.19 18.67 5.94
  Q 20.67 4.89 22.50 5.49
  Q 28.39 7.42 33.60 11.95
  Z"
/>
<path fill="#9c8372" d="
  M 80.92 23.60
  L 80.69 23.78
  A 0.27 0.27 0.0 0 1 80.38 23.80
  Q 79.89 23.51 80.12 23.04
  C 82.33 18.56 83.98 12.39 81.85 7.50
  Q 81.09 5.76 79.24 6.20
  Q 73.42 7.56 70.09 12.53
  Q 69.75 13.04 68.98 13.31
  Q 68.90 13.05 68.69 12.94
  Q 69.07 12.39 69.52 11.94
  Q 69.68 11.78 69.53 11.61
  L 69.53 11.61
  Q 69.40 11.46 69.25 11.57
  Q 66.07 13.85 63.50 16.45
  Q 63.26 16.70 63.19 17.04
  Q 63.11 17.39 63.11 17.74
  Q 62.70 16.86 62.01 17.03
  Q 62.17 16.39 62.89 15.65
  C 65.26 13.19 79.78 0.79 82.66 7.01
  C 84.95 11.96 83.29 18.30 80.92 23.60
  Z"
/>
<path fill="#ecc2a4" d="
  M 80.92 23.60
  Q 81.70 28.60 79.38 32.46
  L 78.78 28.58
  Q 78.64 27.68 78.47 28.58
  L 78.13 30.47
  Q 77.85 31.19 77.22 31.13
  Q 76.76 31.08 76.51 30.69
  C 75.70 29.39 74.70 28.30 74.60 26.68
  Q 74.52 25.55 74.01 24.59
  A 1.09 1.08 -44.7 0 1 74.02 23.53
  Q 74.35 22.95 73.92 22.46
  Q 73.59 22.09 73.10 22.15
  Q 70.78 22.42 68.80 21.81
  L 65.49 19.05
  A 0.76 0.75 -51.7 0 1 65.37 18.01
  L 68.98 13.31
  Q 69.75 13.04 70.09 12.53
  Q 73.42 7.56 79.24 6.20
  Q 81.09 5.76 81.85 7.50
  C 83.98 12.39 82.33 18.56 80.12 23.04
  Q 79.89 23.51 80.38 23.80
  A 0.27 0.27 0.0 0 0 80.69 23.78
  L 80.92 23.60
  Z"
/>
<path fill="#ecc2a4" d="
  M 35.41 18.03
  Q 35.44 18.20 35.79 18.34
  Q 35.71 19.09 34.94 19.12
  Q 34.42 19.15 34.04 19.50
  C 32.94 20.53 31.86 21.86 30.29 22.12
  Q 29.17 22.30 28.03 22.35
  Q 26.15 22.44 26.41 23.35
  L 26.64 25.27
  L 25.97 27.94
  L 24.52 29.34
  A 1.55 1.55 0.0 0 1 21.90 28.17
  C 21.96 26.45 21.67 24.85 20.84 23.35
  Q 16.79 15.98 18.15 8.49
  C 18.90 4.34 24.15 6.82 26.47 8.32
  Q 28.04 9.35 29.61 11.59
  Q 32.09 15.16 35.41 18.03
  Z"
/>
<path fill="#e4c09b" d="
  M 68.69 12.94
  Q 66.23 15.32 63.94 17.90
  Q 63.71 18.15 63.52 18.12
  Q 63.27 18.09 63.11 17.74
  Q 63.11 17.39 63.19 17.04
  Q 63.26 16.70 63.50 16.45
  Q 66.07 13.85 69.25 11.57
  Q 69.40 11.46 69.53 11.61
  L 69.53 11.61
  Q 69.68 11.78 69.52 11.94
  Q 69.07 12.39 68.69 12.94
  Z"
/>
<path fill="#e4c09b" d="
  M 33.31 12.77
  Q 35.25 14.61 37.33 16.41
  Q 37.78 16.80 37.79 17.54
  Q 37.79 18.10 37.24 17.99
  Q 36.46 17.82 35.99 16.95
  L 31.86 12.46
  Q 31.54 12.10 32.02 12.09
  Q 32.48 12.08 33.31 12.77
  Z"
/>
<path fill="#895424" d="
  M 33.60 11.95
  L 38.97 16.91
  Q 39.34 17.26 39.85 17.20
  L 42.29 16.93
  L 43.62 16.92
  Q 44.19 16.91 44.13 17.47
  C 43.78 20.70 46.39 22.56 45.13 25.68
  A 0.86 0.86 0.0 0 0 45.51 26.75
  Q 47.33 27.75 47.59 29.98
  Q 47.68 30.72 46.97 30.50
  Q 46.20 30.26 45.86 29.57
  Q 44.96 27.74 43.52 26.44
  C 42.76 25.77 42.54 24.90 42.64 23.91
  A 1.93 1.92 14.6 0 0 41.50 21.97
  Q 40.40 21.49 39.73 22.02
  Q 39.28 22.38 39.54 22.89
  Q 40.32 24.44 40.10 26.17
  Q 40.03 26.74 39.52 26.48
  Q 38.74 26.09 38.56 25.12
  A 1.14 1.13 60.9 0 0 36.61 24.56
  Q 35.64 25.64 34.60 23.59
  A 1.95 1.95 0.0 0 1 34.53 21.96
  Q 34.90 21.06 35.76 20.84
  Q 36.49 20.65 36.17 19.97
  Q 35.79 19.18 35.79 18.34
  Q 35.44 18.20 35.41 18.03
  Q 35.46 17.71 35.21 17.36
  Q 34.90 16.92 35.44 16.94
  L 35.99 16.95
  Q 36.46 17.82 37.24 17.99
  Q 37.79 18.10 37.79 17.54
  Q 37.78 16.80 37.33 16.41
  Q 35.25 14.61 33.31 12.77
  Q 32.86 12.07 33.60 11.95
  Z"
/>
<path fill="#895424" d="
  M 68.69 12.94
  Q 68.90 13.05 68.98 13.31
  L 65.37 18.01
  A 0.76 0.75 -51.7 0 0 65.49 19.05
  L 68.80 21.81
  L 66.71 21.36
  Q 66.16 21.24 66.25 21.80
  Q 66.46 23.20 65.70 24.73
  Q 65.49 25.16 65.02 25.06
  Q 64.40 24.93 63.66 24.22
  Q 62.32 23.86 61.77 26.55
  L 61.47 27.02
  Q 60.95 27.84 60.71 26.89
  Q 60.18 24.77 61.06 22.78
  A 0.80 0.79 8.9 0 0 60.25 21.67
  Q 59.19 21.77 58.57 22.54
  C 57.63 23.69 58.59 24.98 57.50 26.27
  Q 55.89 28.15 54.42 30.01
  Q 52.89 31.92 52.85 29.48
  Q 52.84 28.92 53.82 27.79
  L 55.27 26.68
  A 0.67 0.67 0.0 0 0 55.48 25.88
  C 54.23 23.05 56.23 21.04 56.42 18.31
  Q 56.32 17.83 56.42 17.48
  Q 56.53 17.11 56.98 16.97
  Q 57.52 16.80 58.22 16.86
  Q 60.35 17.43 62.01 17.03
  Q 62.70 16.86 63.11 17.74
  Q 63.27 18.09 63.52 18.12
  Q 63.71 18.15 63.94 17.90
  Q 66.23 15.32 68.69 12.94
  Z"
/>
<path fill="#d0a273" d="
  M 58.22 16.86
  Q 57.52 16.80 56.98 16.97
  Q 56.53 17.11 56.42 17.48
  Q 56.32 17.83 56.42 18.31
  L 56.07 17.73
  Q 55.76 17.23 55.20 17.40
  Q 53.95 17.78 53.74 19.26
  Q 53.63 20.07 52.91 19.69
  Q 52.66 19.55 52.60 19.27
  Q 52.39 18.26 52.12 17.31
  A 0.95 0.95 0.0 0 0 51.25 16.63
  Q 49.99 16.57 48.79 17.08
  Q 48.12 17.36 48.11 18.09
  L 48.03 23.81
  Q 47.68 23.69 47.66 23.44
  A 0.28 0.28 0.0 0 0 47.12 23.38
  Q 46.49 25.54 48.07 26.54
  Q 48.91 27.07 48.68 26.10
  L 48.52 25.41
  C 49.03 25.79 49.53 26.39 49.59 27.04
  Q 49.74 28.76 49.88 30.30
  A 1.23 1.22 60.8 0 1 49.65 31.13
  Q 47.85 33.58 44.31 31.40
  Q 42.71 30.42 42.97 32.27
  Q 43.26 34.38 41.73 33.65
  L 40.08 30.52
  L 37.97 25.79
  Q 37.59 24.93 36.91 25.58
  L 36.30 26.17
  Q 35.95 26.51 36.22 26.91
  L 36.63 27.54
  Q 36.91 27.96 36.96 28.47
  Q 37.15 30.40 37.23 32.59
  Q 37.37 36.66 34.58 33.69
  Q 32.52 31.49 30.66 27.98
  C 29.69 26.17 29.80 24.14 32.32 23.97
  A 0.88 0.88 0.0 0 0 33.15 23.06
  Q 33.11 21.99 32.49 22.14
  Q 29.56 22.85 26.41 23.35
  Q 26.15 22.44 28.03 22.35
  Q 29.17 22.30 30.29 22.12
  C 31.86 21.86 32.94 20.53 34.04 19.50
  Q 34.42 19.15 34.94 19.12
  Q 35.71 19.09 35.79 18.34
  Q 35.79 19.18 36.17 19.97
  Q 36.49 20.65 35.76 20.84
  Q 34.90 21.06 34.53 21.96
  A 1.95 1.95 0.0 0 0 34.60 23.59
  Q 35.64 25.64 36.61 24.56
  A 1.14 1.13 60.9 0 1 38.56 25.12
  Q 38.74 26.09 39.52 26.48
  Q 40.03 26.74 40.10 26.17
  Q 40.32 24.44 39.54 22.89
  Q 39.28 22.38 39.73 22.02
  Q 40.40 21.49 41.50 21.97
  A 1.93 1.92 14.6 0 1 42.64 23.91
  C 42.54 24.90 42.76 25.77 43.52 26.44
  Q 44.96 27.74 45.86 29.57
  Q 46.20 30.26 46.97 30.50
  Q 47.68 30.72 47.59 29.98
  Q 47.33 27.75 45.51 26.75
  A 0.86 0.86 0.0 0 1 45.13 25.68
  C 46.39 22.56 43.78 20.70 44.13 17.47
  Q 44.19 16.91 43.62 16.92
  L 42.29 16.93
  Q 45.11 16.56 47.93 16.24
  Q 50.39 15.97 53.07 16.29
  Q 55.64 16.61 58.22 16.86
  Z
  M 36.3953 33.8823
  A 3.76 0.82 65.9 0 0 35.6085 30.1152
  A 3.76 0.82 65.9 0 0 33.3247 27.0177
  A 3.76 0.82 65.9 0 0 34.1115 30.7848
  A 3.76 0.82 65.9 0 0 36.3953 33.8823
  Z"
/>
<path fill="#dbb186" d="
  M 56.42 18.31
  C 56.23 21.04 54.23 23.05 55.48 25.88
  A 0.67 0.67 0.0 0 1 55.27 26.68
  L 53.82 27.79
  Q 53.45 27.61 53.03 27.60
  Q 52.52 27.59 52.61 27.08
  Q 52.67 26.73 52.95 26.49
  Q 54.53 25.12 53.98 23.38
  Q 53.73 22.56 52.99 23.00
  Q 52.59 23.24 52.66 23.70
  A 0.81 0.79 -31.9 0 1 52.51 24.32
  Q 50.40 27.20 51.25 31.63
  Q 51.36 32.20 51.89 32.43
  Q 53.48 33.12 53.67 34.84
  Q 53.69 35.02 53.86 35.10
  Q 54.12 35.21 54.41 35.02
  A 0.54 0.48 -13.8 0 0 54.62 34.71
  Q 55.10 32.49 57.01 31.49
  A 0.46 0.46 0.0 0 1 57.67 31.97
  L 57.39 33.74
  Q 57.28 34.41 57.95 34.32
  Q 58.31 34.28 58.72 33.99
  Q 58.33 34.57 57.73 34.73
  Q 57.03 34.91 57.19 34.19
  Q 57.34 33.50 56.41 33.27
  A 0.87 0.87 0.0 0 0 55.33 33.99
  Q 54.85 37.20 54.89 39.80
  Q 54.89 40.27 54.59 40.62
  L 54.12 41.16
  A 0.57 0.55 -37.8 0 0 54.03 41.76
  L 54.20 42.12
  Q 54.46 42.67 54.92 42.28
  Q 56.89 40.61 58.03 41.29
  L 57.78 43.15
  Q 57.04 43.84 57.16 44.76
  Q 57.23 45.35 57.83 45.33
  Q 59.20 45.27 60.18 46.27
  Q 60.56 46.65 61.08 46.76
  Q 63.26 47.22 65.06 46.08
  C 66.21 45.42 67.63 44.56 67.91 43.20
  Q 68.13 42.09 68.86 41.35
  Q 69.42 40.78 68.89 40.18
  L 66.81 37.80
  L 68.71 38.06
  Q 69.48 38.17 69.12 37.48
  Q 68.47 36.24 67.61 35.48
  Q 67.11 35.04 66.44 35.12
  L 63.60 35.43
  A 0.95 0.94 -83.6 0 1 62.61 34.18
  Q 63.43 31.79 62.49 30.34
  A 1.16 1.16 0.0 0 0 60.41 30.65
  Q 59.82 32.70 58.85 33.79
  Q 58.97 31.33 61.00 29.50
  Q 62.21 28.41 61.77 26.55
  Q 62.32 23.86 63.66 24.22
  Q 63.64 24.78 63.97 25.30
  C 64.50 26.16 64.58 26.75 64.12 27.59
  A 1.96 1.95 58.0 0 0 63.88 28.64
  Q 64.02 31.06 63.58 33.29
  A 0.77 0.77 0.0 0 0 64.62 34.15
  Q 65.53 33.79 65.56 33.03
  L 67.10 29.44
  Q 68.82 30.72 69.90 29.00
  Q 70.93 27.35 69.97 24.75
  Q 69.78 24.22 69.25 24.05
  Q 68.42 23.79 68.08 23.04
  Q 67.47 21.70 68.78 22.37
  Q 70.44 23.21 72.41 22.89
  A 0.76 0.76 0.0 0 1 73.19 24.02
  L 72.61 25.03
  Q 72.35 25.47 72.51 25.95
  Q 72.99 27.41 72.16 28.77
  Q 70.39 31.68 68.84 34.22
  A 1.77 1.75 -46.2 0 0 68.87 36.09
  Q 69.89 37.63 70.83 36.63
  Q 72.17 35.22 73.90 35.81
  Q 74.29 35.95 74.42 36.34
  Q 74.65 37.00 75.15 37.52
  Q 77.75 40.17 80.11 42.41
  Q 80.59 42.86 80.67 43.54
  Q 80.73 44.01 80.44 44.29
  Q 80.13 44.59 79.70 44.57
  L 78.30 44.48
  L 75.89 40.73
  Q 75.49 40.10 74.76 40.11
  L 74.35 40.12
  A 0.61 0.61 0.0 0 0 73.90 41.13
  Q 75.40 42.86 76.17 45.30
  C 76.59 46.63 77.85 47.41 79.02 48.01
  C 79.90 48.47 80.41 49.50 79.83 50.39
  Q 79.43 51.02 78.38 51.20
  Q 77.09 51.43 75.78 51.37
  Q 75.28 51.36 74.90 51.68
  Q 73.90 52.50 73.49 54.00
  L 72.72 55.02
  Q 72.07 55.11 72.12 55.72
  Q 72.16 56.26 72.68 56.41
  Q 73.99 56.79 75.24 56.46
  Q 75.99 56.26 75.86 57.03
  Q 75.79 57.48 75.55 57.89
  Q 75.12 58.60 74.32 58.83
  L 72.68 59.30
  Q 71.95 59.51 72.31 60.19
  L 72.46 60.47
  Q 72.73 60.97 72.19 61.14
  Q 71.03 61.49 69.79 60.95
  Q 71.42 60.56 69.60 60.00
  Q 69.28 59.90 68.83 59.90
  Q 63.74 59.86 62.43 55.26
  Q 62.02 53.81 61.52 52.94
  Q 61.27 52.52 60.78 52.53
  L 60.25 52.54
  Q 59.76 52.55 59.33 52.32
  L 55.67 50.31
  A 0.75 0.71 -83.9 0 1 55.31 49.84
  L 55.23 49.54
  L 56.91 50.35
  L 59.62 51.88
  Q 60.05 52.12 60.54 52.09
  C 63.29 51.89 66.60 50.69 69.20 51.33
  Q 69.76 51.47 70.23 51.14
  Q 71.79 50.02 72.73 48.37
  Q 73.21 47.52 74.12 47.15
  A 1.41 1.41 0.0 0 0 74.74 45.03
  L 71.87 40.98
  A 0.64 0.64 0.0 0 0 70.73 41.21
  L 69.72 45.45
  Q 69.61 45.91 69.18 46.12
  Q 65.66 47.75 61.88 48.38
  Q 60.39 48.62 59.19 47.87
  Q 58.78 47.61 58.59 47.15
  Q 57.98 45.59 56.25 46.31
  Q 53.54 44.92 54.84 49.31
  Q 54.38 49.01 53.74 49.96
  Q 51.57 48.57 48.87 48.90
  Q 48.40 48.96 48.03 49.25
  L 47.54 49.63
  Q 47.36 49.34 47.35 48.96
  Q 47.34 48.53 46.92 48.52
  L 46.55 48.50
  Q 47.66 47.39 47.55 45.75
  Q 47.52 45.22 46.99 45.25
  Q 45.37 45.35 43.93 46.81
  Q 38.19 49.91 31.72 46.34
  A 1.74 1.71 -86.7 0 1 30.94 45.45
  Q 30.38 44.05 30.17 42.28
  Q 30.11 41.70 29.77 41.28
  Q 29.33 40.75 28.62 40.84
  Q 28.16 40.90 27.94 41.32
  L 25.84 45.41
  Q 25.60 45.90 26.00 46.27
  Q 28.48 48.48 30.04 51.77
  C 31.12 54.05 34.86 52.86 36.82 52.81
  Q 35.16 53.78 38.57 53.99
  Q 38.80 54.00 38.86 54.22
  Q 38.92 54.43 38.83 54.62
  Q 38.67 54.93 38.32 54.95
  L 35.70 55.10
  Q 35.25 55.12 35.37 55.56
  L 35.47 55.88
  A 0.72 0.72 0.0 0 0 36.27 56.40
  Q 36.73 56.34 37.15 56.55
  Q 38.14 57.06 37.10 57.43
  L 28.82 60.37
  Q 27.16 59.39 25.11 58.04
  Q 22.13 56.08 25.68 56.38
  Q 26.73 56.47 27.77 56.08
  Q 28.36 55.87 28.25 55.25
  Q 28.14 54.66 27.66 54.47
  Q 26.51 50.74 22.98 51.49
  A 1.88 1.86 62.5 0 1 21.20 50.92
  Q 19.77 49.35 21.28 48.29
  Q 22.27 47.58 23.24 46.93
  Q 23.84 46.52 24.08 45.83
  Q 24.99 43.27 26.84 41.11
  A 0.56 0.56 0.0 0 0 26.50 40.19
  L 26.07 40.13
  Q 25.37 40.02 25.02 40.64
  C 24.06 42.34 22.84 45.19 20.79 45.62
  A 1.00 0.99 87.1 0 1 19.59 44.53
  C 20.06 40.57 20.91 36.82 25.07 35.25
  Q 25.57 35.06 25.93 34.68
  Q 26.60 33.98 27.54 33.69
  Q 27.94 33.56 27.77 33.19
  L 27.64 32.90
  A 0.40 0.40 0.0 0 1 27.98 32.33
  L 28.39 32.31
  A 0.62 0.62 0.0 0 1 29.04 32.89
  L 29.07 33.37
  Q 29.09 33.76 29.46 33.91
  Q 30.14 34.18 30.34 33.11
  A 0.78 0.77 -58.5 0 0 30.19 32.48
  L 27.46 28.89
  Q 27.20 28.55 27.22 28.11
  Q 27.30 26.75 27.78 25.75
  Q 28.05 25.19 27.44 25.09
  Q 26.97 25.01 26.64 25.27
  L 26.41 23.35
  Q 29.56 22.85 32.49 22.14
  Q 33.11 21.99 33.15 23.06
  A 0.88 0.88 0.0 0 1 32.32 23.97
  C 29.80 24.14 29.69 26.17 30.66 27.98
  Q 32.52 31.49 34.58 33.69
  Q 37.37 36.66 37.23 32.59
  Q 37.15 30.40 36.96 28.47
  Q 36.91 27.96 36.63 27.54
  L 36.22 26.91
  Q 35.95 26.51 36.30 26.17
  L 36.91 25.58
  Q 37.59 24.93 37.97 25.79
  L 40.08 30.52
  Q 38.97 29.85 38.35 30.16
  Q 37.71 30.48 37.81 31.25
  Q 38.01 32.72 38.11 34.06
  A 1.29 1.29 0.0 0 1 36.68 35.43
  Q 33.11 35.02 32.14 37.13
  Q 31.04 39.48 33.19 38.00
  Q 33.66 37.67 34.77 37.60
  Q 31.08 39.89 32.12 41.69
  Q 33.80 47.28 39.53 46.68
  Q 40.07 46.62 40.51 46.28
  Q 41.73 45.34 43.19 45.15
  Q 43.77 45.08 43.64 44.51
  L 43.14 42.27
  Q 43.08 41.62 42.70 41.31
  Q 44.48 41.48 44.41 42.26
  A 0.58 0.57 -82.1 0 0 44.87 42.87
  Q 45.50 42.99 46.10 42.76
  Q 46.85 42.48 46.89 41.67
  Q 46.96 40.43 46.16 39.39
  A 1.35 1.34 25.7 0 1 45.88 38.60
  Q 45.80 35.93 44.52 33.43
  Q 44.28 32.97 44.10 33.45
  L 43.74 34.39
  Q 43.43 35.19 42.69 34.77
  Q 42.04 34.41 41.73 33.65
  Q 43.26 34.38 42.97 32.27
  Q 42.71 30.42 44.31 31.40
  Q 47.85 33.58 49.65 31.13
  A 1.23 1.22 60.8 0 0 49.88 30.30
  Q 49.74 28.76 49.59 27.04
  C 49.53 26.39 49.03 25.79 48.52 25.41
  Q 47.97 24.66 48.03 23.81
  L 48.11 18.09
  Q 48.12 17.36 48.79 17.08
  Q 49.99 16.57 51.25 16.63
  A 0.95 0.95 0.0 0 1 52.12 17.31
  Q 52.39 18.26 52.60 19.27
  Q 52.66 19.55 52.91 19.69
  Q 53.63 20.07 53.74 19.26
  Q 53.95 17.78 55.20 17.40
  Q 55.76 17.23 56.07 17.73
  L 56.42 18.31
  Z"
/>
<path fill="#d0a273" d="
  M 68.80 21.81
  Q 70.78 22.42 73.10 22.15
  Q 73.59 22.09 73.92 22.46
  Q 74.35 22.95 74.02 23.53
  A 1.09 1.08 -44.7 0 0 74.01 24.59
  Q 74.52 25.55 74.60 26.68
  C 74.70 28.30 75.70 29.39 76.51 30.69
  Q 76.76 31.08 77.22 31.13
  Q 77.85 31.19 78.13 30.47
  Q 78.02 30.72 78.25 30.88
  L 77.28 31.62
  Q 76.96 31.86 76.86 32.25
  Q 76.75 32.67 76.33 32.70
  Q 75.71 32.74 75.34 32.24
  Q 74.70 31.36 74.55 30.39
  A 0.71 0.71 0.0 0 0 73.64 29.82
  Q 71.57 30.43 70.61 32.69
  Q 70.35 33.31 71.00 33.49
  Q 71.52 33.64 72.04 33.50
  C 73.14 33.22 74.30 33.64 74.73 34.75
  Q 74.90 35.20 75.37 35.29
  C 80.28 36.26 80.06 40.44 81.38 44.14
  Q 81.83 45.42 80.49 45.66
  Q 79.73 45.80 78.30 44.48
  L 79.70 44.57
  Q 80.13 44.59 80.44 44.29
  Q 80.73 44.01 80.67 43.54
  Q 80.59 42.86 80.11 42.41
  Q 77.75 40.17 75.15 37.52
  Q 74.65 37.00 74.42 36.34
  Q 74.29 35.95 73.90 35.81
  Q 72.17 35.22 70.83 36.63
  Q 69.89 37.63 68.87 36.09
  A 1.77 1.75 -46.2 0 1 68.84 34.22
  Q 70.39 31.68 72.16 28.77
  Q 72.99 27.41 72.51 25.95
  Q 72.35 25.47 72.61 25.03
  L 73.19 24.02
  A 0.76 0.76 0.0 0 0 72.41 22.89
  Q 70.44 23.21 68.78 22.37
  Q 67.47 21.70 68.08 23.04
  Q 68.42 23.79 69.25 24.05
  Q 69.78 24.22 69.97 24.75
  Q 70.93 27.35 69.90 29.00
  Q 68.82 30.72 67.10 29.44
  Q 68.03 28.48 68.03 28.06
  Q 68.03 26.28 66.82 27.59
  Q 64.84 29.75 64.24 33.04
  Q 64.13 33.62 64.71 33.49
  Q 65.11 33.39 65.56 33.03
  Q 65.53 33.79 64.62 34.15
  A 0.77 0.77 0.0 0 1 63.58 33.29
  Q 64.02 31.06 63.88 28.64
  A 1.96 1.95 58.0 0 1 64.12 27.59
  C 64.58 26.75 64.50 26.16 63.97 25.30
  Q 63.64 24.78 63.66 24.22
  Q 64.40 24.93 65.02 25.06
  Q 65.49 25.16 65.70 24.73
  Q 66.46 23.20 66.25 21.80
  Q 66.16 21.24 66.71 21.36
  L 68.80 21.81
  Z"
/>
<path fill="#d0a273" d="
  M 61.77 26.55
  Q 62.21 28.41 61.00 29.50
  Q 58.97 31.33 58.85 33.79
  Q 58.79 33.89 58.72 33.99
  Q 58.31 34.28 57.95 34.32
  Q 57.28 34.41 57.39 33.74
  L 57.67 31.97
  A 0.46 0.46 0.0 0 0 57.01 31.49
  Q 55.10 32.49 54.62 34.71
  A 0.54 0.48 -13.8 0 1 54.41 35.02
  Q 54.12 35.21 53.86 35.10
  Q 53.69 35.02 53.67 34.84
  Q 53.48 33.12 51.89 32.43
  Q 51.36 32.20 51.25 31.63
  Q 50.40 27.20 52.51 24.32
  A 0.81 0.79 -31.9 0 0 52.66 23.70
  Q 52.59 23.24 52.99 23.00
  Q 53.73 22.56 53.98 23.38
  Q 54.53 25.12 52.95 26.49
  Q 52.67 26.73 52.61 27.08
  Q 52.52 27.59 53.03 27.60
  Q 53.45 27.61 53.82 27.79
  Q 52.84 28.92 52.85 29.48
  Q 52.89 31.92 54.42 30.01
  Q 55.89 28.15 57.50 26.27
  C 58.59 24.98 57.63 23.69 58.57 22.54
  Q 59.19 21.77 60.25 21.67
  A 0.80 0.79 8.9 0 1 61.06 22.78
  Q 60.18 24.77 60.71 26.89
  Q 60.95 27.84 61.47 27.02
  L 61.77 26.55
  Z"
/>
<path fill="#895424" d="
  M 48.03 23.81
  Q 47.97 24.66 48.52 25.41
  L 48.68 26.10
  Q 48.91 27.07 48.07 26.54
  Q 46.49 25.54 47.12 23.38
  A 0.28 0.28 0.0 0 1 47.66 23.44
  Q 47.68 23.69 48.03 23.81
  Z"
/>
<path fill="#895424" d="
  M 27.66 54.47
  Q 27.64 54.81 27.76 55.02
  A 0.66 0.60 76.1 0 1 27.24 55.99
  L 24.23 55.79
  A 1.07 1.06 83.2 0 0 23.15 57.17
  C 23.68 58.83 24.96 59.97 25.48 61.61
  Q 26.22 63.96 26.31 66.50
  C 26.39 68.89 27.94 71.19 29.46 72.94
  Q 30.75 74.43 28.97 73.58
  Q 25.61 71.99 24.70 68.12
  Q 24.87 67.23 24.50 66.68
  Q 24.38 66.51 24.21 66.40
  Q 23.72 66.08 23.35 66.51
  A 0.27 0.26 45.7 0 1 22.95 66.50
  Q 22.50 65.97 22.62 65.20
  C 22.86 63.39 23.76 60.98 22.73 59.33
  Q 22.05 58.25 21.81 57.62
  Q 19.16 50.90 18.81 48.87
  Q 17.68 42.33 21.71 34.23
  Q 21.80 33.54 21.79 32.26
  Q 21.79 31.68 22.24 31.34
  Q 22.70 31.00 22.99 31.50
  Q 23.50 32.34 24.28 32.84
  Q 24.75 33.13 25.12 32.72
  Q 26.71 30.90 25.97 27.94
  L 26.64 25.27
  Q 26.97 25.01 27.44 25.09
  Q 28.05 25.19 27.78 25.75
  Q 27.30 26.75 27.22 28.11
  Q 27.20 28.55 27.46 28.89
  L 30.19 32.48
  A 0.78 0.77 -58.5 0 1 30.34 33.11
  Q 30.14 34.18 29.46 33.91
  Q 29.09 33.76 29.07 33.37
  L 29.04 32.89
  A 0.62 0.62 0.0 0 0 28.39 32.31
  L 27.98 32.33
  A 0.40 0.40 0.0 0 0 27.64 32.90
  L 27.77 33.19
  Q 27.94 33.56 27.54 33.69
  Q 26.60 33.98 25.93 34.68
  Q 25.57 35.06 25.07 35.25
  C 20.91 36.82 20.06 40.57 19.59 44.53
  A 1.00 0.99 87.1 0 0 20.79 45.62
  C 22.84 45.19 24.06 42.34 25.02 40.64
  Q 25.37 40.02 26.07 40.13
  L 26.50 40.19
  A 0.56 0.56 0.0 0 1 26.84 41.11
  Q 24.99 43.27 24.08 45.83
  Q 23.84 46.52 23.24 46.93
  Q 22.27 47.58 21.28 48.29
  Q 19.77 49.35 21.20 50.92
  A 1.88 1.86 62.5 0 0 22.98 51.49
  Q 26.51 50.74 27.66 54.47
  Z"
/>
<ellipse fill="#895424" cx="0.00" cy="0.00" transform="translate(34.86,30.45) rotate(65.9)" rx="3.76" ry="0.82"/>
<path fill="#895424" d="
  M 67.10 29.44
  L 65.56 33.03
  Q 65.11 33.39 64.71 33.49
  Q 64.13 33.62 64.24 33.04
  Q 64.84 29.75 66.82 27.59
  Q 68.03 26.28 68.03 28.06
  Q 68.03 28.48 67.10 29.44
  Z"
/>
<path fill="#9c8372" d="
  M 79.38 32.46
  L 79.26 34.75
  Q 78.72 33.17 78.94 31.25
  Q 79.00 30.76 78.25 30.88
  Q 78.02 30.72 78.13 30.47
  L 78.47 28.58
  Q 78.64 27.68 78.78 28.58
  L 79.38 32.46
  Z"
/>
<path fill="#f2d5be" d="
  M 66.81 37.80
  Q 60.37 36.24 58.03 41.29
  Q 56.89 40.61 54.92 42.28
  Q 54.46 42.67 54.20 42.12
  L 54.03 41.76
  A 0.57 0.55 -37.8 0 1 54.12 41.16
  L 54.59 40.62
  Q 54.89 40.27 54.89 39.80
  Q 54.85 37.20 55.33 33.99
  A 0.87 0.87 0.0 0 1 56.41 33.27
  Q 57.34 33.50 57.19 34.19
  Q 57.03 34.91 57.73 34.73
  Q 58.33 34.57 58.72 33.99
  Q 58.79 33.89 58.85 33.79
  Q 59.82 32.70 60.41 30.65
  A 1.16 1.16 0.0 0 1 62.49 30.34
  Q 63.43 31.79 62.61 34.18
  A 0.95 0.94 -83.6 0 0 63.60 35.43
  L 66.44 35.12
  Q 67.11 35.04 67.61 35.48
  Q 68.47 36.24 69.12 37.48
  Q 69.48 38.17 68.71 38.06
  L 66.81 37.80
  Z"
/>
<path fill="#f2d5be" d="
  M 40.08 30.52
  L 41.73 33.65
  Q 42.04 34.41 42.69 34.77
  Q 43.43 35.19 43.74 34.39
  L 44.10 33.45
  Q 44.28 32.97 44.52 33.43
  Q 45.80 35.93 45.88 38.60
  A 1.35 1.34 25.7 0 0 46.16 39.39
  Q 46.96 40.43 46.89 41.67
  Q 46.85 42.48 46.10 42.76
  Q 45.50 42.99 44.87 42.87
  A 0.58 0.57 -82.1 0 1 44.41 42.26
  Q 44.48 41.48 42.70 41.31
  Q 40.76 36.55 34.77 37.60
  Q 33.66 37.67 33.19 38.00
  Q 31.04 39.48 32.14 37.13
  Q 33.11 35.02 36.68 35.43
  A 1.29 1.29 0.0 0 0 38.11 34.06
  Q 38.01 32.72 37.81 31.25
  Q 37.71 30.48 38.35 30.16
  Q 38.97 29.85 40.08 30.52
  Z"
/>
<path fill="#895424" d="
  M 78.25 30.88
  Q 79.00 30.76 78.94 31.25
  Q 78.72 33.17 79.26 34.75
  Q 82.07 41.61 82.14 43.75
  Q 82.33 49.40 80.05 54.29
  Q 79.36 54.51 79.10 55.15
  Q 78.92 55.61 78.48 55.83
  Q 77.69 56.25 76.93 55.89
  Q 76.50 55.69 76.04 55.69
  L 74.32 55.66
  Q 73.81 55.66 73.61 55.19
  Q 73.37 54.65 73.49 54.00
  Q 73.90 52.50 74.90 51.68
  Q 75.28 51.36 75.78 51.37
  Q 77.09 51.43 78.38 51.20
  Q 79.43 51.02 79.83 50.39
  C 80.41 49.50 79.90 48.47 79.02 48.01
  C 77.85 47.41 76.59 46.63 76.17 45.30
  Q 75.40 42.86 73.90 41.13
  A 0.61 0.61 0.0 0 1 74.35 40.12
  L 74.76 40.11
  Q 75.49 40.10 75.89 40.73
  L 78.30 44.48
  Q 79.73 45.80 80.49 45.66
  Q 81.83 45.42 81.38 44.14
  C 80.06 40.44 80.28 36.26 75.37 35.29
  Q 74.90 35.20 74.73 34.75
  C 74.30 33.64 73.14 33.22 72.04 33.50
  Q 71.52 33.64 71.00 33.49
  Q 70.35 33.31 70.61 32.69
  Q 71.57 30.43 73.64 29.82
  A 0.71 0.71 0.0 0 1 74.55 30.39
  Q 74.70 31.36 75.34 32.24
  Q 75.71 32.74 76.33 32.70
  Q 76.75 32.67 76.86 32.25
  Q 76.96 31.86 77.28 31.62
  L 78.25 30.88
  Z"
/>
<path fill="#281708" d="
  M 34.77 37.60
  Q 40.76 36.55 42.70 41.31
  Q 43.08 41.62 43.14 42.27
  Q 42.90 42.86 42.94 43.41
  Q 43.00 44.11 42.61 43.53
  Q 42.49 43.34 42.41 42.99
  Q 42.22 41.34 40.10 40.09
  A 0.53 0.53 0.0 0 0 39.31 40.49
  Q 39.16 41.75 38.35 42.84
  Q 37.46 44.04 37.63 42.55
  Q 37.91 39.98 36.63 39.54
  Q 35.08 38.98 32.12 41.69
  Q 31.08 39.89 34.77 37.60
  Z"
/>
<path fill="#281708" d="
  M 66.81 37.80
  L 68.89 40.18
  Q 69.42 40.78 68.86 41.35
  Q 68.13 42.09 67.91 43.20
  C 67.63 44.56 66.21 45.42 65.06 46.08
  Q 64.54 46.01 64.55 45.28
  Q 66.95 44.69 67.68 41.65
  Q 67.80 41.13 67.43 40.76
  Q 66.15 39.44 64.02 39.55
  Q 63.51 39.57 63.76 40.02
  Q 64.10 40.62 64.09 41.29
  Q 64.08 41.96 63.55 42.38
  L 63.18 42.66
  Q 62.44 43.23 62.50 42.30
  Q 62.58 40.99 61.73 40.12
  A 1.07 1.07 0.0 0 0 60.08 40.27
  L 58.22 43.05
  Q 58.39 43.47 57.78 43.15
  L 58.03 41.29
  Q 60.37 36.24 66.81 37.80
  Z"
/>
<path fill="#9c8372" d="
  M 36.63 39.54
  Q 35.33 40.44 34.15 42.08
  A 1.54 1.53 -48.1 0 0 34.25 44.01
  C 37.11 47.17 40.47 46.70 42.41 42.99
  Q 42.49 43.34 42.61 43.53
  Q 43.00 44.11 42.94 43.41
  Q 42.90 42.86 43.14 42.27
  L 43.64 44.51
  Q 43.77 45.08 43.19 45.15
  Q 41.73 45.34 40.51 46.28
  Q 40.07 46.62 39.53 46.68
  Q 33.80 47.28 32.12 41.69
  Q 35.08 38.98 36.63 39.54
  Z"
/>
<path fill="#e4c09b" d="
  M 64.55 45.28
  Q 60.48 46.80 58.22 43.05
  L 60.08 40.27
  A 1.07 1.07 0.0 0 1 61.73 40.12
  Q 62.58 40.99 62.50 42.30
  Q 62.44 43.23 63.18 42.66
  L 63.55 42.38
  Q 64.08 41.96 64.09 41.29
  Q 64.10 40.62 63.76 40.02
  Q 63.51 39.57 64.02 39.55
  Q 66.15 39.44 67.43 40.76
  Q 67.80 41.13 67.68 41.65
  Q 66.95 44.69 64.55 45.28
  Z"
/>
<path fill="#f2d5be" d="
  M 36.63 39.54
  Q 37.91 39.98 37.63 42.55
  Q 37.46 44.04 38.35 42.84
  Q 39.16 41.75 39.31 40.49
  A 0.53 0.53 0.0 0 1 40.10 40.09
  Q 42.22 41.34 42.41 42.99
  C 40.47 46.70 37.11 47.17 34.25 44.01
  A 1.54 1.53 -48.1 0 1 34.15 42.08
  Q 35.33 40.44 36.63 39.54
  Z"
/>
<path fill="#d0a273" d="
  M 56.91 50.35
  Q 57.88 50.54 58.75 50.84
  Q 59.33 51.03 59.63 50.78
  Q 60.04 50.42 59.67 50.02
  L 56.25 46.31
  Q 57.98 45.59 58.59 47.15
  Q 58.78 47.61 59.19 47.87
  Q 60.39 48.62 61.88 48.38
  Q 65.66 47.75 69.18 46.12
  Q 69.61 45.91 69.72 45.45
  L 70.73 41.21
  A 0.64 0.64 0.0 0 1 71.87 40.98
  L 74.74 45.03
  A 1.41 1.41 0.0 0 1 74.12 47.15
  Q 73.21 47.52 72.73 48.37
  Q 71.79 50.02 70.23 51.14
  Q 69.76 51.47 69.20 51.33
  C 66.60 50.69 63.29 51.89 60.54 52.09
  Q 60.05 52.12 59.62 51.88
  L 56.91 50.35
  Z"
/>
<path fill="#d0a273" d="
  M 43.93 46.81
  Q 42.78 48.60 40.69 49.88
  Q 40.24 50.16 40.47 50.63
  Q 40.71 51.11 41.25 51.17
  Q 41.75 51.21 42.11 50.88
  Q 43.03 50.02 44.38 50.31
  Q 42.23 52.38 41.25 52.50
  Q 39.03 52.76 36.82 52.81
  C 34.86 52.86 31.12 54.05 30.04 51.77
  Q 28.48 48.48 26.00 46.27
  Q 25.60 45.90 25.84 45.41
  L 27.94 41.32
  Q 28.16 40.90 28.62 40.84
  Q 29.33 40.75 29.77 41.28
  Q 30.11 41.70 30.17 42.28
  Q 30.38 44.05 30.94 45.45
  A 1.74 1.71 -86.7 0 0 31.72 46.34
  Q 38.19 49.91 43.93 46.81
  Z"
/>
<path fill="#9c8372" d="
  M 57.78 43.15
  Q 58.39 43.47 58.22 43.05
  Q 60.48 46.80 64.55 45.28
  Q 64.54 46.01 65.06 46.08
  Q 63.26 47.22 61.08 46.76
  Q 60.56 46.65 60.18 46.27
  Q 59.20 45.27 57.83 45.33
  Q 57.23 45.35 57.16 44.76
  Q 57.04 43.84 57.78 43.15
  Z"
/>
<path fill="#895424" d="
  M 46.55 48.50
  L 44.38 50.31
  Q 43.03 50.02 42.11 50.88
  Q 41.75 51.21 41.25 51.17
  Q 40.71 51.11 40.47 50.63
  Q 40.24 50.16 40.69 49.88
  Q 42.78 48.60 43.93 46.81
  Q 45.37 45.35 46.99 45.25
  Q 47.52 45.22 47.55 45.75
  Q 47.66 47.39 46.55 48.50
  Z"
/>
<path fill="#895424" d="
  M 56.25 46.31
  L 59.67 50.02
  Q 60.04 50.42 59.63 50.78
  Q 59.33 51.03 58.75 50.84
  Q 57.88 50.54 56.91 50.35
  L 55.23 49.54
  Q 54.93 49.01 54.84 49.31
  Q 53.54 44.92 56.25 46.31
  Z"
/>
<path fill="#e4c09b" d="
  M 46.55 48.50
  L 46.92 48.52
  Q 47.34 48.53 47.35 48.96
  Q 47.36 49.34 47.54 49.63
  Q 46.11 50.94 46.95 51.85
  A 0.78 0.77 69.7 0 0 47.46 52.09
  L 47.96 52.13
  A 0.40 0.39 -13.0 0 0 48.33 51.54
  Q 48.04 51.05 48.12 50.55
  A 0.64 0.63 9.1 0 1 48.85 50.03
  Q 50.24 50.25 51.60 49.92
  Q 52.10 49.79 52.55 50.05
  Q 52.80 50.19 52.88 50.41
  Q 53.07 50.91 52.63 51.21
  Q 51.42 52.03 49.67 52.16
  A 0.61 0.60 -25.7 0 0 49.30 53.20
  Q 49.69 53.56 49.68 54.20
  Q 48.17 53.78 47.33 53.10
  Q 46.42 52.36 45.32 52.75
  Q 41.96 53.96 40.86 56.98
  Q 39.43 60.91 42.91 61.72
  Q 41.24 62.11 39.52 61.25
  Q 39.01 61.00 39.14 61.55
  Q 39.26 62.01 40.34 62.47
  Q 39.76 62.46 39.81 63.30
  Q 39.84 63.79 40.25 64.06
  C 40.96 64.52 41.18 65.33 41.94 65.65
  Q 42.57 65.92 43.17 65.65
  Q 43.62 65.45 44.09 65.59
  Q 44.63 65.75 44.94 66.15
  Q 44.52 66.27 44.50 66.30
  A 0.55 0.54 33.5 0 0 44.67 67.09
  Q 47.43 68.74 50.33 68.87
  Q 53.12 68.98 55.57 67.03
  Q 55.99 66.69 55.86 66.17
  Q 55.73 65.66 55.28 65.82
  Q 56.07 65.25 56.99 65.61
  Q 57.47 65.80 57.89 65.49
  L 60.29 63.67
  Q 60.83 63.27 60.24 62.96
  Q 59.51 62.57 58.83 63.09
  Q 64.50 60.57 60.31 61.56
  Q 62.85 56.81 57.66 53.79
  Q 57.33 53.59 57.14 53.27
  Q 56.98 53.01 56.79 52.78
  A 1.04 1.02 68.8 0 0 56.02 52.43
  L 52.32 52.48
  L 53.67 51.96
  A 0.75 0.74 -11.3 0 0 54.15 51.25
  Q 54.15 50.67 53.74 49.96
  Q 54.38 49.01 54.84 49.31
  Q 54.93 49.01 55.23 49.54
  L 55.31 49.84
  A 0.75 0.71 -83.9 0 0 55.67 50.31
  L 59.33 52.32
  Q 59.76 52.55 60.25 52.54
  L 60.78 52.53
  Q 61.27 52.52 61.52 52.94
  Q 62.02 53.81 62.43 55.26
  Q 63.74 59.86 68.83 59.90
  Q 69.28 59.90 69.60 60.00
  Q 71.42 60.56 69.79 60.95
  L 65.19 62.01
  Q 64.03 62.27 63.27 63.19
  Q 63.07 63.44 62.93 63.74
  Q 62.56 64.50 63.40 64.57
  L 66.71 64.83
  A 0.49 0.49 0.0 0 1 66.99 65.69
  L 65.40 67.05
  Q 65.15 67.26 65.09 67.58
  Q 64.90 68.63 63.96 69.25
  Q 63.19 69.22 63.31 70.02
  Q 61.53 72.09 58.83 72.55
  Q 58.35 72.64 58.09 73.06
  C 57.05 74.76 55.03 74.42 53.36 74.53
  Q 51.78 74.64 53.11 75.51
  Q 54.59 76.47 56.08 75.41
  Q 56.49 75.12 56.99 75.05
  C 58.31 74.88 59.06 74.43 60.51 74.53
  Q 62.02 74.63 63.42 74.10
  Q 65.19 73.43 64.45 75.17
  Q 63.69 76.96 62.69 78.87
  C 61.81 80.55 59.98 81.42 58.57 82.60
  A 0.43 0.42 -15.3 0 1 57.88 82.21
  Q 57.92 81.99 57.84 81.79
  Q 57.64 81.22 57.11 81.50
  Q 55.14 82.50 52.93 82.42
  C 50.54 82.34 45.29 82.74 43.30 81.43
  Q 41.16 80.02 41.33 77.31
  Q 41.35 76.88 41.67 76.60
  Q 42.81 75.55 44.79 75.87
  A 0.77 0.77 0.0 0 0 45.60 74.77
  Q 45.40 74.37 44.91 74.19
  C 43.99 73.84 43.22 72.91 43.09 71.93
  A 0.94 0.91 1.4 0 0 42.33 71.15
  Q 41.23 70.95 40.35 70.18
  Q 39.16 69.13 37.52 68.79
  Q 36.27 68.54 35.03 68.32
  Q 33.84 68.12 32.67 67.44
  Q 31.52 66.77 30.18 66.27
  Q 27.91 65.41 30.30 64.97
  Q 32.95 64.49 35.86 64.70
  Q 36.51 64.75 37.09 64.51
  A 0.74 0.74 0.0 0 0 37.02 63.12
  Q 35.07 62.55 33.10 63.03
  Q 31.82 63.34 32.23 62.09
  Q 32.28 61.92 32.36 61.75
  Q 32.53 61.33 32.08 61.32
  Q 30.67 61.27 28.82 60.37
  L 37.10 57.43
  Q 38.14 57.06 37.15 56.55
  Q 36.73 56.34 36.27 56.40
  A 0.72 0.72 0.0 0 1 35.47 55.88
  L 35.37 55.56
  Q 35.25 55.12 35.70 55.10
  L 38.32 54.95
  Q 38.67 54.93 38.83 54.62
  Q 38.92 54.43 38.86 54.22
  Q 38.80 54.00 38.57 53.99
  Q 35.16 53.78 36.82 52.81
  Q 39.03 52.76 41.25 52.50
  Q 42.23 52.38 44.38 50.31
  L 46.55 48.50
  Z"
/>
<path fill="#9c8372" d="
  M 53.74 49.96
  Q 54.15 50.67 54.15 51.25
  A 0.75 0.74 -11.3 0 1 53.67 51.96
  L 52.32 52.48
  Q 50.95 53.84 50.82 55.34
  Q 50.77 55.85 51.08 56.25
  Q 55.40 61.86 60.31 61.56
  Q 64.50 60.57 58.83 63.09
  Q 57.90 62.26 56.78 62.07
  L 52.02 58.39
  A 2.70 2.69 -45.1 0 0 48.70 58.40
  L 43.61 62.37
  Q 41.86 62.95 40.34 62.47
  Q 39.26 62.01 39.14 61.55
  Q 39.01 61.00 39.52 61.25
  Q 41.24 62.11 42.91 61.72
  Q 46.36 59.71 49.06 57.03
  Q 50.30 55.80 49.68 54.20
  Q 49.69 53.56 49.30 53.20
  A 0.61 0.60 -25.7 0 1 49.67 52.16
  Q 51.42 52.03 52.63 51.21
  Q 53.07 50.91 52.88 50.41
  Q 52.80 50.19 52.55 50.05
  Q 52.10 49.79 51.60 49.92
  Q 50.24 50.25 48.85 50.03
  A 0.64 0.63 9.1 0 0 48.12 50.55
  Q 48.04 51.05 48.33 51.54
  A 0.40 0.39 -13.0 0 1 47.96 52.13
  L 47.46 52.09
  A 0.78 0.77 69.7 0 1 46.95 51.85
  Q 46.11 50.94 47.54 49.63
  L 48.03 49.25
  Q 48.40 48.96 48.87 48.90
  Q 51.57 48.57 53.74 49.96
  Z"
/>
<path fill="#fdf5ed" d="
  M 52.32 52.48
  L 56.02 52.43
  A 1.04 1.02 68.8 0 1 56.79 52.78
  Q 56.98 53.01 57.14 53.27
  Q 57.33 53.59 57.66 53.79
  Q 62.85 56.81 60.31 61.56
  Q 55.40 61.86 51.08 56.25
  Q 50.77 55.85 50.82 55.34
  Q 50.95 53.84 52.32 52.48
  Z"
/>
<path fill="#fdf5ed" d="
  M 49.68 54.20
  Q 50.30 55.80 49.06 57.03
  Q 46.36 59.71 42.91 61.72
  Q 39.43 60.91 40.86 56.98
  Q 41.96 53.96 45.32 52.75
  Q 46.42 52.36 47.33 53.10
  Q 48.17 53.78 49.68 54.20
  Z"
/>
<path fill="#a16a3a" d="
  M 73.49 54.00
  Q 73.37 54.65 73.61 55.19
  Q 73.81 55.66 74.32 55.66
  L 76.04 55.69
  Q 76.50 55.69 76.93 55.89
  Q 77.69 56.25 78.48 55.83
  Q 78.92 55.61 79.10 55.15
  Q 79.36 54.51 80.05 54.29
  C 78.27 58.10 77.00 60.37 78.18 65.24
  C 78.88 68.12 79.74 70.81 80.86 73.57
  Q 81.54 75.24 81.82 77.04
  L 81.79 81.27
  Q 81.79 82.23 80.92 81.80
  Q 80.52 81.61 80.07 81.56
  Q 79.45 81.49 79.03 81.94
  Q 77.19 83.87 76.63 86.08
  Q 75.54 90.39 71.75 94.86
  Q 71.48 95.18 71.07 95.20
  L 62.59 95.73
  Q 63.18 94.93 62.96 95.01
  Q 64.65 94.14 65.02 92.58
  Q 65.18 91.94 65.71 91.55
  Q 67.04 90.59 68.25 89.59
  C 69.37 88.68 69.70 87.57 70.93 86.72
  A 1.41 1.40 80.1 0 0 71.50 85.90
  Q 72.12 83.50 74.58 82.42
  Q 74.98 82.25 75.23 81.88
  Q 76.54 80.00 77.59 78.07
  Q 78.00 77.33 77.87 76.48
  Q 77.79 75.96 78.02 75.49
  Q 79.87 71.68 77.26 67.58
  A 0.52 0.52 0.0 0 0 76.31 67.76
  Q 75.98 69.43 74.96 70.65
  Q 73.24 72.70 70.59 74.70
  A 0.04 0.04 0.0 0 1 70.53 74.66
  Q 70.59 74.50 70.56 74.35
  Q 70.49 73.98 70.71 73.66
  C 72.02 71.82 73.98 69.47 74.09 67.17
  Q 74.16 65.71 74.50 64.25
  Q 74.62 63.72 74.95 63.30
  Q 75.36 62.79 75.41 62.16
  Q 75.43 61.73 75.13 61.43
  Q 74.58 60.89 74.97 60.22
  Q 75.70 58.97 76.67 57.63
  Q 76.98 57.21 76.92 56.74
  Q 76.85 56.22 76.33 55.97
  Q 75.87 55.75 75.39 55.93
  Q 73.31 56.69 72.72 55.02
  L 73.49 54.00
  Z"
/>
<path fill="#d0a273" d="
  M 27.66 54.47
  Q 28.14 54.66 28.25 55.25
  Q 28.36 55.87 27.77 56.08
  Q 26.73 56.47 25.68 56.38
  Q 22.13 56.08 25.11 58.04
  Q 27.16 59.39 28.82 60.37
  Q 30.67 61.27 32.08 61.32
  Q 32.53 61.33 32.36 61.75
  Q 32.28 61.92 32.23 62.09
  Q 31.82 63.34 33.10 63.03
  Q 35.07 62.55 37.02 63.12
  A 0.74 0.74 0.0 0 1 37.09 64.51
  Q 36.51 64.75 35.86 64.70
  Q 32.95 64.49 30.30 64.97
  Q 27.91 65.41 30.18 66.27
  Q 31.52 66.77 32.67 67.44
  Q 33.84 68.12 35.03 68.32
  Q 36.27 68.54 37.52 68.79
  Q 39.16 69.13 40.35 70.18
  Q 41.23 70.95 42.33 71.15
  A 0.94 0.91 1.4 0 1 43.09 71.93
  C 43.22 72.91 43.99 73.84 44.91 74.19
  Q 45.40 74.37 45.60 74.77
  A 0.77 0.77 0.0 0 1 44.79 75.87
  Q 42.81 75.55 41.67 76.60
  Q 41.35 76.88 41.33 77.31
  Q 41.16 80.02 43.30 81.43
  C 45.29 82.74 50.54 82.34 52.93 82.42
  Q 55.14 82.50 57.11 81.50
  Q 57.64 81.22 57.84 81.79
  Q 57.92 81.99 57.88 82.21
  A 0.43 0.42 -15.3 0 0 58.57 82.60
  C 59.98 81.42 61.81 80.55 62.69 78.87
  Q 63.69 76.96 64.45 75.17
  Q 65.19 73.43 63.42 74.10
  Q 62.02 74.63 60.51 74.53
  C 59.06 74.43 58.31 74.88 56.99 75.05
  Q 56.49 75.12 56.08 75.41
  Q 54.59 76.47 53.11 75.51
  Q 51.78 74.64 53.36 74.53
  C 55.03 74.42 57.05 74.76 58.09 73.06
  Q 58.35 72.64 58.83 72.55
  Q 61.53 72.09 63.31 70.02
  Q 63.19 69.22 63.96 69.25
  Q 64.90 68.63 65.09 67.58
  Q 65.15 67.26 65.40 67.05
  L 66.99 65.69
  A 0.49 0.49 0.0 0 0 66.71 64.83
  L 63.40 64.57
  Q 62.56 64.50 62.93 63.74
  Q 63.07 63.44 63.27 63.19
  Q 64.03 62.27 65.19 62.01
  L 69.79 60.95
  Q 71.03 61.49 72.19 61.14
  Q 72.73 60.97 72.46 60.47
  L 72.31 60.19
  Q 71.95 59.51 72.68 59.30
  L 74.32 58.83
  Q 75.12 58.60 75.55 57.89
  Q 75.79 57.48 75.86 57.03
  Q 75.99 56.26 75.24 56.46
  Q 73.99 56.79 72.68 56.41
  Q 72.16 56.26 72.12 55.72
  Q 72.07 55.11 72.72 55.02
  Q 73.31 56.69 75.39 55.93
  Q 75.87 55.75 76.33 55.97
  Q 76.85 56.22 76.92 56.74
  Q 76.98 57.21 76.67 57.63
  Q 75.70 58.97 74.97 60.22
  Q 74.58 60.89 75.13 61.43
  Q 75.43 61.73 75.41 62.16
  Q 75.36 62.79 74.95 63.30
  Q 74.62 63.72 74.50 64.25
  Q 74.16 65.71 74.09 67.17
  C 73.98 69.47 72.02 71.82 70.71 73.66
  Q 70.49 73.98 70.56 74.35
  Q 70.59 74.50 70.53 74.66
  A 0.04 0.04 0.0 0 0 70.59 74.70
  Q 73.24 72.70 74.96 70.65
  Q 75.98 69.43 76.31 67.76
  A 0.52 0.52 0.0 0 1 77.26 67.58
  Q 79.87 71.68 78.02 75.49
  Q 77.79 75.96 77.87 76.48
  Q 78.00 77.33 77.59 78.07
  Q 76.54 80.00 75.23 81.88
  Q 74.98 82.25 74.58 82.42
  Q 72.12 83.50 71.50 85.90
  A 1.41 1.40 80.1 0 1 70.93 86.72
  C 69.70 87.57 69.37 88.68 68.25 89.59
  Q 67.04 90.59 65.71 91.55
  Q 65.18 91.94 65.02 92.58
  Q 64.65 94.14 62.96 95.01
  C 63.64 92.90 65.17 91.58 65.83 89.60
  Q 66.21 88.46 66.78 87.46
  C 67.68 85.90 68.05 84.14 68.32 82.38
  Q 68.39 81.86 68.73 81.45
  Q 69.07 81.04 69.12 80.52
  A 0.64 0.64 0.0 0 0 68.02 80.02
  Q 63.51 84.87 56.99 84.35
  Q 56.53 84.32 56.15 84.59
  Q 54.02 86.12 51.57 85.03
  A 2.14 2.12 51.2 0 0 50.33 84.89
  Q 46.87 85.50 43.62 84.92
  Q 40.75 84.41 37.82 83.56
  Q 35.65 82.92 33.92 81.13
  Q 33.08 80.26 32.13 80.90
  A 0.62 0.61 -25.8 0 0 31.88 81.60
  C 32.57 83.80 32.79 85.89 33.99 87.96
  Q 35.59 90.71 37.28 93.47
  Q 37.39 93.64 37.60 93.62
  Q 37.76 93.61 37.91 93.69
  Q 38.16 93.82 38.13 94.10
  Q 38.00 95.22 38.25 96.25
  Q 38.40 96.86 37.78 96.79
  L 35.23 96.53
  Q 34.74 96.48 34.27 96.62
  Q 31.95 97.32 29.51 96.34
  A 0.94 0.93 -64.8 0 0 28.34 96.77
  Q 27.82 97.73 29.27 100.00
  L 24.14 100.00
  L 20.28 99.66
  Q 16.52 97.75 16.81 92.85
  Q 16.91 91.29 17.80 92.57
  Q 19.05 94.37 21.04 93.77
  Q 21.50 93.63 21.93 93.82
  Q 23.03 94.31 24.31 94.22
  Q 24.92 94.18 25.19 94.73
  L 26.13 96.63
  Q 26.25 96.88 26.52 96.89
  L 26.83 96.90
  Q 27.34 96.92 27.24 96.41
  Q 26.55 92.98 24.21 90.77
  Q 23.48 90.08 22.71 88.98
  C 21.01 86.55 18.14 85.05 19.82 81.72
  C 22.84 81.43 23.52 85.12 24.38 87.45
  C 25.32 89.99 27.23 92.45 28.66 94.81
  Q 28.94 95.27 29.48 95.32
  L 35.97 95.87
  Q 38.34 96.07 36.63 94.42
  Q 34.95 92.80 33.49 90.80
  C 32.72 89.74 31.45 89.47 30.67 88.17
  Q 29.55 86.25 28.18 84.60
  Q 28.09 84.49 28.11 84.34
  Q 28.12 84.21 28.15 84.08
  Q 28.18 83.94 28.07 83.86
  Q 26.42 82.49 24.86 80.91
  Q 22.34 78.34 22.13 74.31
  Q 22.11 73.87 21.79 73.55
  L 21.53 73.29
  Q 21.15 72.90 21.24 72.37
  Q 21.70 69.62 22.88 67.27
  A 0.73 0.73 0.0 0 1 23.77 66.90
  Q 24.36 67.11 24.70 68.12
  Q 25.61 71.99 28.97 73.58
  Q 30.75 74.43 29.46 72.94
  C 27.94 71.19 26.39 68.89 26.31 66.50
  Q 26.22 63.96 25.48 61.61
  C 24.96 59.97 23.68 58.83 23.15 57.17
  A 1.07 1.06 83.2 0 1 24.23 55.79
  L 27.24 55.99
  A 0.66 0.60 76.1 0 0 27.76 55.02
  Q 27.64 54.81 27.66 54.47
  Z"
/>
<path fill="#fdf5ed" d="
  M 56.78 62.07
  Q 57.16 62.92 56.51 63.17
  Q 49.72 65.78 43.61 62.37
  L 48.70 58.40
  A 2.70 2.69 -45.1 0 1 52.02 58.39
  L 56.78 62.07
  Z"
/>
<path fill="#f2d5be" d="
  M 43.61 62.37
  Q 49.72 65.78 56.51 63.17
  Q 57.16 62.92 56.78 62.07
  Q 57.90 62.26 58.83 63.09
  Q 59.51 62.57 60.24 62.96
  Q 60.83 63.27 60.29 63.67
  L 57.89 65.49
  Q 57.47 65.80 56.99 65.61
  Q 56.07 65.25 55.28 65.82
  Q 50.33 67.59 44.94 66.15
  Q 44.63 65.75 44.09 65.59
  Q 43.62 65.45 43.17 65.65
  Q 42.57 65.92 41.94 65.65
  C 41.18 65.33 40.96 64.52 40.25 64.06
  Q 39.84 63.79 39.81 63.30
  Q 39.76 62.46 40.34 62.47
  Q 41.86 62.95 43.61 62.37
  Z"
/>
<path fill="#a16a3a" d="
  M 22.62 65.20
  Q 22.50 65.97 22.95 66.50
  A 0.27 0.26 45.7 0 0 23.35 66.51
  Q 23.72 66.08 24.21 66.40
  Q 24.38 66.51 24.50 66.68
  Q 24.87 67.23 24.70 68.12
  Q 24.36 67.11 23.77 66.90
  A 0.73 0.73 0.0 0 0 22.88 67.27
  Q 21.70 69.62 21.24 72.37
  Q 21.15 72.90 21.53 73.29
  L 21.79 73.55
  Q 22.11 73.87 22.13 74.31
  Q 22.34 78.34 24.86 80.91
  Q 26.42 82.49 28.07 83.86
  Q 28.18 83.94 28.15 84.08
  Q 28.12 84.21 28.11 84.34
  Q 28.09 84.49 28.18 84.60
  Q 29.55 86.25 30.67 88.17
  C 31.45 89.47 32.72 89.74 33.49 90.80
  Q 34.95 92.80 36.63 94.42
  Q 38.34 96.07 35.97 95.87
  L 29.48 95.32
  Q 28.94 95.27 28.66 94.81
  C 27.23 92.45 25.32 89.99 24.38 87.45
  C 23.52 85.12 22.84 81.43 19.82 81.72
  Q 20.65 78.80 20.42 75.51
  Q 20.39 75.01 20.62 74.57
  Q 21.62 72.63 19.88 72.99
  L 22.62 65.20
  Z"
/>
<path fill="#d0a273" d="
  M 55.28 65.82
  Q 55.73 65.66 55.86 66.17
  Q 55.99 66.69 55.57 67.03
  Q 53.12 68.98 50.33 68.87
  Q 47.43 68.74 44.67 67.09
  A 0.55 0.54 33.5 0 1 44.50 66.30
  Q 44.52 66.27 44.94 66.15
  Q 50.33 67.59 55.28 65.82
  Z"
/>
<path fill="#976222" d="
  M 19.82 81.72
  C 18.14 85.05 21.01 86.55 22.71 88.98
  Q 23.48 90.08 24.21 90.77
  Q 26.55 92.98 27.24 96.41
  Q 27.34 96.92 26.83 96.90
  L 26.52 96.89
  Q 26.25 96.88 26.13 96.63
  L 25.19 94.73
  Q 24.92 94.18 24.31 94.22
  Q 23.03 94.31 21.93 93.82
  Q 21.50 93.63 21.04 93.77
  Q 19.05 94.37 17.80 92.57
  Q 16.91 91.29 16.81 92.85
  Q 16.52 97.75 20.28 99.66
  L 18.98 100.00
  L 15.27 100.00
  Q 15.92 95.43 16.05 90.88
  Q 16.12 88.47 16.76 86.88
  C 17.48 85.10 18.10 83.79 18.22 81.78
  Q 18.50 77.14 19.88 72.99
  Q 21.62 72.63 20.62 74.57
  Q 20.39 75.01 20.42 75.51
  Q 20.65 78.80 19.82 81.72
  Z"
/>
<path fill="#d0a273" d="
  M 81.82 77.04
  L 82.91 84.20
  Q 81.52 84.26 81.43 85.90
  Q 81.39 86.63 80.73 86.94
  L 78.95 87.77
  A 1.80 1.79 -4.4 0 0 78.01 88.86
  Q 77.65 90.06 76.51 90.64
  Q 75.64 91.08 75.20 91.94
  L 73.19 95.94
  A 0.86 0.86 0.0 0 0 74.53 96.97
  Q 74.65 96.86 74.76 96.71
  Q 75.07 96.26 75.19 95.78
  Q 75.73 93.65 77.96 93.51
  C 79.79 93.39 81.25 94.65 82.74 92.79
  Q 83.66 91.65 83.73 93.11
  C 83.81 94.96 82.44 96.37 82.60 97.90
  Q 82.67 98.51 82.06 98.61
  Q 80.42 98.90 80.33 99.66
  L 76.87 100.00
  L 71.56 100.00
  Q 72.76 97.87 72.16 96.79
  Q 71.93 96.37 71.45 96.44
  C 69.38 96.73 67.46 97.10 65.41 97.08
  Q 63.67 97.06 62.00 97.66
  Q 61.54 97.83 61.19 97.53
  Q 60.73 97.14 61.16 96.72
  Q 62.05 95.88 62.59 95.73
  L 71.07 95.20
  Q 71.48 95.18 71.75 94.86
  Q 75.54 90.39 76.63 86.08
  Q 77.19 83.87 79.03 81.94
  Q 79.45 81.49 80.07 81.56
  Q 80.52 81.61 80.92 81.80
  Q 81.79 82.23 81.79 81.27
  L 81.82 77.04
  Z"
/>
<path fill="#e4c09b" d="
  M 62.96 95.01
  Q 63.18 94.93 62.59 95.73
  Q 62.05 95.88 61.16 96.72
  Q 60.73 97.14 61.19 97.53
  Q 61.54 97.83 62.00 97.66
  Q 63.67 97.06 65.41 97.08
  C 67.46 97.10 69.38 96.73 71.45 96.44
  Q 71.93 96.37 72.16 96.79
  Q 72.76 97.87 71.56 100.00
  L 55.64 100.00
  L 45.62 100.00
  L 29.27 100.00
  Q 27.82 97.73 28.34 96.77
  A 0.94 0.93 -64.8 0 1 29.51 96.34
  Q 31.95 97.32 34.27 96.62
  Q 34.74 96.48 35.23 96.53
  L 37.78 96.79
  Q 38.40 96.86 38.25 96.25
  Q 38.00 95.22 38.13 94.10
  Q 38.16 93.82 37.91 93.69
  Q 37.76 93.61 37.60 93.62
  Q 37.39 93.64 37.28 93.47
  Q 35.59 90.71 33.99 87.96
  C 32.79 85.89 32.57 83.80 31.88 81.60
  A 0.62 0.61 -25.8 0 1 32.13 80.90
  Q 33.08 80.26 33.92 81.13
  Q 35.65 82.92 37.82 83.56
  Q 40.75 84.41 43.62 84.92
  Q 46.87 85.50 50.33 84.89
  A 2.14 2.12 51.2 0 1 51.57 85.03
  Q 54.02 86.12 56.15 84.59
  Q 56.53 84.32 56.99 84.35
  Q 63.51 84.87 68.02 80.02
  A 0.64 0.64 0.0 0 1 69.12 80.52
  Q 69.07 81.04 68.73 81.45
  Q 68.39 81.86 68.32 82.38
  C 68.05 84.14 67.68 85.90 66.78 87.46
  Q 66.21 88.46 65.83 89.60
  C 65.17 91.58 63.64 92.90 62.96 95.01
  Z"
/>
<path fill="#976222" d="
  M 82.91 84.20
  Q 84.93 91.64 85.11 100.00
  L 81.40 100.00
  Q 81.24 99.80 80.33 99.66
  Q 80.42 98.90 82.06 98.61
  Q 82.67 98.51 82.60 97.90
  C 82.44 96.37 83.81 94.96 83.73 93.11
  Q 83.66 91.65 82.74 92.79
  C 81.25 94.65 79.79 93.39 77.96 93.51
  Q 75.73 93.65 75.19 95.78
  Q 75.07 96.26 74.76 96.71
  Q 74.65 96.86 74.53 96.97
  A 0.86 0.86 0.0 0 1 73.19 95.94
  L 75.20 91.94
  Q 75.64 91.08 76.51 90.64
  Q 77.65 90.06 78.01 88.86
  A 1.80 1.79 -4.4 0 1 78.95 87.77
  L 80.73 86.94
  Q 81.39 86.63 81.43 85.90
  Q 81.52 84.26 82.91 84.20
  Z"
/>
<path fill="#fdf5ed" d="
  M 20.28 99.66
  L 24.14 100.00
  L 18.98 100.00
  L 20.28 99.66
  Z"
/>
<path fill="#fdf5ed" d="
  M 55.64 100.00
  L 45.62 100.00
  L 55.64 100.00
  Z"
/>
<path fill="#fdf5ed" d="
  M 80.33 99.66
  Q 81.24 99.80 81.40 100.00
  L 76.87 100.00
  L 80.33 99.66
  Z"
/>
</svg>
