<?xml version="1.0" encoding="UTF-8" standalone="no"?>
<!DOCTYPE svg PUBLIC "-//W3C//DTD SVG 1.1//EN" "http://www.w3.org/Graphics/SVG/1.1/DTD/svg11.dtd">
<svg xmlns="http://www.w3.org/2000/svg" version="1.1" viewBox="0.00 0.00 678.00 504.00">
<g stroke-width="2.00" fill="none" stroke-linecap="butt">
<path stroke="#909191" vector-effect="non-scaling-stroke" d="
  M 136.51 150.22
  Q 132.50 161.85 130.69 172.25
  Q 127.95 188.05 125.89 207.86
  C 124.86 217.80 124.51 228.11 125.60 237.74
  Q 127.17 251.69 131.28 269.56
  Q 137.10 294.80 149.45 317.78
  C 152.07 322.66 155.10 326.90 157.99 331.50
  Q 161.04 336.34 165.16 341.34
  Q 180.14 359.51 198.39 372.88
  Q 201.29 375.01 200.03 371.64
  C 199.84 371.15 199.21 369.63 198.84 369.00
  Q 190.02 354.19 181.23 339.00
  Q 179.48 335.99 177.82 332.51
  C 175.13 326.91 172.16 321.62 169.62 315.95
  C 166.46 308.91 162.99 302.39 160.22 295.13
  C 157.10 286.96 153.61 278.97 151.10 270.62
  Q 143.56 245.54 144.09 220.82
  C 144.26 212.77 145.17 204.73 146.39 196.86
  C 149.89 174.17 158.67 151.17 172.22 132.02
  Q 181.44 118.98 189.01 110.21
  Q 202.33 94.76 220.57 81.06
  C 228.18 75.35 237.14 70.70 245.53 65.79
  Q 253.59 61.08 271.47 54.03
  Q 297.59 43.73 325.55 41.24"
/>
<path stroke="#868685" vector-effect="non-scaling-stroke" d="
  M 325.55 41.24
  C 348.82 39.93 372.67 41.58 394.96 48.78
  C 400.98 50.73 406.97 53.40 412.78 55.76
  C 429.77 62.67 445.30 72.56 461.55 84.97
  C 467.61 89.60 473.11 94.87 478.60 100.08
  Q 504.89 125.04 521.00 157.11
  C 523.66 162.42 525.70 167.68 528.05 173.01
  Q 530.61 178.80 532.53 185.21
  Q 539.75 209.26 542.42 234.12"
/>
<path stroke="#80807f" vector-effect="non-scaling-stroke" d="
  M 542.42 234.12
  Q 543.06 247.20 543.00 255.74
  Q 542.76 288.18 531.91 319.94
  Q 531.27 321.83 532.72 323.23
  Q 534.17 324.63 535.87 325.86
  Q 549.08 335.41 560.18 343.51
  Q 561.20 344.25 562.01 345.28
  A 0.37 0.37 0.0 0 1 561.72 345.88
  Q 545.86 345.90 531.74 345.19
  Q 529.32 345.07 526.43 345.39
  A 2.07 2.07 0.0 0 0 524.78 346.58
  Q 505.26 389.62 468.57 417.22
  Q 466.84 418.52 465.69 420.26
  A 1.06 1.06 0.0 0 0 465.92 421.68
  C 471.42 426.04 476.00 430.82 480.65 435.68
  Q 481.13 436.18 481.82 436.17
  Q 526.90 435.32 576.24 435.59
  Q 577.57 435.59 579.14 435.41
  A 0.89 0.88 -3.4 0 0 579.91 434.55
  Q 580.30 405.19 580.88 373.49
  C 581.05 363.88 580.94 354.50 581.27 344.84
  C 581.61 334.68 581.51 323.90 581.75 314.39
  C 582.02 303.46 582.33 292.42 581.90 281.20
  Q 581.67 274.91 582.20 266.60
  Q 582.73 258.50 583.23 250.62
  Q 585.51 215.30 586.44 188.83
  C 586.74 180.41 587.50 172.04 587.74 163.52
  C 587.81 161.15 588.38 158.54 588.49 156.50
  Q 590.51 119.17 592.64 81.84
  Q 592.80 79.00 593.07 76.19
  C 593.50 71.52 593.41 66.89 593.80 62.13
  Q 594.45 54.32 594.33 46.27
  C 594.26 41.84 593.41 36.86 591.35 33.06
  C 588.53 27.87 581.00 20.67 573.93 20.58
  Q 545.92 20.22 510.29 20.50"
/>
<path stroke="#868685" vector-effect="non-scaling-stroke" d="
  M 510.29 20.50
  L 255.46 20.57"
/>
<path stroke="#80807f" vector-effect="non-scaling-stroke" d="
  M 255.46 20.57
  Q 225.48 20.36 195.51 20.56
  Q 185.22 20.62 175.51 20.55
  Q 147.02 20.34 109.97 20.50
  Q 103.22 20.53 99.48 21.98
  Q 92.86 24.54 88.29 31.88
  Q 85.95 35.63 85.63 41.70
  C 85.29 48.25 85.52 54.58 86.21 61.06
  Q 86.65 65.17 86.78 69.92
  C 87.11 81.10 88.09 92.63 88.74 104.04
  Q 90.83 141.36 92.35 172.00
  Q 92.66 178.21 92.88 184.00
  Q 95.30 245.26 97.86 297.25
  C 97.97 299.39 98.28 301.48 98.26 303.59
  C 98.19 312.91 99.13 322.50 99.53 331.47
  Q 101.40 373.71 104.01 415.92
  C 104.40 422.13 103.96 428.43 105.49 434.69
  A 1.77 1.75 -7.2 0 0 107.23 436.03
  C 151.88 435.40 199.01 435.55 245.51 435.53
  A 0.29 0.29 0.0 0 0 245.71 435.04
  Q 234.49 423.75 223.30 413.04
  Q 221.76 411.57 220.18 409.74
  C 217.40 406.51 213.94 404.08 211.07 401.07
  Q 208.52 398.39 205.38 396.49
  C 201.40 394.07 197.86 390.94 193.86 388.30
  Q 186.73 383.61 179.86 378.73
  C 177.17 376.82 174.90 374.77 172.32 372.72
  Q 169.28 370.29 166.34 367.40
  Q 154.81 356.08 146.92 346.47
  Q 135.55 332.61 128.14 313.03
  Q 125.54 306.18 123.77 298.59
  Q 121.70 289.71 120.81 283.00
  Q 117.41 257.59 119.33 228.32
  C 119.74 222.08 119.77 216.27 120.71 210.05
  C 121.22 206.65 121.10 203.15 121.72 199.67
  Q 124.25 185.22 126.97 174.00
  Q 129.93 161.78 136.51 150.22"
/>
<path stroke="#e2e2e1" vector-effect="non-scaling-stroke" d="
  M 255.46 20.57
  L 247.28 20.70
  Q 245.26 20.73 247.00 21.75
  L 248.29 22.52
  Q 248.61 22.71 248.69 23.07
  L 250.29 30.35
  Q 250.38 30.76 250.67 31.05
  Q 250.83 31.21 250.90 31.45
  Q 251.59 33.86 253.11 35.58
  Q 253.43 35.94 253.91 35.95
  Q 255.58 35.99 256.90 36.91
  A 1.30 1.26 60.4 0 0 257.69 37.14
  Q 258.72 37.09 259.72 37.36
  Q 260.35 37.53 260.81 37.99
  Q 261.36 38.53 262.13 38.39
  Q 262.73 38.29 263.17 38.71
  Q 263.94 39.47 263.62 40.28
  Q 263.43 40.77 262.93 40.61
  Q 262.70 40.54 262.48 40.66
  Q 262.10 40.88 262.49 41.07
  Q 262.85 41.25 262.99 41.65"
/>
<path stroke="#ededec" vector-effect="non-scaling-stroke" d="
  M 262.99 41.65
  Q 245.65 46.14 229.24 53.38
  Q 223.12 56.08 218.44 58.80
  C 211.18 63.03 203.62 66.69 196.65 71.53
  C 186.01 78.94 176.49 87.49 167.09 97.00
  Q 161.71 102.44 157.41 108.98
  Q 152.82 115.95 148.25 123.82
  Q 146.33 127.13 144.78 130.38
  C 142.65 134.84 140.30 138.76 138.73 143.63
  Q 137.66 146.96 136.51 150.22"
/>
<path stroke="#e2e2e1" vector-effect="non-scaling-stroke" d="
  M 510.29 20.50
  Q 511.95 21.26 509.95 21.34
  Q 509.39 21.36 509.60 21.88
  Q 510.11 23.13 508.94 23.91
  Q 508.54 24.17 508.52 24.65
  Q 508.44 26.69 509.08 28.98
  Q 509.20 29.44 509.55 29.76
  Q 510.25 30.40 510.43 31.40
  Q 511.08 35.01 511.90 38.41
  Q 512.00 38.82 512.36 39.03
  Q 513.10 39.47 513.48 40.36
  Q 513.50 40.42 513.48 40.49
  Q 513.46 40.56 513.39 40.56
  Q 513.08 40.54 513.27 40.78
  Q 513.79 41.43 513.64 42.31
  Q 513.55 42.84 513.82 43.31
  Q 516.21 47.49 518.46 51.85
  Q 519.06 53.01 519.22 54.23
  Q 519.39 55.52 519.65 56.86
  Q 519.79 57.62 520.22 58.27
  Q 520.67 58.98 520.39 59.78
  Q 520.24 60.21 520.33 60.65
  Q 520.64 62.19 520.48 63.97
  Q 520.44 64.50 520.84 64.85
  Q 521.50 65.42 521.26 66.15
  Q 521.01 66.93 521.71 66.54
  Q 521.86 66.46 522.03 66.38
  A 0.30 0.30 0.0 0 1 522.46 66.67
  Q 522.39 67.53 523.08 67.88
  Q 523.34 68.01 523.40 68.29
  Q 523.85 70.23 525.24 71.44
  Q 525.62 71.77 525.78 72.24
  Q 526.24 73.64 527.21 74.90
  Q 528.26 76.28 527.27 77.50
  Q 527.09 77.72 527.38 77.77
  Q 527.86 77.84 527.98 78.29
  Q 528.60 80.72 529.70 83.08
  Q 529.92 83.54 530.40 83.67
  Q 531.16 83.87 531.44 84.56
  C 531.90 85.68 532.33 86.17 533.29 87.16
  Q 533.63 87.51 533.66 88.00
  Q 533.70 88.53 533.46 89.00
  Q 533.24 89.42 533.65 89.67
  Q 534.50 90.18 534.35 91.15
  Q 534.29 91.48 534.57 91.29
  Q 534.75 91.17 534.90 91.34
  Q 535.05 91.51 534.96 91.72
  Q 534.90 91.88 534.84 92.05
  A 0.08 0.08 0.0 0 0 534.95 92.15
  Q 535.21 92.05 535.43 92.20
  Q 535.52 92.25 535.57 92.35
  Q 536.20 93.48 536.61 94.79
  Q 537.12 96.44 538.38 97.64
  Q 538.75 97.99 538.81 98.49
  Q 538.98 99.84 539.68 101.20
  Q 540.06 101.94 539.86 102.82
  Q 539.77 103.21 540.08 103.46
  Q 541.35 104.52 540.74 106.13
  Q 540.55 106.63 541.06 106.78
  Q 542.19 107.12 541.66 108.16
  Q 541.47 108.53 541.85 108.71
  Q 543.11 109.27 543.12 110.64
  Q 543.13 111.13 543.38 111.53
  Q 546.09 115.87 548.56 120.81
  Q 549.46 122.60 549.82 124.51
  Q 550.22 126.62 551.60 128.38
  A 1.86 1.82 23.7 0 1 551.99 129.35
  Q 552.41 133.34 552.80 137.57
  Q 552.91 138.79 553.41 139.85
  Q 554.13 141.40 553.55 142.94
  Q 553.51 143.02 553.60 143.05
  Q 553.73 143.09 553.83 143.18
  Q 554.15 143.43 554.17 143.84
  Q 554.54 149.55 553.75 155.42
  Q 553.69 155.81 553.85 156.18
  Q 553.99 156.48 553.85 156.78
  Q 552.83 158.95 552.88 161.15
  Q 552.90 162.37 552.73 163.56
  Q 552.55 164.79 552.39 166.11
  Q 552.16 167.92 552.67 169.67
  Q 553.33 171.98 552.73 174.36
  Q 552.60 174.85 552.77 175.33
  Q 553.98 178.82 552.97 182.54
  Q 552.87 182.90 553.02 183.25
  Q 553.21 183.70 552.81 183.97
  A 0.49 0.48 -31.4 0 0 552.65 184.61
  Q 553.11 185.44 552.72 186.25
  Q 552.53 186.64 552.80 186.99
  Q 553.34 187.69 553.47 188.50
  Q 553.98 191.61 553.74 195.49
  Q 553.72 195.79 553.88 196.06
  Q 554.14 196.49 554.07 196.98
  Q 553.75 199.01 553.27 201.02
  Q 552.86 202.74 554.07 204.14
  Q 554.35 204.46 554.10 204.80
  Q 552.63 206.75 552.01 209.13
  Q 551.88 209.60 551.54 209.96
  Q 549.87 211.67 550.60 213.54
  Q 550.97 214.49 550.86 215.64
  Q 550.72 217.01 550.48 218.34
  Q 550.39 218.83 550.70 219.22
  Q 551.76 220.59 550.67 222.01
  Q 550.38 222.38 550.55 222.83
  Q 550.70 223.26 550.57 223.68
  Q 549.75 226.28 549.20 228.99
  A 1.78 1.76 -47.4 0 0 549.23 229.84
  Q 549.58 231.07 548.60 231.97
  A 1.63 1.58 -14.6 0 0 548.13 232.74
  C 547.89 233.65 547.41 234.44 546.51 234.84
  Q 545.65 235.22 544.86 235.90
  A 0.91 0.90 34.2 0 1 543.98 236.06
  Q 542.95 235.70 542.42 234.12"
/>
<path stroke="#f3f3f3" vector-effect="non-scaling-stroke" d="
  M 325.55 41.24
  Q 327.47 41.22 327.22 39.21
  Q 326.91 36.75 324.46 36.05
  Q 322.63 35.53 320.37 37.00
  A 0.96 0.96 0.0 0 1 319.29 36.97
  L 317.21 35.45
  Q 316.80 35.16 316.35 35.36
  L 313.82 36.47
  Q 313.38 36.66 313.02 36.34
  Q 310.92 34.47 308.75 34.40
  C 302.59 34.19 295.63 34.37 289.33 35.71
  Q 286.44 36.33 283.10 36.78
  C 276.45 37.67 269.67 39.97 262.99 41.65"
/>
<path stroke="#909191" vector-effect="non-scaling-stroke" d="
  M 326.95 123.23
  A 0.62 0.62 0.0 0 0 327.51 123.84
  L 353.61 126.24
  A 0.62 0.62 0.0 0 0 354.28 125.62
  L 354.65 58.13
  A 0.62 0.62 0.0 0 0 354.03 57.51
  L 327.20 57.48
  A 0.62 0.62 0.0 0 0 326.58 58.10
  L 326.95 123.23"
/>
<path stroke="#909191" vector-effect="non-scaling-stroke" d="
  M 293.32 132.29
  C 299.57 129.83 305.25 127.14 311.90 126.02
  Q 312.43 125.93 312.48 125.40
  Q 312.87 121.03 312.87 116.60
  Q 312.90 97.10 312.43 79.20
  Q 312.20 70.46 311.34 61.91
  A 0.77 0.77 0.0 0 0 310.45 61.23
  Q 292.52 64.15 275.81 70.75
  Q 261.10 76.56 252.67 81.51
  Q 248.19 84.15 242.40 88.17
  Q 239.59 90.12 237.01 92.66
  A 0.71 0.70 -48.5 0 0 237.07 93.72
  C 252.26 105.63 265.47 119.96 279.10 133.67
  Q 280.96 135.55 283.33 137.27
  A 1.32 1.31 42.4 0 0 284.95 137.20
  Q 288.46 134.20 293.32 132.29"
/>
<path stroke="#909191" vector-effect="non-scaling-stroke" d="
  M 438.15 89.74
  C 417.56 75.52 395.63 65.85 371.10 61.60
  A 0.79 0.79 0.0 0 0 370.17 62.34
  Q 368.37 96.37 368.48 130.25
  A 0.94 0.94 0.0 0 0 369.00 131.09
  L 377.57 135.40
  Q 378.12 135.67 378.60 135.29
  C 400.86 117.60 417.81 104.74 438.53 91.41
  A 0.75 0.74 -32.6 0 0 438.76 90.40
  Q 438.52 90.00 438.15 89.74"
/>
<path stroke="#909191" vector-effect="non-scaling-stroke" d="
  M 484.00 156.44
  Q 489.63 154.35 495.51 151.66
  Q 497.17 150.90 496.34 149.27
  Q 495.12 146.86 493.53 144.51
  Q 488.30 136.75 483.25 130.12
  Q 476.84 121.71 461.84 106.75
  Q 460.10 105.01 457.45 103.63
  Q 456.92 103.35 456.40 103.65
  C 451.19 106.67 445.51 110.31 439.76 112.01
  A 0.76 0.76 0.0 0 0 439.33 113.13
  Q 444.54 121.71 450.30 130.93
  Q 453.63 136.25 464.35 159.88
  Q 465.10 161.54 465.99 163.00
  A 1.49 1.49 0.0 0 0 467.94 163.55
  Q 476.11 159.36 484.00 156.44"
/>
<path stroke="#5f605e" vector-effect="non-scaling-stroke" d="
  M 193.33 133.28
  Q 191.44 135.04 190.16 137.25
  C 189.48 138.43 188.67 139.21 187.48 139.61
  A 1.70 1.69 -11.6 0 0 186.31 141.37
  L 187.15 150.96"
/>
<path stroke="#80807f" vector-effect="non-scaling-stroke" d="
  M 187.15 150.96
  L 190.24 163.94"
/>
<path stroke="#5f605e" vector-effect="non-scaling-stroke" d="
  M 190.24 163.94
  Q 194.04 178.40 199.58 192.25"
/>
<path stroke="#909191" vector-effect="non-scaling-stroke" d="
  M 199.58 192.25
  L 204.60 205.84
  A 0.33 0.33 0.0 0 0 205.07 206.02
  Q 205.46 205.81 205.68 205.43
  C 208.66 200.48 210.74 194.57 213.26 189.20
  C 220.89 172.98 228.06 158.82 237.69 142.72
  Q 242.74 134.27 247.85 127.56
  Q 248.63 126.54 247.77 125.58
  Q 240.30 117.24 228.76 106.95
  C 226.27 104.73 223.98 102.23 220.62 104.89
  Q 216.27 108.34 212.63 111.48
  C 209.88 113.85 207.55 116.74 204.67 119.17
  Q 201.49 121.86 193.33 133.28"
/>
<path stroke="#cccdcb" vector-effect="non-scaling-stroke" d="
  M 199.58 192.25
  Q 199.73 187.87 198.52 183.80
  Q 198.12 182.46 198.15 181.18
  Q 198.18 179.67 197.95 178.26
  Q 196.78 171.37 195.76 164.49
  Q 195.40 162.02 195.29 159.42
  Q 195.16 156.12 194.12 152.22
  Q 193.72 150.71 193.08 149.30
  Q 192.32 147.64 192.14 145.90
  Q 192.12 145.70 192.02 145.52
  L 191.64 144.81
  Q 191.42 144.41 191.38 143.97
  Q 190.87 138.38 193.33 133.28"
/>
<path stroke="#bcbcb9" vector-effect="non-scaling-stroke" d="
  M 190.24 163.94
  Q 190.96 164.23 191.31 164.09
  Q 191.63 163.95 191.49 163.32
  Q 190.11 157.26 188.59 151.30
  A 0.91 0.91 0.0 0 0 187.81 150.63
  Q 187.23 150.57 187.15 150.96"
/>
<path stroke="#909191" vector-effect="non-scaling-stroke" d="
  M 441.28 145.06
  Q 434.11 132.52 425.31 121.92
  A 1.66 1.66 0.0 0 0 423.08 121.62
  C 419.41 124.17 416.04 127.10 412.18 129.38
  Q 402.99 134.81 394.26 141.49
  C 393.80 141.84 392.95 142.29 392.36 142.39
  Q 391.64 142.51 392.07 143.11
  Q 395.68 148.09 399.61 152.58
  C 405.78 159.62 411.77 166.81 417.73 174.04
  Q 418.53 175.01 419.96 175.06
  Q 426.34 175.28 433.54 173.89
  Q 443.08 172.06 452.22 170.11
  A 0.84 0.84 0.0 0 0 452.85 169.01
  C 450.09 160.73 445.67 152.72 441.28 145.06"
/>
<path stroke="#909191" vector-effect="non-scaling-stroke" d="
  M 249.28 174.50
  Q 255.31 162.74 263.18 152.84
  Q 265.76 149.60 269.12 146.65
  Q 270.17 145.74 269.21 144.72
  L 264.26 139.47
  Q 263.35 138.50 262.61 139.61
  Q 258.10 146.42 253.49 153.02
  C 249.82 158.27 246.85 163.98 243.30 169.28
  A 1.93 1.93 0.0 0 0 243.99 172.05
  L 248.82 174.64
  A 0.34 0.34 0.0 0 0 249.28 174.50"
/>
<path stroke="#909191" vector-effect="non-scaling-stroke" d="
  M 393.70 290.42
  Q 401.82 285.74 408.19 278.84
  Q 412.00 274.71 415.90 269.99
  Q 423.77 260.47 426.52 247.95
  Q 429.54 234.21 428.90 219.85
  Q 428.46 210.18 425.05 200.00
  Q 421.49 189.39 417.48 181.44
  Q 416.41 179.30 413.94 177.76
  Q 413.30 177.36 413.61 178.05
  C 415.94 183.20 418.64 188.31 419.75 193.93
  Q 423.87 214.68 419.12 235.66
  Q 413.51 260.46 393.41 279.64
  C 387.89 284.91 381.37 288.91 374.58 292.36
  Q 358.77 300.38 340.02 298.17
  Q 330.11 297.00 317.14 290.78
  Q 313.90 289.23 310.83 286.98
  C 305.70 283.22 300.32 280.08 295.84 275.65
  Q 285.81 265.74 280.17 255.33
  Q 267.58 232.08 274.09 204.65
  Q 276.66 193.82 282.19 183.15
  C 284.02 179.61 286.56 176.52 288.69 173.12
  Q 290.79 169.75 293.67 166.53
  Q 302.85 156.26 314.55 149.65
  Q 314.85 149.48 314.50 149.52
  Q 299.35 151.50 285.24 158.81
  Q 280.54 161.25 277.45 164.14
  Q 272.28 168.98 266.30 175.03
  Q 265.13 176.21 264.35 177.64
  Q 261.85 182.21 259.58 186.88
  C 257.94 190.25 257.80 193.91 256.85 197.12
  Q 256.24 199.17 255.95 201.30
  C 254.13 214.79 253.64 229.51 257.04 242.69
  Q 263.50 267.71 283.99 285.02
  C 288.21 288.58 293.52 291.04 298.37 293.81
  C 306.83 298.64 317.89 303.04 327.98 303.81
  Q 332.76 304.18 337.33 304.50
  C 346.56 305.15 357.62 304.84 366.82 302.46
  Q 381.25 298.73 393.52 290.71
  Q 393.61 290.65 393.62 290.54
  Q 393.63 290.46 393.70 290.42"
/>
<path stroke="#5f605e" vector-effect="non-scaling-stroke" d="
  M 168.78 251.98
  Q 169.69 260.14 170.11 268.20
  Q 170.59 277.73 171.00 281.26
  Q 171.72 287.51 172.88 294.24
  Q 173.20 296.09 174.05 297.70
  Q 177.32 303.91 180.75 309.40
  Q 180.90 309.64 181.17 309.74
  Q 181.63 309.90 181.77 310.37
  Q 182.26 311.86 183.43 313.39"
/>
<path stroke="#909191" vector-effect="non-scaling-stroke" d="
  M 183.43 313.39
  Q 187.15 323.36 193.66 332.58
  Q 198.19 339.00 203.23 345.02
  Q 205.74 348.03 208.96 345.96
  Q 218.94 339.54 231.03 329.22
  Q 232.17 328.25 232.75 326.96
  Q 232.97 326.47 232.78 325.96
  C 232.22 324.39 231.76 322.69 231.02 321.20
  C 220.85 300.68 212.65 281.56 206.70 261.59
  C 202.91 248.85 199.42 236.84 196.19 224.06
  Q 191.06 203.77 185.93 184.85
  C 183.32 175.21 179.92 165.64 178.27 155.97
  Q 177.84 153.49 176.64 155.69
  Q 173.90 160.73 171.87 166.89
  Q 167.20 181.06 165.56 194.45
  C 164.61 202.19 163.60 210.19 163.59 217.92
  Q 163.58 232.51 164.98 247.38
  A 2.01 2.00 14.0 0 0 165.88 248.87
  Q 167.86 250.16 168.78 251.98"
/>
<path stroke="#cccdcb" vector-effect="non-scaling-stroke" d="
  M 183.43 313.39
  Q 182.03 304.41 181.68 295.87
  C 181.63 294.54 180.97 293.45 180.88 292.14
  C 180.41 284.99 179.05 277.83 179.14 270.77
  Q 179.22 264.41 178.13 257.08
  C 177.76 254.54 171.61 252.64 168.78 251.98"
/>
<path stroke="#868685" vector-effect="non-scaling-stroke" d="
  M 310.92 269.12
  Q 308.59 266.15 306.47 263.31
  Q 298.47 252.62 295.93 239.86
  Q 294.14 230.88 296.56 218.85
  C 297.56 213.87 298.87 208.39 301.08 203.69
  Q 305.33 194.61 309.41 188.09
  Q 313.45 181.64 322.43 171.59
  Q 324.67 169.08 326.84 167.51
  Q 329.43 165.64 331.57 163.73
  Q 335.87 159.91 330.49 161.95
  C 323.79 164.49 317.52 167.61 311.70 172.18
  C 292.33 187.38 282.98 213.81 288.63 237.90
  Q 289.49 241.54 290.52 245.11
  Q 295.24 261.53 308.32 273.05
  C 314.58 278.57 321.82 281.51 329.25 284.64
  Q 329.40 284.70 329.47 284.56
  L 329.48 284.55
  Q 329.53 284.44 329.43 284.38
  C 322.22 280.09 315.93 275.53 310.92 269.12"
/>
<path stroke="#909191" vector-effect="non-scaling-stroke" d="
  M 480.13 176.75
  Q 476.49 178.31 473.05 180.33
  A 1.54 1.53 -5.2 0 0 472.38 181.13
  Q 471.66 183.16 472.36 185.52
  C 476.19 198.32 478.21 212.73 480.28 226.33
  C 480.74 229.35 484.53 229.55 486.19 227.46
  Q 487.58 225.72 488.59 223.93
  C 493.73 214.84 499.25 205.73 502.99 195.84
  Q 506.46 186.65 509.54 177.28
  Q 510.64 173.95 510.43 172.68
  C 509.77 168.64 506.92 169.41 503.91 169.79
  Q 493.21 171.14 480.13 176.75"
/>
<path stroke="#909191" vector-effect="non-scaling-stroke" d="
  M 459.55 185.31
  C 452.88 187.13 445.66 189.41 438.79 191.69
  C 437.36 192.17 436.29 193.16 436.67 194.79
  Q 440.17 209.88 441.59 223.91
  A 0.75 0.75 0.0 0 0 442.22 224.57
  Q 455.11 226.63 468.24 227.80
  Q 468.66 227.83 468.66 227.41
  C 468.59 216.65 466.28 206.23 463.66 195.68
  Q 462.35 190.42 460.33 185.69
  Q 460.11 185.15 459.55 185.31"
/>
<path stroke="#909191" vector-effect="non-scaling-stroke" d="
  M 214.71 231.67
  Q 216.94 235.94 219.32 240.59
  Q 219.84 241.59 220.65 242.41
  Q 221.02 242.78 221.54 242.75
  Q 224.18 242.58 227.24 241.82
  Q 235.92 239.68 242.96 237.15
  A 0.98 0.96 -3.5 0 0 243.58 236.46
  Q 244.00 234.75 243.94 233.14
  Q 243.22 212.58 245.01 194.42
  C 245.28 191.73 239.46 187.67 237.31 186.33
  A 1.13 1.12 -54.1 0 0 235.85 186.57
  Q 235.18 187.38 234.65 188.41
  Q 225.91 205.32 216.49 225.39
  Q 215.11 228.33 214.60 230.92
  A 1.22 1.19 37.4 0 0 214.71 231.67"
/>
<path stroke="#909191" vector-effect="non-scaling-stroke" d="
  M 522.46 234.02
  C 520.74 228.11 520.11 222.14 518.32 216.39
  A 0.81 0.81 0.0 0 0 516.87 216.19
  Q 515.11 218.95 514.01 221.91
  Q 512.13 226.98 509.89 232.31
  A 1.18 1.17 16.9 0 0 510.75 233.91
  Q 515.87 234.90 521.68 235.03
  A 0.79 0.79 0.0 0 0 522.46 234.02"
/>
<path stroke="#909191" vector-effect="non-scaling-stroke" d="
  M 457.38 269.86
  C 459.34 266.34 461.04 262.66 463.19 259.30
  Q 466.66 253.85 469.45 247.81
  A 0.73 0.72 -66.9 0 0 469.06 246.83
  Q 466.81 245.91 464.31 245.54
  Q 451.80 243.72 441.33 243.12
  A 1.07 1.06 7.0 0 0 440.21 243.99
  Q 439.30 248.88 439.13 254.46
  Q 438.84 264.35 437.88 272.51
  A 0.89 0.89 0.0 0 0 438.76 273.51
  L 454.21 273.50
  Q 454.71 273.50 455.04 273.14
  Q 456.35 271.70 457.38 269.86"
/>
<path stroke="#909191" vector-effect="non-scaling-stroke" d="
  M 494.73 295.24
  Q 504.36 300.40 511.64 305.46
  Q 513.12 306.49 514.06 304.95
  Q 515.28 302.94 515.80 300.55
  C 519.10 285.43 521.77 271.82 522.05 257.31
  A 2.15 2.14 -81.8 0 0 520.48 255.20
  Q 511.24 252.66 501.25 251.05
  C 498.07 250.54 494.92 254.66 493.41 256.95
  Q 488.11 265.02 483.11 273.10
  Q 479.56 278.82 475.91 283.70
  A 0.83 0.83 0.0 0 0 476.16 284.92
  Q 486.08 290.62 494.73 295.24"
/>
<path stroke="#909191" vector-effect="non-scaling-stroke" d="
  M 243.29 302.20
  C 244.67 305.05 245.95 308.01 247.49 310.71
  A 2.07 2.06 -26.4 0 0 250.09 311.58
  C 253.59 310.10 255.62 307.87 258.40 305.45
  Q 263.63 300.88 268.62 296.13
  Q 269.93 294.88 270.94 293.44
  Q 271.26 292.98 270.92 292.54
  C 270.02 291.37 269.21 290.06 268.18 289.01
  Q 256.08 276.66 248.72 262.98
  Q 246.89 259.57 245.54 255.78
  A 0.86 0.86 0.0 0 0 244.51 255.23
  Q 235.66 257.62 227.99 260.99
  A 1.37 1.37 0.0 0 0 227.24 262.67
  Q 233.83 282.70 243.29 302.20"
/>
<path stroke="#909191" vector-effect="non-scaling-stroke" d="
  M 414.68 321.48
  C 418.81 319.80 422.79 317.46 426.08 314.59
  C 432.75 308.78 438.96 301.74 444.37 293.53
  Q 448.15 287.82 451.68 282.18
  A 0.76 0.76 0.0 0 0 451.09 281.02
  Q 448.67 280.88 446.01 280.28
  Q 435.08 277.79 426.11 276.34
  A 2.19 2.18 -62.8 0 0 424.19 276.96
  Q 418.62 282.57 412.36 287.62
  C 411.02 288.70 410.27 290.03 408.88 291.12
  C 404.14 294.84 399.74 298.77 394.74 302.17
  A 0.62 0.62 0.0 0 0 394.58 303.03
  C 398.93 309.46 405.62 315.43 411.32 320.44
  C 412.19 321.20 413.48 321.97 414.68 321.48"
/>
<path stroke="#909191" vector-effect="non-scaling-stroke" d="
  M 291.04 303.63
  Q 289.31 302.71 287.43 302.44
  Q 286.95 302.37 286.55 302.63
  Q 284.75 303.82 283.20 305.26
  Q 273.21 314.56 263.02 325.22
  C 262.03 326.26 262.47 327.46 263.11 328.50
  Q 276.07 349.75 289.91 369.45
  C 291.35 371.50 292.39 373.10 295.23 371.80
  Q 302.40 368.54 308.74 366.34
  Q 311.01 365.55 313.03 364.19
  Q 313.65 363.78 313.66 363.04
  Q 313.94 341.79 313.81 321.02
  Q 313.79 317.39 313.65 313.65
  A 0.88 0.87 -82.6 0 0 313.03 312.84
  Q 301.74 309.37 291.04 303.63"
/>
<path stroke="#909191" vector-effect="non-scaling-stroke" d="
  M 500.05 337.95
  Q 502.03 330.49 506.19 323.21
  Q 506.91 321.93 505.63 321.22
  C 496.14 315.91 486.72 309.60 476.15 305.14
  C 474.91 304.61 473.40 304.43 472.30 305.38
  Q 462.33 313.96 452.00 324.89
  Q 449.05 328.01 451.54 331.44
  Q 456.15 337.81 461.97 343.56
  Q 474.71 356.17 486.82 368.54
  Q 488.13 369.88 489.25 368.38
  C 490.40 366.84 491.77 365.58 492.85 363.98
  Q 499.26 354.50 506.29 344.48
  C 507.92 342.16 508.50 339.60 509.79 337.16
  A 2.14 2.14 0.0 0 0 508.39 334.08
  C 505.21 333.31 502.60 336.09 500.72 338.30
  Q 499.61 339.60 500.05 337.95"
/>
<path stroke="#909191" vector-effect="non-scaling-stroke" d="
  M 395.95 332.14
  A 0.85 0.85 0.0 0 1 394.51 332.48
  Q 394.08 332.02 394.30 330.94
  Q 394.40 330.46 394.11 330.06
  C 392.92 328.48 391.71 327.10 390.97 325.23
  Q 388.01 317.72 384.48 309.93
  A 3.75 3.74 -22.4 0 0 379.77 307.97
  L 370.29 311.50
  Q 369.27 311.88 369.31 312.96
  Q 369.97 333.58 369.37 353.75
  A 1.80 1.80 0.0 0 1 368.36 355.32
  Q 364.47 357.24 360.79 359.58
  C 355.79 362.76 350.24 364.91 345.37 368.30
  Q 341.57 370.94 338.11 372.79
  Q 331.77 376.18 326.41 380.08
  A 1.23 1.23 0.0 0 0 326.10 381.73
  C 326.72 382.69 327.96 383.19 329.08 382.78
  Q 335.00 380.56 336.95 379.36
  Q 349.74 371.53 362.71 366.04
  C 364.41 365.32 366.22 364.87 368.00 364.43
  Q 369.65 364.03 369.56 365.73
  Q 369.23 371.99 369.04 378.25
  Q 368.98 380.54 369.65 382.73
  A 0.37 0.37 0.0 0 0 370.25 382.90
  Q 373.20 380.27 375.85 377.64
  Q 390.39 363.21 404.05 349.39
  Q 405.15 348.28 405.87 346.91
  A 1.32 1.31 -56.3 0 0 405.55 345.28
  C 402.66 342.87 398.30 340.13 396.46 336.89
  A 1.05 1.03 67.0 0 1 397.06 335.38
  C 400.93 334.23 405.88 333.01 408.84 330.29
  A 1.43 1.42 44.1 0 0 408.80 328.16
  Q 402.77 323.01 398.92 316.73
  Q 397.88 315.04 396.13 313.99
  Q 395.63 313.69 395.63 314.27
  Q 395.65 319.95 396.76 325.11
  Q 397.12 326.78 396.79 328.53
  Q 396.47 330.29 395.95 332.14"
/>
<path stroke="#909191" vector-effect="non-scaling-stroke" d="
  M 327.59 369.13
  C 332.81 366.35 337.81 363.29 342.40 360.09
  C 346.21 357.44 350.39 355.12 354.28 352.42
  A 2.45 2.44 73.0 0 0 355.33 350.43
  Q 355.41 336.53 355.54 322.50
  Q 355.57 319.18 355.21 314.99
  Q 355.15 314.37 354.56 314.56
  Q 351.36 315.62 347.58 315.71
  Q 336.86 315.98 327.85 315.13
  A 0.48 0.48 0.0 0 0 327.32 315.61
  C 327.43 333.38 327.91 351.13 326.83 368.64
  A 0.52 0.51 77.5 0 0 327.59 369.13"
/>
<path stroke="#909191" vector-effect="non-scaling-stroke" d="
  M 270.47 385.21
  Q 270.80 386.61 269.96 385.45
  Q 265.51 379.30 261.32 373.53
  C 255.59 365.64 250.67 357.08 245.41 348.81
  Q 243.42 345.69 241.99 341.63
  A 1.31 1.31 0.0 0 0 239.99 341.00
  L 214.32 359.67
  Q 212.74 360.82 213.99 362.32
  Q 217.55 366.55 220.77 371.14
  C 225.81 378.32 231.16 385.18 236.47 392.08
  Q 238.85 395.18 242.54 395.42
  Q 259.81 396.51 275.10 397.48
  Q 284.78 398.10 296.68 398.18
  Q 299.04 398.20 296.82 397.40
  Q 294.06 396.40 292.22 394.49
  C 289.08 391.22 285.97 387.81 283.18 384.16
  Q 270.53 367.60 259.26 352.55
  Q 256.69 349.12 253.97 344.88
  Q 252.42 342.45 253.09 345.25
  C 253.89 348.60 255.91 351.34 257.58 354.34
  Q 261.38 361.18 264.96 367.86
  Q 266.16 370.11 266.25 371.74
  Q 266.44 375.45 267.01 376.49
  Q 269.43 380.96 270.47 385.21"
/>
<path stroke="#909191" vector-effect="non-scaling-stroke" d="
  M 417.61 423.27
  Q 430.74 417.61 439.48 411.88
  Q 444.97 408.28 450.32 404.57
  Q 465.19 394.26 476.07 381.67
  A 1.48 1.47 -47.8 0 0 475.98 379.65
  Q 460.14 364.48 446.17 351.66
  Q 441.62 347.48 435.84 343.98
  A 1.98 1.97 40.6 0 0 433.55 344.15
  Q 424.95 351.24 416.33 358.27
  Q 398.64 372.70 374.13 385.91
  Q 372.67 386.69 370.39 386.47
  Q 369.76 386.41 369.60 387.03
  Q 369.10 388.97 369.08 390.99
  Q 368.90 411.32 369.07 434.49
  A 0.63 0.63 0.0 0 0 369.73 435.12
  Q 376.40 434.77 383.51 434.65
  Q 387.86 434.58 392.36 433.03
  Q 405.64 428.43 417.61 423.27"
/>
<path stroke="#80807f" vector-effect="non-scaling-stroke" d="
  M 327.03 428.23
  Q 327.10 429.00 326.83 429.62
  Q 326.67 429.96 326.03 429.86"
/>
<path stroke="#909191" vector-effect="non-scaling-stroke" d="
  M 326.03 429.86
  Q 321.94 429.12 319.99 428.48
  Q 291.49 419.03 261.91 413.87
  C 258.51 413.27 254.84 413.25 251.20 412.80
  Q 249.44 412.58 250.65 413.87
  Q 260.02 423.85 270.82 434.12
  Q 271.22 434.50 271.77 434.50
  Q 296.09 434.55 320.05 434.85
  Q 327.00 434.93 336.90 434.36
  Q 345.31 433.86 353.75 433.75
  Q 355.19 433.73 354.65 432.18"
/>
<path stroke="#80807f" vector-effect="non-scaling-stroke" d="
  M 354.65 432.18
  L 355.01 426.94"
/>
<path stroke="#909191" vector-effect="non-scaling-stroke" d="
  M 355.01 426.94
  L 355.04 382.70
  Q 355.04 380.27 352.76 381.10
  Q 349.47 382.29 346.50 383.25
  C 345.21 383.66 344.81 384.90 343.51 385.26
  C 341.49 385.82 339.49 386.48 337.67 387.57
  Q 332.79 390.49 327.76 391.50
  A 1.05 1.05 0.0 0 0 326.92 392.54
  L 327.03 428.23"
/>
<path stroke="#ededec" vector-effect="non-scaling-stroke" d="
  M 355.01 426.94
  Q 342.86 426.34 337.00 427.37
  Q 332.54 428.16 328.05 428.79
  Q 327.68 428.84 327.47 428.67
  Q 327.26 428.51 327.03 428.23"
/>
<path stroke="#ededec" vector-effect="non-scaling-stroke" d="
  M 326.03 429.86
  Q 326.93 429.85 327.25 430.35
  C 328.21 431.80 330.26 432.75 331.76 432.78
  Q 337.00 432.86 342.16 432.69
  Q 343.60 432.65 347.20 431.84
  Q 350.95 430.99 354.65 432.18"
/>
</g>
<path fill="#232423" d="
  M 298.22 485.13
  Q 298.21 485.68 298.75 485.58
  C 300.12 485.32 301.42 486.16 302.82 486.43
  Q 306.06 487.05 308.85 487.51
  Q 309.73 487.66 308.84 487.66
  C 304.58 487.69 300.62 486.42 296.38 486.46
  Q 284.94 486.59 272.65 486.17
  Q 271.44 486.13 270.38 485.90
  Q 268.74 485.53 268.06 485.55
  Q 249.56 485.83 231.75 485.04
  Q 231.28 485.02 230.88 484.82
  Q 230.41 484.58 229.88 484.58
  Q 213.15 484.66 195.72 484.34
  Q 194.09 484.31 192.45 484.04
  Q 190.44 483.70 188.64 483.71
  Q 174.19 483.86 158.97 483.12
  C 158.10 483.08 157.66 482.59 156.81 482.60
  Q 143.16 482.69 128.80 482.23
  C 127.36 482.19 126.05 481.70 124.62 481.67
  Q 116.26 481.49 107.85 481.14
  Q 107.29 481.11 106.84 480.84
  Q 106.41 480.59 105.90 480.59
  Q 97.80 480.58 89.48 480.48
  Q 87.81 480.46 86.42 479.83
  Q 85.97 479.62 85.47 479.63
  Q 78.78 479.65 73.00 479.19
  Q 72.31 479.14 71.70 478.83
  Q 71.26 478.61 70.76 478.63
  Q 66.85 478.80 63.45 478.23
  Q 59.92 477.64 57.46 477.51
  C 54.73 477.37 52.06 476.88 49.41 476.79
  C 44.44 476.64 39.54 475.96 34.61 475.71
  C 26.66 475.30 18.80 474.73 10.77 475.64
  Q 10.22 475.71 9.89 475.27
  Q 8.34 473.24 7.49 470.77
  Q 3.39 458.90 1.77 446.03
  Q 1.16 441.25 0.39 436.91
  Q 0.30 436.39 0.82 436.40
  Q 38.18 436.63 72.63 436.59
  Q 78.62 436.58 86.27 437.39
  Q 90.69 437.87 87.41 434.81
  Q 86.03 433.52 85.76 430.74
  Q 85.17 424.50 85.33 418.17
  C 85.37 416.57 84.82 415.31 84.77 413.75
  Q 84.44 403.42 84.28 393.52
  Q 84.16 386.41 83.60 379.26
  Q 83.03 371.96 83.26 365.01
  C 83.28 364.41 82.89 363.98 82.86 363.33
  Q 82.31 351.78 82.28 342.28
  C 82.27 337.51 81.29 332.72 81.42 327.96
  Q 81.66 319.13 81.01 310.00
  Q 80.90 308.56 80.85 307.25
  Q 80.57 300.75 80.32 294.23
  Q 80.11 288.48 79.63 282.63
  Q 79.17 277.17 79.28 271.02
  C 79.30 269.60 78.80 268.38 78.73 267.00
  Q 78.41 260.18 78.37 252.56
  Q 78.34 245.86 77.66 238.82
  Q 77.10 232.91 77.39 224.49
  C 77.43 223.45 76.95 223.01 76.90 222.06
  Q 76.37 211.49 76.49 201.02
  A 1.34 1.30 -65.0 0 0 76.20 200.19
  Q 75.93 199.85 75.91 199.45
  Q 75.58 188.66 75.38 177.81
  C 75.36 176.38 74.88 175.24 74.82 173.82
  Q 74.38 163.59 74.35 153.01
  Q 74.34 151.11 73.93 149.12
  C 73.09 145.12 73.48 140.27 73.36 136.09
  Q 73.24 131.87 72.86 126.93
  Q 72.36 120.36 72.35 114.49
  Q 72.34 109.70 71.72 104.31
  Q 71.11 99.05 71.30 92.81
  C 71.39 89.74 70.63 86.67 70.41 83.56
  Q 68.82 61.40 69.34 38.86
  C 69.40 36.02 69.93 33.47 70.30 30.67
  Q 70.52 29.07 71.01 27.65
  Q 78.03 7.46 98.70 1.63
  Q 101.34 0.89 107.70 1.48
  Q 112.04 1.89 116.61 1.81
  Q 134.14 1.51 150.50 1.49
  Q 330.01 1.22 497.13 1.41
  Q 507.09 1.42 517.12 1.52
  Q 540.99 1.74 565.57 1.47
  Q 568.08 1.44 570.36 0.96
  Q 572.94 0.42 575.56 0.78
  C 581.35 1.58 586.78 4.35 591.58 7.35
  C 605.96 16.34 612.24 33.71 612.42 50.29
  Q 612.54 61.18 611.97 72.78
  Q 611.96 72.99 611.86 73.17
  Q 611.79 73.29 611.71 73.39
  Q 611.58 73.57 611.59 73.79
  Q 611.73 84.98 611.07 98.23
  Q 611.04 98.80 610.78 99.30
  A 2.09 2.01 -33.0 0 0 610.57 100.20
  Q 610.61 108.34 610.21 116.08
  Q 610.18 116.67 609.85 117.16
  A 1.76 1.72 62.7 0 0 609.55 118.14
  Q 609.57 130.07 609.13 141.76
  C 609.09 142.79 608.60 143.42 608.60 144.44
  Q 608.71 156.10 608.16 167.37
  C 608.14 167.68 608.01 168.05 607.86 168.32
  Q 607.76 168.48 607.76 168.67
  L 607.28 186.46
  Q 607.27 186.88 606.97 187.17
  Q 606.82 187.31 606.68 187.47
  Q 606.58 187.58 606.58 187.73
  Q 606.71 197.37 606.01 205.35
  C 605.96 206.01 605.63 206.44 605.64 207.09
  Q 605.72 216.01 605.14 224.92
  C 605.08 225.82 604.58 226.36 604.58 227.26
  Q 604.60 243.00 604.28 256.78
  Q 604.26 257.55 603.81 258.19
  Q 603.53 258.60 603.53 259.09
  Q 603.73 281.13 602.97 303.62
  Q 602.96 303.97 602.77 304.26
  Q 602.62 304.47 602.62 304.61
  Q 602.56 325.45 602.05 346.44
  Q 602.04 346.74 601.91 347.00
  Q 601.84 347.13 601.77 347.26
  Q 601.60 347.54 601.60 347.87
  Q 601.72 372.20 600.95 395.54
  Q 600.94 395.95 600.75 396.30
  Q 600.58 396.59 600.58 396.90
  Q 600.49 413.27 600.44 430.29
  Q 600.44 431.59 599.77 432.63
  Q 599.53 433.00 599.62 433.44
  Q 599.83 434.39 598.90 434.66
  Q 597.24 435.14 597.20 436.68
  Q 597.18 437.32 597.82 437.36
  C 599.39 437.45 600.72 436.83 602.13 436.75
  Q 607.07 436.47 612.02 436.45
  Q 648.16 436.33 677.18 436.40
  Q 677.71 436.40 677.63 436.93
  Q 677.16 440.25 677.09 443.42
  Q 677.09 443.74 676.93 444.00
  Q 676.85 444.13 676.77 444.26
  A 0.42 0.39 -28.8 0 0 676.69 444.50
  L 676.36 451.82
  Q 676.35 452.01 676.24 452.16
  Q 676.10 452.35 675.91 452.48
  Q 675.81 452.55 675.80 452.68
  Q 674.91 464.90 669.26 475.94
  Q 668.88 476.67 668.45 475.97
  Q 668.42 475.91 668.38 475.87
  Q 668.06 475.54 667.60 475.55
  Q 659.67 475.70 652.12 475.81
  C 651.21 475.82 650.25 476.21 649.25 476.25
  Q 640.98 476.61 632.75 477.58
  Q 630.72 477.82 625.40 477.68
  Q 624.92 477.67 624.48 477.87
  Q 623.98 478.10 623.43 478.15
  Q 619.72 478.50 616.12 478.63
  C 615.36 478.65 615.15 479.05 614.38 479.09
  Q 605.45 479.62 596.75 479.74
  Q 596.57 479.74 596.28 480.02
  Q 595.99 480.29 595.60 480.31
  L 580.91 480.87
  Q 580.68 480.88 580.49 481.03
  Q 580.35 481.15 580.24 481.15
  Q 571.56 481.53 563.88 481.58
  Q 559.28 481.62 554.69 481.90
  Q 541.26 482.74 528.00 482.87
  Q 527.20 482.88 526.35 482.93
  Q 512.41 483.82 497.38 483.67
  C 495.75 483.65 494.05 484.20 492.50 484.20
  Q 479.15 484.15 467.36 484.37
  Q 454.70 484.59 442.05 485.04
  Q 421.15 485.77 403.27 485.65
  C 401.82 485.64 400.59 486.09 399.17 486.15
  Q 392.59 486.43 385.58 486.58
  Q 382.91 486.64 380.52 486.44
  Q 377.95 486.22 375.58 486.60
  Q 375.36 486.64 375.33 486.43
  L 375.33 486.42
  Q 375.31 486.29 375.44 486.27
  C 378.12 485.69 380.55 484.84 382.83 483.27
  C 389.13 478.96 397.01 470.22 397.81 462.10
  A 1.74 1.73 2.5 0 0 396.05 460.19
  Q 384.75 460.35 373.73 460.05
  Q 362.88 459.75 353.57 459.76
  Q 324.89 459.77 296.75 459.72
  Q 293.94 459.72 290.93 459.95
  C 286.89 460.27 283.13 458.93 279.17 460.37
  Q 276.90 461.19 277.98 463.28
  Q 282.31 471.66 290.13 478.77
  C 292.81 481.21 295.80 482.44 298.48 484.76
  Q 298.72 484.98 298.40 484.97
  Q 298.23 484.96 298.22 485.13
  Z
  M 136.51 150.22
  Q 132.50 161.85 130.69 172.25
  Q 127.95 188.05 125.89 207.86
  C 124.86 217.80 124.51 228.11 125.60 237.74
  Q 127.17 251.69 131.28 269.56
  Q 137.10 294.80 149.45 317.78
  C 152.07 322.66 155.10 326.90 157.99 331.50
  Q 161.04 336.34 165.16 341.34
  Q 180.14 359.51 198.39 372.88
  Q 201.29 375.01 200.03 371.64
  C 199.84 371.15 199.21 369.63 198.84 369.00
  Q 190.02 354.19 181.23 339.00
  Q 179.48 335.99 177.82 332.51
  C 175.13 326.91 172.16 321.62 169.62 315.95
  C 166.46 308.91 162.99 302.39 160.22 295.13
  C 157.10 286.96 153.61 278.97 151.10 270.62
  Q 143.56 245.54 144.09 220.82
  C 144.26 212.77 145.17 204.73 146.39 196.86
  C 149.89 174.17 158.67 151.17 172.22 132.02
  Q 181.44 118.98 189.01 110.21
  Q 202.33 94.76 220.57 81.06
  C 228.18 75.35 237.14 70.70 245.53 65.79
  Q 253.59 61.08 271.47 54.03
  Q 297.59 43.73 325.55 41.24
  C 348.82 39.93 372.67 41.58 394.96 48.78
  C 400.98 50.73 406.97 53.40 412.78 55.76
  C 429.77 62.67 445.30 72.56 461.55 84.97
  C 467.61 89.60 473.11 94.87 478.60 100.08
  Q 504.89 125.04 521.00 157.11
  C 523.66 162.42 525.70 167.68 528.05 173.01
  Q 530.61 178.80 532.53 185.21
  Q 539.75 209.26 542.42 234.12
  Q 543.06 247.20 543.00 255.74
  Q 542.76 288.18 531.91 319.94
  Q 531.27 321.83 532.72 323.23
  Q 534.17 324.63 535.87 325.86
  Q 549.08 335.41 560.18 343.51
  Q 561.20 344.25 562.01 345.28
  A 0.37 0.37 0.0 0 1 561.72 345.88
  Q 545.86 345.90 531.74 345.19
  Q 529.32 345.07 526.43 345.39
  A 2.07 2.07 0.0 0 0 524.78 346.58
  Q 505.26 389.62 468.57 417.22
  Q 466.84 418.52 465.69 420.26
  A 1.06 1.06 0.0 0 0 465.92 421.68
  C 471.42 426.04 476.00 430.82 480.65 435.68
  Q 481.13 436.18 481.82 436.17
  Q 526.90 435.32 576.24 435.59
  Q 577.57 435.59 579.14 435.41
  A 0.89 0.88 -3.4 0 0 579.91 434.55
  Q 580.30 405.19 580.88 373.49
  C 581.05 363.88 580.94 354.50 581.27 344.84
  C 581.61 334.68 581.51 323.90 581.75 314.39
  C 582.02 303.46 582.33 292.42 581.90 281.20
  Q 581.67 274.91 582.20 266.60
  Q 582.73 258.50 583.23 250.62
  Q 585.51 215.30 586.44 188.83
  C 586.74 180.41 587.50 172.04 587.74 163.52
  C 587.81 161.15 588.38 158.54 588.49 156.50
  Q 590.51 119.17 592.64 81.84
  Q 592.80 79.00 593.07 76.19
  C 593.50 71.52 593.41 66.89 593.80 62.13
  Q 594.45 54.32 594.33 46.27
  C 594.26 41.84 593.41 36.86 591.35 33.06
  C 588.53 27.87 581.00 20.67 573.93 20.58
  Q 545.92 20.22 510.29 20.50
  L 255.46 20.57
  Q 225.48 20.36 195.51 20.56
  Q 185.22 20.62 175.51 20.55
  Q 147.02 20.34 109.97 20.50
  Q 103.22 20.53 99.48 21.98
  Q 92.86 24.54 88.29 31.88
  Q 85.95 35.63 85.63 41.70
  C 85.29 48.25 85.52 54.58 86.21 61.06
  Q 86.65 65.17 86.78 69.92
  C 87.11 81.10 88.09 92.63 88.74 104.04
  Q 90.83 141.36 92.35 172.00
  Q 92.66 178.21 92.88 184.00
  Q 95.30 245.26 97.86 297.25
  C 97.97 299.39 98.28 301.48 98.26 303.59
  C 98.19 312.91 99.13 322.50 99.53 331.47
  Q 101.40 373.71 104.01 415.92
  C 104.40 422.13 103.96 428.43 105.49 434.69
  A 1.77 1.75 -7.2 0 0 107.23 436.03
  C 151.88 435.40 199.01 435.55 245.51 435.53
  A 0.29 0.29 0.0 0 0 245.71 435.04
  Q 234.49 423.75 223.30 413.04
  Q 221.76 411.57 220.18 409.74
  C 217.40 406.51 213.94 404.08 211.07 401.07
  Q 208.52 398.39 205.38 396.49
  C 201.40 394.07 197.86 390.94 193.86 388.30
  Q 186.73 383.61 179.86 378.73
  C 177.17 376.82 174.90 374.77 172.32 372.72
  Q 169.28 370.29 166.34 367.40
  Q 154.81 356.08 146.92 346.47
  Q 135.55 332.61 128.14 313.03
  Q 125.54 306.18 123.77 298.59
  Q 121.70 289.71 120.81 283.00
  Q 117.41 257.59 119.33 228.32
  C 119.74 222.08 119.77 216.27 120.71 210.05
  C 121.22 206.65 121.10 203.15 121.72 199.67
  Q 124.25 185.22 126.97 174.00
  Q 129.93 161.78 136.51 150.22
  Z
  M 326.95 123.23
  A 0.62 0.62 0.0 0 0 327.51 123.84
  L 353.61 126.24
  A 0.62 0.62 0.0 0 0 354.28 125.62
  L 354.65 58.13
  A 0.62 0.62 0.0 0 0 354.03 57.51
  L 327.20 57.48
  A 0.62 0.62 0.0 0 0 326.58 58.10
  L 326.95 123.23
  Z
  M 293.32 132.29
  C 299.57 129.83 305.25 127.14 311.90 126.02
  Q 312.43 125.93 312.48 125.40
  Q 312.87 121.03 312.87 116.60
  Q 312.90 97.10 312.43 79.20
  Q 312.20 70.46 311.34 61.91
  A 0.77 0.77 0.0 0 0 310.45 61.23
  Q 292.52 64.15 275.81 70.75
  Q 261.10 76.56 252.67 81.51
  Q 248.19 84.15 242.40 88.17
  Q 239.59 90.12 237.01 92.66
  A 0.71 0.70 -48.5 0 0 237.07 93.72
  C 252.26 105.63 265.47 119.96 279.10 133.67
  Q 280.96 135.55 283.33 137.27
  A 1.32 1.31 42.4 0 0 284.95 137.20
  Q 288.46 134.20 293.32 132.29
  Z
  M 438.15 89.74
  C 417.56 75.52 395.63 65.85 371.10 61.60
  A 0.79 0.79 0.0 0 0 370.17 62.34
  Q 368.37 96.37 368.48 130.25
  A 0.94 0.94 0.0 0 0 369.00 131.09
  L 377.57 135.40
  Q 378.12 135.67 378.60 135.29
  C 400.86 117.60 417.81 104.74 438.53 91.41
  A 0.75 0.74 -32.6 0 0 438.76 90.40
  Q 438.52 90.00 438.15 89.74
  Z
  M 484.00 156.44
  Q 489.63 154.35 495.51 151.66
  Q 497.17 150.90 496.34 149.27
  Q 495.12 146.86 493.53 144.51
  Q 488.30 136.75 483.25 130.12
  Q 476.84 121.71 461.84 106.75
  Q 460.10 105.01 457.45 103.63
  Q 456.92 103.35 456.40 103.65
  C 451.19 106.67 445.51 110.31 439.76 112.01
  A 0.76 0.76 0.0 0 0 439.33 113.13
  Q 444.54 121.71 450.30 130.93
  Q 453.63 136.25 464.35 159.88
  Q 465.10 161.54 465.99 163.00
  A 1.49 1.49 0.0 0 0 467.94 163.55
  Q 476.11 159.36 484.00 156.44
  Z
  M 193.33 133.28
  Q 191.44 135.04 190.16 137.25
  C 189.48 138.43 188.67 139.21 187.48 139.61
  A 1.70 1.69 -11.6 0 0 186.31 141.37
  L 187.15 150.96
  L 190.24 163.94
  Q 194.04 178.40 199.58 192.25
  L 204.60 205.84
  A 0.33 0.33 0.0 0 0 205.07 206.02
  Q 205.46 205.81 205.68 205.43
  C 208.66 200.48 210.74 194.57 213.26 189.20
  C 220.89 172.98 228.06 158.82 237.69 142.72
  Q 242.74 134.27 247.85 127.56
  Q 248.63 126.54 247.77 125.58
  Q 240.30 117.24 228.76 106.95
  C 226.27 104.73 223.98 102.23 220.62 104.89
  Q 216.27 108.34 212.63 111.48
  C 209.88 113.85 207.55 116.74 204.67 119.17
  Q 201.49 121.86 193.33 133.28
  Z
  M 441.28 145.06
  Q 434.11 132.52 425.31 121.92
  A 1.66 1.66 0.0 0 0 423.08 121.62
  C 419.41 124.17 416.04 127.10 412.18 129.38
  Q 402.99 134.81 394.26 141.49
  C 393.80 141.84 392.95 142.29 392.36 142.39
  Q 391.64 142.51 392.07 143.11
  Q 395.68 148.09 399.61 152.58
  C 405.78 159.62 411.77 166.81 417.73 174.04
  Q 418.53 175.01 419.96 175.06
  Q 426.34 175.28 433.54 173.89
  Q 443.08 172.06 452.22 170.11
  A 0.84 0.84 0.0 0 0 452.85 169.01
  C 450.09 160.73 445.67 152.72 441.28 145.06
  Z
  M 249.28 174.50
  Q 255.31 162.74 263.18 152.84
  Q 265.76 149.60 269.12 146.65
  Q 270.17 145.74 269.21 144.72
  L 264.26 139.47
  Q 263.35 138.50 262.61 139.61
  Q 258.10 146.42 253.49 153.02
  C 249.82 158.27 246.85 163.98 243.30 169.28
  A 1.93 1.93 0.0 0 0 243.99 172.05
  L 248.82 174.64
  A 0.34 0.34 0.0 0 0 249.28 174.50
  Z
  M 393.70 290.42
  Q 401.82 285.74 408.19 278.84
  Q 412.00 274.71 415.90 269.99
  Q 423.77 260.47 426.52 247.95
  Q 429.54 234.21 428.90 219.85
  Q 428.46 210.18 425.05 200.00
  Q 421.49 189.39 417.48 181.44
  Q 416.41 179.30 413.94 177.76
  Q 413.30 177.36 413.61 178.05
  C 415.94 183.20 418.64 188.31 419.75 193.93
  Q 423.87 214.68 419.12 235.66
  Q 413.51 260.46 393.41 279.64
  C 387.89 284.91 381.37 288.91 374.58 292.36
  Q 358.77 300.38 340.02 298.17
  Q 330.11 297.00 317.14 290.78
  Q 313.90 289.23 310.83 286.98
  C 305.70 283.22 300.32 280.08 295.84 275.65
  Q 285.81 265.74 280.17 255.33
  Q 267.58 232.08 274.09 204.65
  Q 276.66 193.82 282.19 183.15
  C 284.02 179.61 286.56 176.52 288.69 173.12
  Q 290.79 169.75 293.67 166.53
  Q 302.85 156.26 314.55 149.65
  Q 314.85 149.48 314.50 149.52
  Q 299.35 151.50 285.24 158.81
  Q 280.54 161.25 277.45 164.14
  Q 272.28 168.98 266.30 175.03
  Q 265.13 176.21 264.35 177.64
  Q 261.85 182.21 259.58 186.88
  C 257.94 190.25 257.80 193.91 256.85 197.12
  Q 256.24 199.17 255.95 201.30
  C 254.13 214.79 253.64 229.51 257.04 242.69
  Q 263.50 267.71 283.99 285.02
  C 288.21 288.58 293.52 291.04 298.37 293.81
  C 306.83 298.64 317.89 303.04 327.98 303.81
  Q 332.76 304.18 337.33 304.50
  C 346.56 305.15 357.62 304.84 366.82 302.46
  Q 381.25 298.73 393.52 290.71
  Q 393.61 290.65 393.62 290.54
  Q 393.63 290.46 393.70 290.42
  Z
  M 168.78 251.98
  Q 169.69 260.14 170.11 268.20
  Q 170.59 277.73 171.00 281.26
  Q 171.72 287.51 172.88 294.24
  Q 173.20 296.09 174.05 297.70
  Q 177.32 303.91 180.75 309.40
  Q 180.90 309.64 181.17 309.74
  Q 181.63 309.90 181.77 310.37
  Q 182.26 311.86 183.43 313.39
  Q 187.15 323.36 193.66 332.58
  Q 198.19 339.00 203.23 345.02
  Q 205.74 348.03 208.96 345.96
  Q 218.94 339.54 231.03 329.22
  Q 232.17 328.25 232.75 326.96
  Q 232.97 326.47 232.78 325.96
  C 232.22 324.39 231.76 322.69 231.02 321.20
  C 220.85 300.68 212.65 281.56 206.70 261.59
  C 202.91 248.85 199.42 236.84 196.19 224.06
  Q 191.06 203.77 185.93 184.85
  C 183.32 175.21 179.92 165.64 178.27 155.97
  Q 177.84 153.49 176.64 155.69
  Q 173.90 160.73 171.87 166.89
  Q 167.20 181.06 165.56 194.45
  C 164.61 202.19 163.60 210.19 163.59 217.92
  Q 163.58 232.51 164.98 247.38
  A 2.01 2.00 14.0 0 0 165.88 248.87
  Q 167.86 250.16 168.78 251.98
  Z
  M 310.92 269.12
  Q 308.59 266.15 306.47 263.31
  Q 298.47 252.62 295.93 239.86
  Q 294.14 230.88 296.56 218.85
  C 297.56 213.87 298.87 208.39 301.08 203.69
  Q 305.33 194.61 309.41 188.09
  Q 313.45 181.64 322.43 171.59
  Q 324.67 169.08 326.84 167.51
  Q 329.43 165.64 331.57 163.73
  Q 335.87 159.91 330.49 161.95
  C 323.79 164.49 317.52 167.61 311.70 172.18
  C 292.33 187.38 282.98 213.81 288.63 237.90
  Q 289.49 241.54 290.52 245.11
  Q 295.24 261.53 308.32 273.05
  C 314.58 278.57 321.82 281.51 329.25 284.64
  Q 329.40 284.70 329.47 284.56
  L 329.48 284.55
  Q 329.53 284.44 329.43 284.38
  C 322.22 280.09 315.93 275.53 310.92 269.12
  Z
  M 480.13 176.75
  Q 476.49 178.31 473.05 180.33
  A 1.54 1.53 -5.2 0 0 472.38 181.13
  Q 471.66 183.16 472.36 185.52
  C 476.19 198.32 478.21 212.73 480.28 226.33
  C 480.74 229.35 484.53 229.55 486.19 227.46
  Q 487.58 225.72 488.59 223.93
  C 493.73 214.84 499.25 205.73 502.99 195.84
  Q 506.46 186.65 509.54 177.28
  Q 510.64 173.95 510.43 172.68
  C 509.77 168.64 506.92 169.41 503.91 169.79
  Q 493.21 171.14 480.13 176.75
  Z
  M 459.55 185.31
  C 452.88 187.13 445.66 189.41 438.79 191.69
  C 437.36 192.17 436.29 193.16 436.67 194.79
  Q 440.17 209.88 441.59 223.91
  A 0.75 0.75 0.0 0 0 442.22 224.57
  Q 455.11 226.63 468.24 227.80
  Q 468.66 227.83 468.66 227.41
  C 468.59 216.65 466.28 206.23 463.66 195.68
  Q 462.35 190.42 460.33 185.69
  Q 460.11 185.15 459.55 185.31
  Z
  M 214.71 231.67
  Q 216.94 235.94 219.32 240.59
  Q 219.84 241.59 220.65 242.41
  Q 221.02 242.78 221.54 242.75
  Q 224.18 242.58 227.24 241.82
  Q 235.92 239.68 242.96 237.15
  A 0.98 0.96 -3.5 0 0 243.58 236.46
  Q 244.00 234.75 243.94 233.14
  Q 243.22 212.58 245.01 194.42
  C 245.28 191.73 239.46 187.67 237.31 186.33
  A 1.13 1.12 -54.1 0 0 235.85 186.57
  Q 235.18 187.38 234.65 188.41
  Q 225.91 205.32 216.49 225.39
  Q 215.11 228.33 214.60 230.92
  A 1.22 1.19 37.4 0 0 214.71 231.67
  Z
  M 522.46 234.02
  C 520.74 228.11 520.11 222.14 518.32 216.39
  A 0.81 0.81 0.0 0 0 516.87 216.19
  Q 515.11 218.95 514.01 221.91
  Q 512.13 226.98 509.89 232.31
  A 1.18 1.17 16.9 0 0 510.75 233.91
  Q 515.87 234.90 521.68 235.03
  A 0.79 0.79 0.0 0 0 522.46 234.02
  Z
  M 457.38 269.86
  C 459.34 266.34 461.04 262.66 463.19 259.30
  Q 466.66 253.85 469.45 247.81
  A 0.73 0.72 -66.9 0 0 469.06 246.83
  Q 466.81 245.91 464.31 245.54
  Q 451.80 243.72 441.33 243.12
  A 1.07 1.06 7.0 0 0 440.21 243.99
  Q 439.30 248.88 439.13 254.46
  Q 438.84 264.35 437.88 272.51
  A 0.89 0.89 0.0 0 0 438.76 273.51
  L 454.21 273.50
  Q 454.71 273.50 455.04 273.14
  Q 456.35 271.70 457.38 269.86
  Z
  M 494.73 295.24
  Q 504.36 300.40 511.64 305.46
  Q 513.12 306.49 514.06 304.95
  Q 515.28 302.94 515.80 300.55
  C 519.10 285.43 521.77 271.82 522.05 257.31
  A 2.15 2.14 -81.8 0 0 520.48 255.20
  Q 511.24 252.66 501.25 251.05
  C 498.07 250.54 494.92 254.66 493.41 256.95
  Q 488.11 265.02 483.11 273.10
  Q 479.56 278.82 475.91 283.70
  A 0.83 0.83 0.0 0 0 476.16 284.92
  Q 486.08 290.62 494.73 295.24
  Z
  M 243.29 302.20
  C 244.67 305.05 245.95 308.01 247.49 310.71
  A 2.07 2.06 -26.4 0 0 250.09 311.58
  C 253.59 310.10 255.62 307.87 258.40 305.45
  Q 263.63 300.88 268.62 296.13
  Q 269.93 294.88 270.94 293.44
  Q 271.26 292.98 270.92 292.54
  C 270.02 291.37 269.21 290.06 268.18 289.01
  Q 256.08 276.66 248.72 262.98
  Q 246.89 259.57 245.54 255.78
  A 0.86 0.86 0.0 0 0 244.51 255.23
  Q 235.66 257.62 227.99 260.99
  A 1.37 1.37 0.0 0 0 227.24 262.67
  Q 233.83 282.70 243.29 302.20
  Z
  M 414.68 321.48
  C 418.81 319.80 422.79 317.46 426.08 314.59
  C 432.75 308.78 438.96 301.74 444.37 293.53
  Q 448.15 287.82 451.68 282.18
  A 0.76 0.76 0.0 0 0 451.09 281.02
  Q 448.67 280.88 446.01 280.28
  Q 435.08 277.79 426.11 276.34
  A 2.19 2.18 -62.8 0 0 424.19 276.96
  Q 418.62 282.57 412.36 287.62
  C 411.02 288.70 410.27 290.03 408.88 291.12
  C 404.14 294.84 399.74 298.77 394.74 302.17
  A 0.62 0.62 0.0 0 0 394.58 303.03
  C 398.93 309.46 405.62 315.43 411.32 320.44
  C 412.19 321.20 413.48 321.97 414.68 321.48
  Z
  M 291.04 303.63
  Q 289.31 302.71 287.43 302.44
  Q 286.95 302.37 286.55 302.63
  Q 284.75 303.82 283.20 305.26
  Q 273.21 314.56 263.02 325.22
  C 262.03 326.26 262.47 327.46 263.11 328.50
  Q 276.07 349.75 289.91 369.45
  C 291.35 371.50 292.39 373.10 295.23 371.80
  Q 302.40 368.54 308.74 366.34
  Q 311.01 365.55 313.03 364.19
  Q 313.65 363.78 313.66 363.04
  Q 313.94 341.79 313.81 321.02
  Q 313.79 317.39 313.65 313.65
  A 0.88 0.87 -82.6 0 0 313.03 312.84
  Q 301.74 309.37 291.04 303.63
  Z
  M 500.05 337.95
  Q 502.03 330.49 506.19 323.21
  Q 506.91 321.93 505.63 321.22
  C 496.14 315.91 486.72 309.60 476.15 305.14
  C 474.91 304.61 473.40 304.43 472.30 305.38
  Q 462.33 313.96 452.00 324.89
  Q 449.05 328.01 451.54 331.44
  Q 456.15 337.81 461.97 343.56
  Q 474.71 356.17 486.82 368.54
  Q 488.13 369.88 489.25 368.38
  C 490.40 366.84 491.77 365.58 492.85 363.98
  Q 499.26 354.50 506.29 344.48
  C 507.92 342.16 508.50 339.60 509.79 337.16
  A 2.14 2.14 0.0 0 0 508.39 334.08
  C 505.21 333.31 502.60 336.09 500.72 338.30
  Q 499.61 339.60 500.05 337.95
  Z
  M 395.95 332.14
  A 0.85 0.85 0.0 0 1 394.51 332.48
  Q 394.08 332.02 394.30 330.94
  Q 394.40 330.46 394.11 330.06
  C 392.92 328.48 391.71 327.10 390.97 325.23
  Q 388.01 317.72 384.48 309.93
  A 3.75 3.74 -22.4 0 0 379.77 307.97
  L 370.29 311.50
  Q 369.27 311.88 369.31 312.96
  Q 369.97 333.58 369.37 353.75
  A 1.80 1.80 0.0 0 1 368.36 355.32
  Q 364.47 357.24 360.79 359.58
  C 355.79 362.76 350.24 364.91 345.37 368.30
  Q 341.57 370.94 338.11 372.79
  Q 331.77 376.18 326.41 380.08
  A 1.23 1.23 0.0 0 0 326.10 381.73
  C 326.72 382.69 327.96 383.19 329.08 382.78
  Q 335.00 380.56 336.95 379.36
  Q 349.74 371.53 362.71 366.04
  C 364.41 365.32 366.22 364.87 368.00 364.43
  Q 369.65 364.03 369.56 365.73
  Q 369.23 371.99 369.04 378.25
  Q 368.98 380.54 369.65 382.73
  A 0.37 0.37 0.0 0 0 370.25 382.90
  Q 373.20 380.27 375.85 377.64
  Q 390.39 363.21 404.05 349.39
  Q 405.15 348.28 405.87 346.91
  A 1.32 1.31 -56.3 0 0 405.55 345.28
  C 402.66 342.87 398.30 340.13 396.46 336.89
  A 1.05 1.03 67.0 0 1 397.06 335.38
  C 400.93 334.23 405.88 333.01 408.84 330.29
  A 1.43 1.42 44.1 0 0 408.80 328.16
  Q 402.77 323.01 398.92 316.73
  Q 397.88 315.04 396.13 313.99
  Q 395.63 313.69 395.63 314.27
  Q 395.65 319.95 396.76 325.11
  Q 397.12 326.78 396.79 328.53
  Q 396.47 330.29 395.95 332.14
  Z
  M 327.59 369.13
  C 332.81 366.35 337.81 363.29 342.40 360.09
  C 346.21 357.44 350.39 355.12 354.28 352.42
  A 2.45 2.44 73.0 0 0 355.33 350.43
  Q 355.41 336.53 355.54 322.50
  Q 355.57 319.18 355.21 314.99
  Q 355.15 314.37 354.56 314.56
  Q 351.36 315.62 347.58 315.71
  Q 336.86 315.98 327.85 315.13
  A 0.48 0.48 0.0 0 0 327.32 315.61
  C 327.43 333.38 327.91 351.13 326.83 368.64
  A 0.52 0.51 77.5 0 0 327.59 369.13
  Z
  M 270.47 385.21
  Q 270.80 386.61 269.96 385.45
  Q 265.51 379.30 261.32 373.53
  C 255.59 365.64 250.67 357.08 245.41 348.81
  Q 243.42 345.69 241.99 341.63
  A 1.31 1.31 0.0 0 0 239.99 341.00
  L 214.32 359.67
  Q 212.74 360.82 213.99 362.32
  Q 217.55 366.55 220.77 371.14
  C 225.81 378.32 231.16 385.18 236.47 392.08
  Q 238.85 395.18 242.54 395.42
  Q 259.81 396.51 275.10 397.48
  Q 284.78 398.10 296.68 398.18
  Q 299.04 398.20 296.82 397.40
  Q 294.06 396.40 292.22 394.49
  C 289.08 391.22 285.97 387.81 283.18 384.16
  Q 270.53 367.60 259.26 352.55
  Q 256.69 349.12 253.97 344.88
  Q 252.42 342.45 253.09 345.25
  C 253.89 348.60 255.91 351.34 257.58 354.34
  Q 261.38 361.18 264.96 367.86
  Q 266.16 370.11 266.25 371.74
  Q 266.44 375.45 267.01 376.49
  Q 269.43 380.96 270.47 385.21
  Z
  M 417.61 423.27
  Q 430.74 417.61 439.48 411.88
  Q 444.97 408.28 450.32 404.57
  Q 465.19 394.26 476.07 381.67
  A 1.48 1.47 -47.8 0 0 475.98 379.65
  Q 460.14 364.48 446.17 351.66
  Q 441.62 347.48 435.84 343.98
  A 1.98 1.97 40.6 0 0 433.55 344.15
  Q 424.95 351.24 416.33 358.27
  Q 398.64 372.70 374.13 385.91
  Q 372.67 386.69 370.39 386.47
  Q 369.76 386.41 369.60 387.03
  Q 369.10 388.97 369.08 390.99
  Q 368.90 411.32 369.07 434.49
  A 0.63 0.63 0.0 0 0 369.73 435.12
  Q 376.40 434.77 383.51 434.65
  Q 387.86 434.58 392.36 433.03
  Q 405.64 428.43 417.61 423.27
  Z
  M 327.03 428.23
  Q 327.10 429.00 326.83 429.62
  Q 326.67 429.96 326.03 429.86
  Q 321.94 429.12 319.99 428.48
  Q 291.49 419.03 261.91 413.87
  C 258.51 413.27 254.84 413.25 251.20 412.80
  Q 249.44 412.58 250.65 413.87
  Q 260.02 423.85 270.82 434.12
  Q 271.22 434.50 271.77 434.50
  Q 296.09 434.55 320.05 434.85
  Q 327.00 434.93 336.90 434.36
  Q 345.31 433.86 353.75 433.75
  Q 355.19 433.73 354.65 432.18
  L 355.01 426.94
  L 355.04 382.70
  Q 355.04 380.27 352.76 381.10
  Q 349.47 382.29 346.50 383.25
  C 345.21 383.66 344.81 384.90 343.51 385.26
  C 341.49 385.82 339.49 386.48 337.67 387.57
  Q 332.79 390.49 327.76 391.50
  A 1.05 1.05 0.0 0 0 326.92 392.54
  L 327.03 428.23
  Z"
/>
<path fill="#dcdcda" d="
  M 255.46 20.57
  L 247.28 20.70
  Q 245.26 20.73 247.00 21.75
  L 248.29 22.52
  Q 248.61 22.71 248.69 23.07
  L 250.29 30.35
  Q 250.38 30.76 250.67 31.05
  Q 250.83 31.21 250.90 31.45
  Q 251.59 33.86 253.11 35.58
  Q 253.43 35.94 253.91 35.95
  Q 255.58 35.99 256.90 36.91
  A 1.30 1.26 60.4 0 0 257.69 37.14
  Q 258.72 37.09 259.72 37.36
  Q 260.35 37.53 260.81 37.99
  Q 261.36 38.53 262.13 38.39
  Q 262.73 38.29 263.17 38.71
  Q 263.94 39.47 263.62 40.28
  Q 263.43 40.77 262.93 40.61
  Q 262.70 40.54 262.48 40.66
  Q 262.10 40.88 262.49 41.07
  Q 262.85 41.25 262.99 41.65
  Q 245.65 46.14 229.24 53.38
  Q 223.12 56.08 218.44 58.80
  C 211.18 63.03 203.62 66.69 196.65 71.53
  C 186.01 78.94 176.49 87.49 167.09 97.00
  Q 161.71 102.44 157.41 108.98
  Q 152.82 115.95 148.25 123.82
  Q 146.33 127.13 144.78 130.38
  C 142.65 134.84 140.30 138.76 138.73 143.63
  Q 137.66 146.96 136.51 150.22
  Q 129.93 161.78 126.97 174.00
  Q 124.25 185.22 121.72 199.67
  C 121.10 203.15 121.22 206.65 120.71 210.05
  C 119.77 216.27 119.74 222.08 119.33 228.32
  Q 117.41 257.59 120.81 283.00
  Q 121.70 289.71 123.77 298.59
  Q 125.54 306.18 128.14 313.03
  Q 135.55 332.61 146.92 346.47
  Q 154.81 356.08 166.34 367.40
  Q 169.28 370.29 172.32 372.72
  C 174.90 374.77 177.17 376.82 179.86 378.73
  Q 186.73 383.61 193.86 388.30
  C 197.86 390.94 201.40 394.07 205.38 396.49
  Q 208.52 398.39 211.07 401.07
  C 213.94 404.08 217.40 406.51 220.18 409.74
  Q 221.76 411.57 223.30 413.04
  Q 234.49 423.75 245.71 435.04
  A 0.29 0.29 0.0 0 1 245.51 435.53
  C 199.01 435.55 151.88 435.40 107.23 436.03
  A 1.77 1.75 -7.2 0 1 105.49 434.69
  C 103.96 428.43 104.40 422.13 104.01 415.92
  Q 101.40 373.71 99.53 331.47
  C 99.13 322.50 98.19 312.91 98.26 303.59
  C 98.28 301.48 97.97 299.39 97.86 297.25
  Q 95.30 245.26 92.88 184.00
  Q 92.66 178.21 92.35 172.00
  Q 90.83 141.36 88.74 104.04
  C 88.09 92.63 87.11 81.10 86.78 69.92
  Q 86.65 65.17 86.21 61.06
  C 85.52 54.58 85.29 48.25 85.63 41.70
  Q 85.95 35.63 88.29 31.88
  Q 92.86 24.54 99.48 21.98
  Q 103.22 20.53 109.97 20.50
  Q 147.02 20.34 175.51 20.55
  Q 185.22 20.62 195.51 20.56
  Q 225.48 20.36 255.46 20.57
  Z"
/>
<path fill="#e8e8e7" d="
  M 510.29 20.50
  Q 511.95 21.26 509.95 21.34
  Q 509.39 21.36 509.60 21.88
  Q 510.11 23.13 508.94 23.91
  Q 508.54 24.17 508.52 24.65
  Q 508.44 26.69 509.08 28.98
  Q 509.20 29.44 509.55 29.76
  Q 510.25 30.40 510.43 31.40
  Q 511.08 35.01 511.90 38.41
  Q 512.00 38.82 512.36 39.03
  Q 513.10 39.47 513.48 40.36
  Q 513.50 40.42 513.48 40.49
  Q 513.46 40.56 513.39 40.56
  Q 513.08 40.54 513.27 40.78
  Q 513.79 41.43 513.64 42.31
  Q 513.55 42.84 513.82 43.31
  Q 516.21 47.49 518.46 51.85
  Q 519.06 53.01 519.22 54.23
  Q 519.39 55.52 519.65 56.86
  Q 519.79 57.62 520.22 58.27
  Q 520.67 58.98 520.39 59.78
  Q 520.24 60.21 520.33 60.65
  Q 520.64 62.19 520.48 63.97
  Q 520.44 64.50 520.84 64.85
  Q 521.50 65.42 521.26 66.15
  Q 521.01 66.93 521.71 66.54
  Q 521.86 66.46 522.03 66.38
  A 0.30 0.30 0.0 0 1 522.46 66.67
  Q 522.39 67.53 523.08 67.88
  Q 523.34 68.01 523.40 68.29
  Q 523.85 70.23 525.24 71.44
  Q 525.62 71.77 525.78 72.24
  Q 526.24 73.64 527.21 74.90
  Q 528.26 76.28 527.27 77.50
  Q 527.09 77.72 527.38 77.77
  Q 527.86 77.84 527.98 78.29
  Q 528.60 80.72 529.70 83.08
  Q 529.92 83.54 530.40 83.67
  Q 531.16 83.87 531.44 84.56
  C 531.90 85.68 532.33 86.17 533.29 87.16
  Q 533.63 87.51 533.66 88.00
  Q 533.70 88.53 533.46 89.00
  Q 533.24 89.42 533.65 89.67
  Q 534.50 90.18 534.35 91.15
  Q 534.29 91.48 534.57 91.29
  Q 534.75 91.17 534.90 91.34
  Q 535.05 91.51 534.96 91.72
  Q 534.90 91.88 534.84 92.05
  A 0.08 0.08 0.0 0 0 534.95 92.15
  Q 535.21 92.05 535.43 92.20
  Q 535.52 92.25 535.57 92.35
  Q 536.20 93.48 536.61 94.79
  Q 537.12 96.44 538.38 97.64
  Q 538.75 97.99 538.81 98.49
  Q 538.98 99.84 539.68 101.20
  Q 540.06 101.94 539.86 102.82
  Q 539.77 103.21 540.08 103.46
  Q 541.35 104.52 540.74 106.13
  Q 540.55 106.63 541.06 106.78
  Q 542.19 107.12 541.66 108.16
  Q 541.47 108.53 541.85 108.71
  Q 543.11 109.27 543.12 110.64
  Q 543.13 111.13 543.38 111.53
  Q 546.09 115.87 548.56 120.81
  Q 549.46 122.60 549.82 124.51
  Q 550.22 126.62 551.60 128.38
  A 1.86 1.82 23.7 0 1 551.99 129.35
  Q 552.41 133.34 552.80 137.57
  Q 552.91 138.79 553.41 139.85
  Q 554.13 141.40 553.55 142.94
  Q 553.51 143.02 553.60 143.05
  Q 553.73 143.09 553.83 143.18
  Q 554.15 143.43 554.17 143.84
  Q 554.54 149.55 553.75 155.42
  Q 553.69 155.81 553.85 156.18
  Q 553.99 156.48 553.85 156.78
  Q 552.83 158.95 552.88 161.15
  Q 552.90 162.37 552.73 163.56
  Q 552.55 164.79 552.39 166.11
  Q 552.16 167.92 552.67 169.67
  Q 553.33 171.98 552.73 174.36
  Q 552.60 174.85 552.77 175.33
  Q 553.98 178.82 552.97 182.54
  Q 552.87 182.90 553.02 183.25
  Q 553.21 183.70 552.81 183.97
  A 0.49 0.48 -31.4 0 0 552.65 184.61
  Q 553.11 185.44 552.72 186.25
  Q 552.53 186.64 552.80 186.99
  Q 553.34 187.69 553.47 188.50
  Q 553.98 191.61 553.74 195.49
  Q 553.72 195.79 553.88 196.06
  Q 554.14 196.49 554.07 196.98
  Q 553.75 199.01 553.27 201.02
  Q 552.86 202.74 554.07 204.14
  Q 554.35 204.46 554.10 204.80
  Q 552.63 206.75 552.01 209.13
  Q 551.88 209.60 551.54 209.96
  Q 549.87 211.67 550.60 213.54
  Q 550.97 214.49 550.86 215.64
  Q 550.72 217.01 550.48 218.34
  Q 550.39 218.83 550.70 219.22
  Q 551.76 220.59 550.67 222.01
  Q 550.38 222.38 550.55 222.83
  Q 550.70 223.26 550.57 223.68
  Q 549.75 226.28 549.20 228.99
  A 1.78 1.76 -47.4 0 0 549.23 229.84
  Q 549.58 231.07 548.60 231.97
  A 1.63 1.58 -14.6 0 0 548.13 232.74
  C 547.89 233.65 547.41 234.44 546.51 234.84
  Q 545.65 235.22 544.86 235.90
  A 0.91 0.90 34.2 0 1 543.98 236.06
  Q 542.95 235.70 542.42 234.12
  Q 539.75 209.26 532.53 185.21
  Q 530.61 178.80 528.05 173.01
  C 525.70 167.68 523.66 162.42 521.00 157.11
  Q 504.89 125.04 478.60 100.08
  C 473.11 94.87 467.61 89.60 461.55 84.97
  C 445.30 72.56 429.77 62.67 412.78 55.76
  C 406.97 53.40 400.98 50.73 394.96 48.78
  C 372.67 41.58 348.82 39.93 325.55 41.24
  Q 327.47 41.22 327.22 39.21
  Q 326.91 36.75 324.46 36.05
  Q 322.63 35.53 320.37 37.00
  A 0.96 0.96 0.0 0 1 319.29 36.97
  L 317.21 35.45
  Q 316.80 35.16 316.35 35.36
  L 313.82 36.47
  Q 313.38 36.66 313.02 36.34
  Q 310.92 34.47 308.75 34.40
  C 302.59 34.19 295.63 34.37 289.33 35.71
  Q 286.44 36.33 283.10 36.78
  C 276.45 37.67 269.67 39.97 262.99 41.65
  Q 262.85 41.25 262.49 41.07
  Q 262.10 40.88 262.48 40.66
  Q 262.70 40.54 262.93 40.61
  Q 263.43 40.77 263.62 40.28
  Q 263.94 39.47 263.17 38.71
  Q 262.73 38.29 262.13 38.39
  Q 261.36 38.53 260.81 37.99
  Q 260.35 37.53 259.72 37.36
  Q 258.72 37.09 257.69 37.14
  A 1.30 1.26 60.4 0 1 256.90 36.91
  Q 255.58 35.99 253.91 35.95
  Q 253.43 35.94 253.11 35.58
  Q 251.59 33.86 250.90 31.45
  Q 250.83 31.21 250.67 31.05
  Q 250.38 30.76 250.29 30.35
  L 248.69 23.07
  Q 248.61 22.71 248.29 22.52
  L 247.00 21.75
  Q 245.26 20.73 247.28 20.70
  L 255.46 20.57
  L 510.29 20.50
  Z"
/>
<path fill="#dcdcda" d="
  M 542.42 234.12
  Q 542.95 235.70 543.98 236.06
  A 0.91 0.90 34.2 0 0 544.86 235.90
  Q 545.65 235.22 546.51 234.84
  C 547.41 234.44 547.89 233.65 548.13 232.74
  A 1.63 1.58 -14.6 0 1 548.60 231.97
  Q 549.58 231.07 549.23 229.84
  A 1.78 1.76 -47.4 0 1 549.20 228.99
  Q 549.75 226.28 550.57 223.68
  Q 550.70 223.26 550.55 222.83
  Q 550.38 222.38 550.67 222.01
  Q 551.76 220.59 550.70 219.22
  Q 550.39 218.83 550.48 218.34
  Q 550.72 217.01 550.86 215.64
  Q 550.97 214.49 550.60 213.54
  Q 549.87 211.67 551.54 209.96
  Q 551.88 209.60 552.01 209.13
  Q 552.63 206.75 554.10 204.80
  Q 554.35 204.46 554.07 204.14
  Q 552.86 202.74 553.27 201.02
  Q 553.75 199.01 554.07 196.98
  Q 554.14 196.49 553.88 196.06
  Q 553.72 195.79 553.74 195.49
  Q 553.98 191.61 553.47 188.50
  Q 553.34 187.69 552.80 186.99
  Q 552.53 186.64 552.72 186.25
  Q 553.11 185.44 552.65 184.61
  A 0.49 0.48 -31.4 0 1 552.81 183.97
  Q 553.21 183.70 553.02 183.25
  Q 552.87 182.90 552.97 182.54
  Q 553.98 178.82 552.77 175.33
  Q 552.60 174.85 552.73 174.36
  Q 553.33 171.98 552.67 169.67
  Q 552.16 167.92 552.39 166.11
  Q 552.55 164.79 552.73 163.56
  Q 552.90 162.37 552.88 161.15
  Q 552.83 158.95 553.85 156.78
  Q 553.99 156.48 553.85 156.18
  Q 553.69 155.81 553.75 155.42
  Q 554.54 149.55 554.17 143.84
  Q 554.15 143.43 553.83 143.18
  Q 553.73 143.09 553.60 143.05
  Q 553.51 143.02 553.55 142.94
  Q 554.13 141.40 553.41 139.85
  Q 552.91 138.79 552.80 137.57
  Q 552.41 133.34 551.99 129.35
  A 1.86 1.82 23.7 0 0 551.60 128.38
  Q 550.22 126.62 549.82 124.51
  Q 549.46 122.60 548.56 120.81
  Q 546.09 115.87 543.38 111.53
  Q 543.13 111.13 543.12 110.64
  Q 543.11 109.27 541.85 108.71
  Q 541.47 108.53 541.66 108.16
  Q 542.19 107.12 541.06 106.78
  Q 540.55 106.63 540.74 106.13
  Q 541.35 104.52 540.08 103.46
  Q 539.77 103.21 539.86 102.82
  Q 540.06 101.94 539.68 101.20
  Q 538.98 99.84 538.81 98.49
  Q 538.75 97.99 538.38 97.64
  Q 537.12 96.44 536.61 94.79
  Q 536.20 93.48 535.57 92.35
  Q 535.52 92.25 535.43 92.20
  Q 535.21 92.05 534.95 92.15
  A 0.08 0.08 0.0 0 1 534.84 92.05
  Q 534.90 91.88 534.96 91.72
  Q 535.05 91.51 534.90 91.34
  Q 534.75 91.17 534.57 91.29
  Q 534.29 91.48 534.35 91.15
  Q 534.50 90.18 533.65 89.67
  Q 533.24 89.42 533.46 89.00
  Q 533.70 88.53 533.66 88.00
  Q 533.63 87.51 533.29 87.16
  C 532.33 86.17 531.90 85.68 531.44 84.56
  Q 531.16 83.87 530.40 83.67
  Q 529.92 83.54 529.70 83.08
  Q 528.60 80.72 527.98 78.29
  Q 527.86 77.84 527.38 77.77
  Q 527.09 77.72 527.27 77.50
  Q 528.26 76.28 527.21 74.90
  Q 526.24 73.64 525.78 72.24
  Q 525.62 71.77 525.24 71.44
  Q 523.85 70.23 523.40 68.29
  Q 523.34 68.01 523.08 67.88
  Q 522.39 67.53 522.46 66.67
  A 0.30 0.30 0.0 0 0 522.03 66.38
  Q 521.86 66.46 521.71 66.54
  Q 521.01 66.93 521.26 66.15
  Q 521.50 65.42 520.84 64.85
  Q 520.44 64.50 520.48 63.97
  Q 520.64 62.19 520.33 60.65
  Q 520.24 60.21 520.39 59.78
  Q 520.67 58.98 520.22 58.27
  Q 519.79 57.62 519.65 56.86
  Q 519.39 55.52 519.22 54.23
  Q 519.06 53.01 518.46 51.85
  Q 516.21 47.49 513.82 43.31
  Q 513.55 42.84 513.64 42.31
  Q 513.79 41.43 513.27 40.78
  Q 513.08 40.54 513.39 40.56
  Q 513.46 40.56 513.48 40.49
  Q 513.50 40.42 513.48 40.36
  Q 513.10 39.47 512.36 39.03
  Q 512.00 38.82 511.90 38.41
  Q 511.08 35.01 510.43 31.40
  Q 510.25 30.40 509.55 29.76
  Q 509.20 29.44 509.08 28.98
  Q 508.44 26.69 508.52 24.65
  Q 508.54 24.17 508.94 23.91
  Q 510.11 23.13 509.60 21.88
  Q 509.39 21.36 509.95 21.34
  Q 511.95 21.26 510.29 20.50
  Q 545.92 20.22 573.93 20.58
  C 581.00 20.67 588.53 27.87 591.35 33.06
  C 593.41 36.86 594.26 41.84 594.33 46.27
  Q 594.45 54.32 593.80 62.13
  C 593.41 66.89 593.50 71.52 593.07 76.19
  Q 592.80 79.00 592.64 81.84
  Q 590.51 119.17 588.49 156.50
  C 588.38 158.54 587.81 161.15 587.74 163.52
  C 587.50 172.04 586.74 180.41 586.44 188.83
  Q 585.51 215.30 583.23 250.62
  Q 582.73 258.50 582.20 266.60
  Q 581.67 274.91 581.90 281.20
  C 582.33 292.42 582.02 303.46 581.75 314.39
  C 581.51 323.90 581.61 334.68 581.27 344.84
  C 580.94 354.50 581.05 363.88 580.88 373.49
  Q 580.30 405.19 579.91 434.55
  A 0.89 0.88 -3.4 0 1 579.14 435.41
  Q 577.57 435.59 576.24 435.59
  Q 526.90 435.32 481.82 436.17
  Q 481.13 436.18 480.65 435.68
  C 476.00 430.82 471.42 426.04 465.92 421.68
  A 1.06 1.06 0.0 0 1 465.69 420.26
  Q 466.84 418.52 468.57 417.22
  Q 505.26 389.62 524.78 346.58
  A 2.07 2.07 0.0 0 1 526.43 345.39
  Q 529.32 345.07 531.74 345.19
  Q 545.86 345.90 561.72 345.88
  A 0.37 0.37 0.0 0 0 562.01 345.28
  Q 561.20 344.25 560.18 343.51
  Q 549.08 335.41 535.87 325.86
  Q 534.17 324.63 532.72 323.23
  Q 531.27 321.83 531.91 319.94
  Q 542.76 288.18 543.00 255.74
  Q 543.06 247.20 542.42 234.12
  Z"
/>
<path fill="#fdfefe" d="
  M 325.55 41.24
  Q 297.59 43.73 271.47 54.03
  Q 253.59 61.08 245.53 65.79
  C 237.14 70.70 228.18 75.35 220.57 81.06
  Q 202.33 94.76 189.01 110.21
  Q 181.44 118.98 172.22 132.02
  C 158.67 151.17 149.89 174.17 146.39 196.86
  C 145.17 204.73 144.26 212.77 144.09 220.82
  Q 143.56 245.54 151.10 270.62
  C 153.61 278.97 157.10 286.96 160.22 295.13
  C 162.99 302.39 166.46 308.91 169.62 315.95
  C 172.16 321.62 175.13 326.91 177.82 332.51
  Q 179.48 335.99 181.23 339.00
  Q 190.02 354.19 198.84 369.00
  C 199.21 369.63 199.84 371.15 200.03 371.64
  Q 201.29 375.01 198.39 372.88
  Q 180.14 359.51 165.16 341.34
  Q 161.04 336.34 157.99 331.50
  C 155.10 326.90 152.07 322.66 149.45 317.78
  Q 137.10 294.80 131.28 269.56
  Q 127.17 251.69 125.60 237.74
  C 124.51 228.11 124.86 217.80 125.89 207.86
  Q 127.95 188.05 130.69 172.25
  Q 132.50 161.85 136.51 150.22
  Q 137.66 146.96 138.73 143.63
  C 140.30 138.76 142.65 134.84 144.78 130.38
  Q 146.33 127.13 148.25 123.82
  Q 152.82 115.95 157.41 108.98
  Q 161.71 102.44 167.09 97.00
  C 176.49 87.49 186.01 78.94 196.65 71.53
  C 203.62 66.69 211.18 63.03 218.44 58.80
  Q 223.12 56.08 229.24 53.38
  Q 245.65 46.14 262.99 41.65
  C 269.67 39.97 276.45 37.67 283.10 36.78
  Q 286.44 36.33 289.33 35.71
  C 295.63 34.37 302.59 34.19 308.75 34.40
  Q 310.92 34.47 313.02 36.34
  Q 313.38 36.66 313.82 36.47
  L 316.35 35.36
  Q 316.80 35.16 317.21 35.45
  L 319.29 36.97
  A 0.96 0.96 0.0 0 0 320.37 37.00
  Q 322.63 35.53 324.46 36.05
  Q 326.91 36.75 327.22 39.21
  Q 327.47 41.22 325.55 41.24
  Z"
/>
<path fill="#fdfefe" d="
  M 326.95 123.23
  L 326.58 58.10
  A 0.62 0.62 0.0 0 1 327.20 57.48
  L 354.03 57.51
  A 0.62 0.62 0.0 0 1 354.65 58.13
  L 354.28 125.62
  A 0.62 0.62 0.0 0 1 353.61 126.24
  L 327.51 123.84
  A 0.62 0.62 0.0 0 1 326.95 123.23
  Z"
/>
<path fill="#fdfefe" d="
  M 293.32 132.29
  Q 288.46 134.20 284.95 137.20
  A 1.32 1.31 42.4 0 1 283.33 137.27
  Q 280.96 135.55 279.10 133.67
  C 265.47 119.96 252.26 105.63 237.07 93.72
  A 0.71 0.70 -48.5 0 1 237.01 92.66
  Q 239.59 90.12 242.40 88.17
  Q 248.19 84.15 252.67 81.51
  Q 261.10 76.56 275.81 70.75
  Q 292.52 64.15 310.45 61.23
  A 0.77 0.77 0.0 0 1 311.34 61.91
  Q 312.20 70.46 312.43 79.20
  Q 312.90 97.10 312.87 116.60
  Q 312.87 121.03 312.48 125.40
  Q 312.43 125.93 311.90 126.02
  C 305.25 127.14 299.57 129.83 293.32 132.29
  Z"
/>
<path fill="#fdfefe" d="
  M 371.10 61.60
  C 395.63 65.85 417.56 75.52 438.15 89.74
  Q 438.52 90.00 438.76 90.40
  A 0.75 0.74 -32.6 0 1 438.53 91.41
  C 417.81 104.74 400.86 117.60 378.60 135.29
  Q 378.12 135.67 377.57 135.40
  L 369.00 131.09
  A 0.94 0.94 0.0 0 1 368.48 130.25
  Q 368.37 96.37 370.17 62.34
  A 0.79 0.79 0.0 0 1 371.10 61.60
  Z"
/>
<path fill="#fdfefe" d="
  M 484.00 156.44
  Q 476.11 159.36 467.94 163.55
  A 1.49 1.49 0.0 0 1 465.99 163.00
  Q 465.10 161.54 464.35 159.88
  Q 453.63 136.25 450.30 130.93
  Q 444.54 121.71 439.33 113.13
  A 0.76 0.76 0.0 0 1 439.76 112.01
  C 445.51 110.31 451.19 106.67 456.40 103.65
  Q 456.92 103.35 457.45 103.63
  Q 460.10 105.01 461.84 106.75
  Q 476.84 121.71 483.25 130.12
  Q 488.30 136.75 493.53 144.51
  Q 495.12 146.86 496.34 149.27
  Q 497.17 150.90 495.51 151.66
  Q 489.63 154.35 484.00 156.44
  Z"
/>
<path fill="#fdfefe" d="
  M 199.58 192.25
  Q 199.73 187.87 198.52 183.80
  Q 198.12 182.46 198.15 181.18
  Q 198.18 179.67 197.95 178.26
  Q 196.78 171.37 195.76 164.49
  Q 195.40 162.02 195.29 159.42
  Q 195.16 156.12 194.12 152.22
  Q 193.72 150.71 193.08 149.30
  Q 192.32 147.64 192.14 145.90
  Q 192.12 145.70 192.02 145.52
  L 191.64 144.81
  Q 191.42 144.41 191.38 143.97
  Q 190.87 138.38 193.33 133.28
  Q 201.49 121.86 204.67 119.17
  C 207.55 116.74 209.88 113.85 212.63 111.48
  Q 216.27 108.34 220.62 104.89
  C 223.98 102.23 226.27 104.73 228.76 106.95
  Q 240.30 117.24 247.77 125.58
  Q 248.63 126.54 247.85 127.56
  Q 242.74 134.27 237.69 142.72
  C 228.06 158.82 220.89 172.98 213.26 189.20
  C 210.74 194.57 208.66 200.48 205.68 205.43
  Q 205.46 205.81 205.07 206.02
  A 0.33 0.33 0.0 0 1 204.60 205.84
  L 199.58 192.25
  Z"
/>
<path fill="#fdfefe" d="
  M 441.28 145.06
  C 445.67 152.72 450.09 160.73 452.85 169.01
  A 0.84 0.84 0.0 0 1 452.22 170.11
  Q 443.08 172.06 433.54 173.89
  Q 426.34 175.28 419.96 175.06
  Q 418.53 175.01 417.73 174.04
  C 411.77 166.81 405.78 159.62 399.61 152.58
  Q 395.68 148.09 392.07 143.11
  Q 391.64 142.51 392.36 142.39
  C 392.95 142.29 393.80 141.84 394.26 141.49
  Q 402.99 134.81 412.18 129.38
  C 416.04 127.10 419.41 124.17 423.08 121.62
  A 1.66 1.66 0.0 0 1 425.31 121.92
  Q 434.11 132.52 441.28 145.06
  Z"
/>
<path fill="#9b9b98" d="
  M 193.33 133.28
  Q 190.87 138.38 191.38 143.97
  Q 191.42 144.41 191.64 144.81
  L 192.02 145.52
  Q 192.12 145.70 192.14 145.90
  Q 192.32 147.64 193.08 149.30
  Q 193.72 150.71 194.12 152.22
  Q 195.16 156.12 195.29 159.42
  Q 195.40 162.02 195.76 164.49
  Q 196.78 171.37 197.95 178.26
  Q 198.18 179.67 198.15 181.18
  Q 198.12 182.46 198.52 183.80
  Q 199.73 187.87 199.58 192.25
  Q 194.04 178.40 190.24 163.94
  Q 190.96 164.23 191.31 164.09
  Q 191.63 163.95 191.49 163.32
  Q 190.11 157.26 188.59 151.30
  A 0.91 0.91 0.0 0 0 187.81 150.63
  Q 187.23 150.57 187.15 150.96
  L 186.31 141.37
  A 1.70 1.69 -11.6 0 1 187.48 139.61
  C 188.67 139.21 189.48 138.43 190.16 137.25
  Q 191.44 135.04 193.33 133.28
  Z"
/>
<path fill="#fdfefe" d="
  M 249.28 174.50
  A 0.34 0.34 0.0 0 1 248.82 174.64
  L 243.99 172.05
  A 1.93 1.93 0.0 0 1 243.30 169.28
  C 246.85 163.98 249.82 158.27 253.49 153.02
  Q 258.10 146.42 262.61 139.61
  Q 263.35 138.50 264.26 139.47
  L 269.21 144.72
  Q 270.17 145.74 269.12 146.65
  Q 265.76 149.60 263.18 152.84
  Q 255.31 162.74 249.28 174.50
  Z"
/>
<path fill="#fdfefe" d="
  M 393.62 290.54
  Q 393.61 290.65 393.52 290.71
  Q 381.25 298.73 366.82 302.46
  C 357.62 304.84 346.56 305.15 337.33 304.50
  Q 332.76 304.18 327.98 303.81
  C 317.89 303.04 306.83 298.64 298.37 293.81
  C 293.52 291.04 288.21 288.58 283.99 285.02
  Q 263.50 267.71 257.04 242.69
  C 253.64 229.51 254.13 214.79 255.95 201.30
  Q 256.24 199.17 256.85 197.12
  C 257.80 193.91 257.94 190.25 259.58 186.88
  Q 261.85 182.21 264.35 177.64
  Q 265.13 176.21 266.30 175.03
  Q 272.28 168.98 277.45 164.14
  Q 280.54 161.25 285.24 158.81
  Q 299.35 151.50 314.50 149.52
  Q 314.85 149.48 314.55 149.65
  Q 302.85 156.26 293.67 166.53
  Q 290.79 169.75 288.69 173.12
  C 286.56 176.52 284.02 179.61 282.19 183.15
  Q 276.66 193.82 274.09 204.65
  Q 267.58 232.08 280.17 255.33
  Q 285.81 265.74 295.84 275.65
  C 300.32 280.08 305.70 283.22 310.83 286.98
  Q 313.90 289.23 317.14 290.78
  Q 330.11 297.00 340.02 298.17
  Q 358.77 300.38 374.58 292.36
  C 381.37 288.91 387.89 284.91 393.41 279.64
  Q 413.51 260.46 419.12 235.66
  Q 423.87 214.68 419.75 193.93
  C 418.64 188.31 415.94 183.20 413.61 178.05
  Q 413.30 177.36 413.94 177.76
  Q 416.41 179.30 417.48 181.44
  Q 421.49 189.39 425.05 200.00
  Q 428.46 210.18 428.90 219.85
  Q 429.54 234.21 426.52 247.95
  Q 423.77 260.47 415.90 269.99
  Q 412.00 274.71 408.19 278.84
  Q 401.82 285.74 393.70 290.42
  Q 393.63 290.46 393.62 290.54
  Z"
/>
<path fill="#dcdcda" d="
  M 190.24 163.94
  L 187.15 150.96
  Q 187.23 150.57 187.81 150.63
  A 0.91 0.91 0.0 0 1 188.59 151.30
  Q 190.11 157.26 191.49 163.32
  Q 191.63 163.95 191.31 164.09
  Q 190.96 164.23 190.24 163.94
  Z"
/>
<path fill="#fdfefe" d="
  M 183.43 313.39
  Q 182.03 304.41 181.68 295.87
  C 181.63 294.54 180.97 293.45 180.88 292.14
  C 180.41 284.99 179.05 277.83 179.14 270.77
  Q 179.22 264.41 178.13 257.08
  C 177.76 254.54 171.61 252.64 168.78 251.98
  Q 167.86 250.16 165.88 248.87
  A 2.01 2.00 14.0 0 1 164.98 247.38
  Q 163.58 232.51 163.59 217.92
  C 163.60 210.19 164.61 202.19 165.56 194.45
  Q 167.20 181.06 171.87 166.89
  Q 173.90 160.73 176.64 155.69
  Q 177.84 153.49 178.27 155.97
  C 179.92 165.64 183.32 175.21 185.93 184.85
  Q 191.06 203.77 196.19 224.06
  C 199.42 236.84 202.91 248.85 206.70 261.59
  C 212.65 281.56 220.85 300.68 231.02 321.20
  C 231.76 322.69 232.22 324.39 232.78 325.96
  Q 232.97 326.47 232.75 326.96
  Q 232.17 328.25 231.03 329.22
  Q 218.94 339.54 208.96 345.96
  Q 205.74 348.03 203.23 345.02
  Q 198.19 339.00 193.66 332.58
  Q 187.15 323.36 183.43 313.39
  Z"
/>
<path fill="#e8e8e7" d="
  M 310.92 269.12
  C 315.93 275.53 322.22 280.09 329.43 284.38
  Q 329.53 284.44 329.48 284.55
  L 329.47 284.56
  Q 329.40 284.70 329.25 284.64
  C 321.82 281.51 314.58 278.57 308.32 273.05
  Q 295.24 261.53 290.52 245.11
  Q 289.49 241.54 288.63 237.90
  C 282.98 213.81 292.33 187.38 311.70 172.18
  C 317.52 167.61 323.79 164.49 330.49 161.95
  Q 335.87 159.91 331.57 163.73
  Q 329.43 165.64 326.84 167.51
  Q 324.67 169.08 322.43 171.59
  Q 313.45 181.64 309.41 188.09
  Q 305.33 194.61 301.08 203.69
  C 298.87 208.39 297.56 213.87 296.56 218.85
  Q 294.14 230.88 295.93 239.86
  Q 298.47 252.62 306.47 263.31
  Q 308.59 266.15 310.92 269.12
  Z"
/>
<path fill="#fdfefe" d="
  M 480.13 176.75
  Q 493.21 171.14 503.91 169.79
  C 506.92 169.41 509.77 168.64 510.43 172.68
  Q 510.64 173.95 509.54 177.28
  Q 506.46 186.65 502.99 195.84
  C 499.25 205.73 493.73 214.84 488.59 223.93
  Q 487.58 225.72 486.19 227.46
  C 484.53 229.55 480.74 229.35 480.28 226.33
  C 478.21 212.73 476.19 198.32 472.36 185.52
  Q 471.66 183.16 472.38 181.13
  A 1.54 1.53 -5.2 0 1 473.05 180.33
  Q 476.49 178.31 480.13 176.75
  Z"
/>
<path fill="#fdfefe" d="
  M 438.79 191.69
  C 445.66 189.41 452.88 187.13 459.55 185.31
  Q 460.11 185.15 460.33 185.69
  Q 462.35 190.42 463.66 195.68
  C 466.28 206.23 468.59 216.65 468.66 227.41
  Q 468.66 227.83 468.24 227.80
  Q 455.11 226.63 442.22 224.57
  A 0.75 0.75 0.0 0 1 441.59 223.91
  Q 440.17 209.88 436.67 194.79
  C 436.29 193.16 437.36 192.17 438.79 191.69
  Z"
/>
<path fill="#fdfefe" d="
  M 214.71 231.67
  A 1.22 1.19 37.4 0 1 214.60 230.92
  Q 215.11 228.33 216.49 225.39
  Q 225.91 205.32 234.65 188.41
  Q 235.18 187.38 235.85 186.57
  A 1.13 1.12 -54.1 0 1 237.31 186.33
  C 239.46 187.67 245.28 191.73 245.01 194.42
  Q 243.22 212.58 243.94 233.14
  Q 244.00 234.75 243.58 236.46
  A 0.98 0.96 -3.5 0 1 242.96 237.15
  Q 235.92 239.68 227.24 241.82
  Q 224.18 242.58 221.54 242.75
  Q 221.02 242.78 220.65 242.41
  Q 219.84 241.59 219.32 240.59
  Q 216.94 235.94 214.71 231.67
  Z"
/>
<path fill="#fdfefe" d="
  M 522.46 234.02
  A 0.79 0.79 0.0 0 1 521.68 235.03
  Q 515.87 234.90 510.75 233.91
  A 1.18 1.17 16.9 0 1 509.89 232.31
  Q 512.13 226.98 514.01 221.91
  Q 515.11 218.95 516.87 216.19
  A 0.81 0.81 0.0 0 1 518.32 216.39
  C 520.11 222.14 520.74 228.11 522.46 234.02
  Z"
/>
<path fill="#fdfefe" d="
  M 457.38 269.86
  Q 456.35 271.70 455.04 273.14
  Q 454.71 273.50 454.21 273.50
  L 438.76 273.51
  A 0.89 0.89 0.0 0 1 437.88 272.51
  Q 438.84 264.35 439.13 254.46
  Q 439.30 248.88 440.21 243.99
  A 1.07 1.06 7.0 0 1 441.33 243.12
  Q 451.80 243.72 464.31 245.54
  Q 466.81 245.91 469.06 246.83
  A 0.73 0.72 -66.9 0 1 469.45 247.81
  Q 466.66 253.85 463.19 259.30
  C 461.04 262.66 459.34 266.34 457.38 269.86
  Z"
/>
<path fill="#fdfefe" d="
  M 494.73 295.24
  Q 486.08 290.62 476.16 284.92
  A 0.83 0.83 0.0 0 1 475.91 283.70
  Q 479.56 278.82 483.11 273.10
  Q 488.11 265.02 493.41 256.95
  C 494.92 254.66 498.07 250.54 501.25 251.05
  Q 511.24 252.66 520.48 255.20
  A 2.15 2.14 -81.8 0 1 522.05 257.31
  C 521.77 271.82 519.10 285.43 515.80 300.55
  Q 515.28 302.94 514.06 304.95
  Q 513.12 306.49 511.64 305.46
  Q 504.36 300.40 494.73 295.24
  Z"
/>
<path fill="#9b9b98" d="
  M 168.78 251.98
  C 171.61 252.64 177.76 254.54 178.13 257.08
  Q 179.22 264.41 179.14 270.77
  C 179.05 277.83 180.41 284.99 180.88 292.14
  C 180.97 293.45 181.63 294.54 181.68 295.87
  Q 182.03 304.41 183.43 313.39
  Q 182.26 311.86 181.77 310.37
  Q 181.63 309.90 181.17 309.74
  Q 180.90 309.64 180.75 309.40
  Q 177.32 303.91 174.05 297.70
  Q 173.20 296.09 172.88 294.24
  Q 171.72 287.51 171.00 281.26
  Q 170.59 277.73 170.11 268.20
  Q 169.69 260.14 168.78 251.98
  Z"
/>
<path fill="#fdfefe" d="
  M 243.29 302.20
  Q 233.83 282.70 227.24 262.67
  A 1.37 1.37 0.0 0 1 227.99 260.99
  Q 235.66 257.62 244.51 255.23
  A 0.86 0.86 0.0 0 1 245.54 255.78
  Q 246.89 259.57 248.72 262.98
  Q 256.08 276.66 268.18 289.01
  C 269.21 290.06 270.02 291.37 270.92 292.54
  Q 271.26 292.98 270.94 293.44
  Q 269.93 294.88 268.62 296.13
  Q 263.63 300.88 258.40 305.45
  C 255.62 307.87 253.59 310.10 250.09 311.58
  A 2.07 2.06 -26.4 0 1 247.49 310.71
  C 245.95 308.01 244.67 305.05 243.29 302.20
  Z"
/>
<path fill="#fdfefe" d="
  M 426.08 314.59
  C 422.79 317.46 418.81 319.80 414.68 321.48
  C 413.48 321.97 412.19 321.20 411.32 320.44
  C 405.62 315.43 398.93 309.46 394.58 303.03
  A 0.62 0.62 0.0 0 1 394.74 302.17
  C 399.74 298.77 404.14 294.84 408.88 291.12
  C 410.27 290.03 411.02 288.70 412.36 287.62
  Q 418.62 282.57 424.19 276.96
  A 2.19 2.18 -62.8 0 1 426.11 276.34
  Q 435.08 277.79 446.01 280.28
  Q 448.67 280.88 451.09 281.02
  A 0.76 0.76 0.0 0 1 451.68 282.18
  Q 448.15 287.82 444.37 293.53
  C 438.96 301.74 432.75 308.78 426.08 314.59
  Z"
/>
<path fill="#fdfefe" d="
  M 291.04 303.63
  Q 301.74 309.37 313.03 312.84
  A 0.88 0.87 -82.6 0 1 313.65 313.65
  Q 313.79 317.39 313.81 321.02
  Q 313.94 341.79 313.66 363.04
  Q 313.65 363.78 313.03 364.19
  Q 311.01 365.55 308.74 366.34
  Q 302.40 368.54 295.23 371.80
  C 292.39 373.10 291.35 371.50 289.91 369.45
  Q 276.07 349.75 263.11 328.50
  C 262.47 327.46 262.03 326.26 263.02 325.22
  Q 273.21 314.56 283.20 305.26
  Q 284.75 303.82 286.55 302.63
  Q 286.95 302.37 287.43 302.44
  Q 289.31 302.71 291.04 303.63
  Z"
/>
<path fill="#fdfefe" d="
  M 500.05 337.95
  Q 499.61 339.60 500.72 338.30
  C 502.60 336.09 505.21 333.31 508.39 334.08
  A 2.14 2.14 0.0 0 1 509.79 337.16
  C 508.50 339.60 507.92 342.16 506.29 344.48
  Q 499.26 354.50 492.85 363.98
  C 491.77 365.58 490.40 366.84 489.25 368.38
  Q 488.13 369.88 486.82 368.54
  Q 474.71 356.17 461.97 343.56
  Q 456.15 337.81 451.54 331.44
  Q 449.05 328.01 452.00 324.89
  Q 462.33 313.96 472.30 305.38
  C 473.40 304.43 474.91 304.61 476.15 305.14
  C 486.72 309.60 496.14 315.91 505.63 321.22
  Q 506.91 321.93 506.19 323.21
  Q 502.03 330.49 500.05 337.95
  Z"
/>
<path fill="#fdfefe" d="
  M 395.95 332.14
  Q 396.47 330.29 396.79 328.53
  Q 397.12 326.78 396.76 325.11
  Q 395.65 319.95 395.63 314.27
  Q 395.63 313.69 396.13 313.99
  Q 397.88 315.04 398.92 316.73
  Q 402.77 323.01 408.80 328.16
  A 1.43 1.42 44.1 0 1 408.84 330.29
  C 405.88 333.01 400.93 334.23 397.06 335.38
  A 1.05 1.03 67.0 0 0 396.46 336.89
  C 398.30 340.13 402.66 342.87 405.55 345.28
  A 1.32 1.31 -56.3 0 1 405.87 346.91
  Q 405.15 348.28 404.05 349.39
  Q 390.39 363.21 375.85 377.64
  Q 373.20 380.27 370.25 382.90
  A 0.37 0.37 0.0 0 1 369.65 382.73
  Q 368.98 380.54 369.04 378.25
  Q 369.23 371.99 369.56 365.73
  Q 369.65 364.03 368.00 364.43
  C 366.22 364.87 364.41 365.32 362.71 366.04
  Q 349.74 371.53 336.95 379.36
  Q 335.00 380.56 329.08 382.78
  C 327.96 383.19 326.72 382.69 326.10 381.73
  A 1.23 1.23 0.0 0 1 326.41 380.08
  Q 331.77 376.18 338.11 372.79
  Q 341.57 370.94 345.37 368.30
  C 350.24 364.91 355.79 362.76 360.79 359.58
  Q 364.47 357.24 368.36 355.32
  A 1.80 1.80 0.0 0 0 369.37 353.75
  Q 369.97 333.58 369.31 312.96
  Q 369.27 311.88 370.29 311.50
  L 379.77 307.97
  A 3.75 3.74 -22.4 0 1 384.48 309.93
  Q 388.01 317.72 390.97 325.23
  C 391.71 327.10 392.92 328.48 394.11 330.06
  Q 394.40 330.46 394.30 330.94
  Q 394.08 332.02 394.51 332.48
  A 0.85 0.85 0.0 0 0 395.95 332.14
  Z"
/>
<path fill="#fdfefe" d="
  M 342.40 360.09
  C 337.81 363.29 332.81 366.35 327.59 369.13
  A 0.52 0.51 77.5 0 1 326.83 368.64
  C 327.91 351.13 327.43 333.38 327.32 315.61
  A 0.48 0.48 0.0 0 1 327.85 315.13
  Q 336.86 315.98 347.58 315.71
  Q 351.36 315.62 354.56 314.56
  Q 355.15 314.37 355.21 314.99
  Q 355.57 319.18 355.54 322.50
  Q 355.41 336.53 355.33 350.43
  A 2.45 2.44 73.0 0 1 354.28 352.42
  C 350.39 355.12 346.21 357.44 342.40 360.09
  Z"
/>
<path fill="#fdfefe" d="
  M 270.47 385.21
  Q 269.43 380.96 267.01 376.49
  Q 266.44 375.45 266.25 371.74
  Q 266.16 370.11 264.96 367.86
  Q 261.38 361.18 257.58 354.34
  C 255.91 351.34 253.89 348.60 253.09 345.25
  Q 252.42 342.45 253.97 344.88
  Q 256.69 349.12 259.26 352.55
  Q 270.53 367.60 283.18 384.16
  C 285.97 387.81 289.08 391.22 292.22 394.49
  Q 294.06 396.40 296.82 397.40
  Q 299.04 398.20 296.68 398.18
  Q 284.78 398.10 275.10 397.48
  Q 259.81 396.51 242.54 395.42
  Q 238.85 395.18 236.47 392.08
  C 231.16 385.18 225.81 378.32 220.77 371.14
  Q 217.55 366.55 213.99 362.32
  Q 212.74 360.82 214.32 359.67
  L 239.99 341.00
  A 1.31 1.31 0.0 0 1 241.99 341.63
  Q 243.42 345.69 245.41 348.81
  C 250.67 357.08 255.59 365.64 261.32 373.53
  Q 265.51 379.30 269.96 385.45
  Q 270.80 386.61 270.47 385.21
  Z"
/>
<path fill="#fdfefe" d="
  M 417.61 423.27
  Q 405.64 428.43 392.36 433.03
  Q 387.86 434.58 383.51 434.65
  Q 376.40 434.77 369.73 435.12
  A 0.63 0.63 0.0 0 1 369.07 434.49
  Q 368.90 411.32 369.08 390.99
  Q 369.10 388.97 369.60 387.03
  Q 369.76 386.41 370.39 386.47
  Q 372.67 386.69 374.13 385.91
  Q 398.64 372.70 416.33 358.27
  Q 424.95 351.24 433.55 344.15
  A 1.98 1.97 40.6 0 1 435.84 343.98
  Q 441.62 347.48 446.17 351.66
  Q 460.14 364.48 475.98 379.65
  A 1.48 1.47 -47.8 0 1 476.07 381.67
  Q 465.19 394.26 450.32 404.57
  Q 444.97 408.28 439.48 411.88
  Q 430.74 417.61 417.61 423.27
  Z"
/>
<path fill="#fdfefe" d="
  M 355.01 426.94
  Q 342.86 426.34 337.00 427.37
  Q 332.54 428.16 328.05 428.79
  Q 327.68 428.84 327.47 428.67
  Q 327.26 428.51 327.03 428.23
  L 326.92 392.54
  A 1.05 1.05 0.0 0 1 327.76 391.50
  Q 332.79 390.49 337.67 387.57
  C 339.49 386.48 341.49 385.82 343.51 385.26
  C 344.81 384.90 345.21 383.66 346.50 383.25
  Q 349.47 382.29 352.76 381.10
  Q 355.04 380.27 355.04 382.70
  L 355.01 426.94
  Z"
/>
<path fill="#fdfefe" d="
  M 326.03 429.86
  Q 326.93 429.85 327.25 430.35
  C 328.21 431.80 330.26 432.75 331.76 432.78
  Q 337.00 432.86 342.16 432.69
  Q 343.60 432.65 347.20 431.84
  Q 350.95 430.99 354.65 432.18
  Q 355.19 433.73 353.75 433.75
  Q 345.31 433.86 336.90 434.36
  Q 327.00 434.93 320.05 434.85
  Q 296.09 434.55 271.77 434.50
  Q 271.22 434.50 270.82 434.12
  Q 260.02 423.85 250.65 413.87
  Q 249.44 412.58 251.20 412.80
  C 254.84 413.25 258.51 413.27 261.91 413.87
  Q 291.49 419.03 319.99 428.48
  Q 321.94 429.12 326.03 429.86
  Z"
/>
<path fill="#dcdcda" d="
  M 355.01 426.94
  L 354.65 432.18
  Q 350.95 430.99 347.20 431.84
  Q 343.60 432.65 342.16 432.69
  Q 337.00 432.86 331.76 432.78
  C 330.26 432.75 328.21 431.80 327.25 430.35
  Q 326.93 429.85 326.03 429.86
  Q 326.67 429.96 326.83 429.62
  Q 327.10 429.00 327.03 428.23
  Q 327.26 428.51 327.47 428.67
  Q 327.68 428.84 328.05 428.79
  Q 332.54 428.16 337.00 427.37
  Q 342.86 426.34 355.01 426.94
  Z"
/>
<path fill="#232423" d="
  M 307.89 478.03
  Q 301.18 478.10 295.78 475.34
  C 291.85 473.34 289.03 469.42 285.36 466.76
  Q 284.66 466.26 285.52 466.25
  Q 298.61 466.17 308.12 466.68
  C 310.89 466.82 313.41 466.41 316.11 466.48
  Q 331.09 466.86 345.89 466.50
  Q 351.01 466.38 356.06 466.50
  C 360.59 466.61 364.94 466.79 369.54 466.58
  Q 379.81 466.10 390.73 466.27
  Q 391.36 466.28 390.92 466.74
  C 384.54 473.46 378.79 478.05 369.00 478.28
  Q 338.32 478.99 309.19 478.05
  Q 308.54 478.03 307.89 478.03
  Z"
/>
<path fill="#232423" d="
  M 60.72 502.86
  C 50.51 501.52 39.59 499.00 30.65 493.51
  Q 23.18 488.93 15.93 483.78
  Q 15.42 483.41 16.01 483.21
  Q 18.39 482.41 20.75 482.37
  Q 28.58 482.21 37.09 482.87
  Q 41.34 483.20 45.48 483.21
  Q 48.60 483.21 51.39 483.75
  C 56.09 484.64 60.81 484.08 65.57 484.78
  Q 69.50 485.35 73.31 485.31
  Q 81.15 485.21 89.25 485.85
  C 89.99 485.91 90.49 486.31 91.30 486.29
  Q 101.80 486.04 110.93 486.80
  C 111.83 486.87 112.31 487.31 113.22 487.31
  Q 127.77 487.16 143.16 487.99
  Q 148.96 488.30 154.76 488.35
  Q 165.34 488.42 182.39 489.01
  Q 191.87 489.34 201.36 489.28
  Q 217.20 489.17 234.25 489.48
  Q 240.06 489.59 245.51 489.62
  C 263.46 489.71 282.07 490.13 300.31 489.77
  Q 337.30 489.06 370.69 489.62
  Q 386.80 489.90 400.19 489.73
  Q 408.71 489.62 417.83 489.73
  C 428.07 489.86 438.33 489.34 448.49 489.59
  C 454.26 489.73 460.03 489.32 465.77 489.33
  Q 479.40 489.36 491.84 489.28
  C 492.47 489.28 492.90 489.02 493.53 489.01
  Q 515.14 488.45 538.26 488.27
  C 540.59 488.25 542.89 487.86 545.25 487.70
  Q 555.34 487.04 564.98 487.29
  C 566.38 487.33 567.49 486.63 568.90 486.57
  Q 576.84 486.26 584.37 486.25
  C 587.89 486.24 591.36 485.46 594.93 485.38
  Q 603.66 485.18 612.76 485.27
  C 614.75 485.29 616.49 484.49 618.49 484.41
  Q 624.04 484.17 629.36 484.24
  C 630.33 484.26 630.91 483.81 631.82 483.75
  Q 642.35 483.02 653.45 483.23
  C 656.72 483.29 659.71 482.24 662.88 483.34
  Q 663.38 483.51 663.07 483.95
  Q 661.38 486.35 659.00 488.26
  C 651.65 494.18 644.47 498.95 636.67 500.90
  C 631.97 502.07 627.92 504.41 623.00 502.79
  C 622.03 502.48 621.24 503.03 620.29 503.05
  Q 608.23 503.22 596.24 503.15
  Q 592.34 503.13 587.27 502.74
  Q 582.22 502.34 578.51 502.98
  Q 574.89 503.60 572.43 503.09
  Q 570.48 502.69 568.64 502.92
  Q 565.62 503.28 562.24 502.98
  Q 556.11 502.42 552.50 502.74
  Q 548.83 503.07 546.30 502.95
  Q 542.75 502.79 542.70 502.79
  Q 503.39 502.68 463.45 502.75
  C 460.29 502.76 457.18 503.30 454.01 502.93
  C 450.82 502.56 447.13 502.60 443.95 503.00
  C 441.59 503.30 439.33 502.69 436.98 502.71
  Q 426.45 502.83 416.09 502.67
  Q 413.29 502.63 410.51 503.06
  C 407.88 503.47 405.47 502.67 402.85 502.70
  Q 397.25 502.77 391.66 502.71
  C 390.69 502.70 390.01 503.02 389.05 503.06
  C 380.39 503.48 371.81 502.96 363.33 503.05
  Q 334.21 503.35 304.28 502.97
  Q 285.36 502.72 266.44 502.73
  Q 196.08 502.75 122.30 502.71
  Q 118.50 502.70 114.74 502.97
  Q 111.03 503.24 107.05 502.94
  Q 103.41 502.67 100.33 502.69
  Q 96.99 502.70 93.69 502.67
  C 92.37 502.65 91.56 503.37 90.30 503.33
  Q 75.85 502.86 62.09 503.68
  A 0.89 0.88 -22.9 0 1 61.40 503.40
  L 61.06 503.03
  Q 60.92 502.88 60.72 502.86
  Z"
/>
</svg>
